<svg xmlns="http://www.w3.org/2000/svg" version="1.1" xmlns:xlink="http://www.w3.org/1999/xlink" xmlns:svgjs="http://svgjs.com/svgjs" width="512" height="512" x="0" y="0" viewBox="0 0 682.667 682.667" style="enable-background:new 0 0 512 512" xml:space="preserve"><g><defs><clipPath id="a" clipPathUnits="userSpaceOnUse"><path d="M0 512h512V0H0Z" fill="#000000" data-original="#000000"></path></clipPath></defs><g clip-path="url(#a)" transform="matrix(1.33333 0 0 -1.33333 0 682.667)"><path d="m0 0 3.88 5.3c9.27 12.689 6.51 30.49-6.17 39.76l-26.77 19.58a3.87 3.87 0 0 1-5.41-.84l-10.18-13.92a3.877 3.877 0 0 0-5.41-.84l-28.08 20.54c-1.72 1.26-4.14.88-5.41-.841L-99.86 46.43a3.868 3.868 0 0 1 .84-5.41l28.07-20.531a3.87 3.87 0 0 0 .84-5.409L-80.28 1.159a3.866 3.866 0 0 1 .83-5.409l20.89-15.28" style="stroke-width:15;stroke-linecap:round;stroke-linejoin:round;stroke-miterlimit:10;stroke-dasharray:none;stroke-opacity:1" transform="translate(381.64 129.4)" fill="none" stroke="#000000" stroke-width="15" stroke-linecap="round" stroke-linejoin="round" stroke-miterlimit="10" stroke-dasharray="none" stroke-opacity="" data-original="#000000"></path><path d="M0 0a1151.721 1151.721 0 0 0 33.91-48.64c3.64-5.509 2.14-12.929-3.34-16.6-9.39-6.27-18.77-12.55-28.15-18.82-5.53-3.7-13.01-2.19-16.68 3.36-81.27 123.051-186.35 228.131-309.4 309.4-5.55 3.67-7.06 11.151-3.36 16.68 6.27 9.38 12.55 18.761 18.82 28.15 3.67 5.48 11.09 6.98 16.6 3.34C-188.39 208.79-97.21 124.75-21.19 27.88" style="stroke-width:15;stroke-linecap:round;stroke-linejoin:round;stroke-miterlimit:10;stroke-dasharray:none;stroke-opacity:1" transform="translate(468.26 225.299)" fill="none" stroke="#000000" stroke-width="15" stroke-linecap="round" stroke-linejoin="round" stroke-miterlimit="10" stroke-dasharray="none" stroke-opacity="" data-original="#000000"></path><path d="m0 0-115.86-347.45" style="stroke-width:15;stroke-linecap:round;stroke-linejoin:round;stroke-miterlimit:10;stroke-dasharray:none;stroke-opacity:1" transform="translate(151.899 449.129)" fill="none" stroke="#000000" stroke-width="15" stroke-linecap="round" stroke-linejoin="round" stroke-miterlimit="10" stroke-dasharray="none" stroke-opacity="" data-original="#000000"></path><path d="m0 0-16.7-50.091c-2.09-6.26 3.86-12.21 10.12-10.119L424.16 83.42" style="stroke-width:15;stroke-linecap:round;stroke-linejoin:round;stroke-miterlimit:10;stroke-dasharray:none;stroke-opacity:1" transform="translate(24.97 68.48)" fill="none" stroke="#000000" stroke-width="15" stroke-linecap="round" stroke-linejoin="round" stroke-miterlimit="10" stroke-dasharray="none" stroke-opacity="" data-original="#000000"></path><path d="M0 0c13.78-1.63 27.13-7.73 37.69-18.3 25-25 25-65.53 0-90.53-20.97-20.97-52.87-24.35-77.36-10.13" style="stroke-width:15;stroke-linecap:round;stroke-linejoin:round;stroke-miterlimit:10;stroke-dasharray:none;stroke-opacity:1" transform="translate(118.58 349.2)" fill="none" stroke="#000000" stroke-width="15" stroke-linecap="round" stroke-linejoin="round" stroke-miterlimit="10" stroke-dasharray="none" stroke-opacity="" data-original="#000000"></path><path d="M0 0c-1-1.2-2.06-2.359-3.18-3.479C-23-23.3-55.13-23.3-74.95-3.479c-19.82 19.819-19.82 51.959 0 71.779 1.52 1.52 3.11 2.93 4.77 4.21" style="stroke-width:15;stroke-linecap:round;stroke-linejoin:round;stroke-miterlimit:10;stroke-dasharray:none;stroke-opacity:1" transform="translate(361.78 265.129)" fill="none" stroke="#000000" stroke-width="15" stroke-linecap="round" stroke-linejoin="round" stroke-miterlimit="10" stroke-dasharray="none" stroke-opacity="" data-original="#000000"></path><path d="M0 0h22.21c4.28 0 7.75-3.46 7.75-7.739V-51.3c0-4.28-3.47-7.74-7.75-7.74h-41.9" style="stroke-width:15;stroke-linecap:round;stroke-linejoin:round;stroke-miterlimit:10;stroke-dasharray:none;stroke-opacity:1" transform="translate(62.249 180.259)" fill="none" stroke="#000000" stroke-width="15" stroke-linecap="round" stroke-linejoin="round" stroke-miterlimit="10" stroke-dasharray="none" stroke-opacity="" data-original="#000000"></path><path d="m0 0-22.836 16.701c-8.564 6.264-10.429 18.284-4.166 26.849l16.591 22.685A3.871 3.871 0 0 0-5 67.074l9.514-6.957a3.87 3.87 0 0 1 5.41.84l15.052 20.58a3.87 3.87 0 0 0 5.411.84L46.46 70.622a3.872 3.872 0 0 0 .84-5.411L32.248 44.63a3.87 3.87 0 0 1 .839-5.41l9.513-6.958a3.871 3.871 0 0 0 .84-5.41L26.849 4.166C20.585-4.398 8.564-6.264 0 0Z" style="stroke-width:15;stroke-linecap:round;stroke-linejoin:round;stroke-miterlimit:10;stroke-dasharray:none;stroke-opacity:1" transform="translate(211.407 176.273)" fill="none" stroke="#000000" stroke-width="15" stroke-linecap="round" stroke-linejoin="round" stroke-miterlimit="10" stroke-dasharray="none" stroke-opacity="" data-original="#000000"></path><path d="M0 0c3.24 16.09-1.38 33.45-13.86 45.93-19.82 19.82-51.96 19.82-71.78 0-19.82-19.821-19.82-51.96 0-71.781a58.44 58.44 0 0 1 2.11-2" style="stroke-width:15;stroke-linecap:round;stroke-linejoin:round;stroke-miterlimit:10;stroke-dasharray:none;stroke-opacity:1" transform="translate(223.979 76.82)" fill="none" stroke="#000000" stroke-width="15" stroke-linecap="round" stroke-linejoin="round" stroke-miterlimit="10" stroke-dasharray="none" stroke-opacity="" data-original="#000000"></path><path d="m0 0-5.12-15.35a7.743 7.743 0 0 0-9.8-4.89L-56.24-6.46c-4.05 1.35-6.25 5.73-4.89 9.79l12.01 36.05" style="stroke-width:15;stroke-linecap:round;stroke-linejoin:round;stroke-miterlimit:10;stroke-dasharray:none;stroke-opacity:1" transform="translate(250.339 374.58)" fill="none" stroke="#000000" stroke-width="15" stroke-linecap="round" stroke-linejoin="round" stroke-miterlimit="10" stroke-dasharray="none" stroke-opacity="" data-original="#000000"></path></g></g></svg>