<svg xmlns="http://www.w3.org/2000/svg" version="1.1" xmlns:xlink="http://www.w3.org/1999/xlink" xmlns:svgjs="http://svgjs.com/svgjs" width="512" height="512" x="0" y="0" viewBox="0 0 511.999 511.999" style="enable-background:new 0 0 512 512" xml:space="preserve"><g><path d="M479.74 428.551h-72.42a7.5 7.5 0 0 0-7.5 7.5 7.5 7.5 0 0 0 7.5 7.5h64.92v4.231l-109.206 20.739H144.126L34.92 447.782v-4.231h29.82l.035.002.028-.002h27.022l.026.002.043-.002h89.917l.016.001.014-.001h26.795l.024.002.025-.002h89.79l.025.002.023-.002h80.946a7.5 7.5 0 0 0 7.5-7.5 7.5 7.5 0 0 0-7.5-7.5h-48.376c8.957-5.692 17.316-12.358 24.831-19.868 10.847-10.852 19.752-23.126 26.558-36.396 9.484 3.863 19.526 5.824 29.937 5.824 43.925 0 79.66-35.74 79.66-79.67 0-43.925-35.735-79.66-79.66-79.66-4.76 0-9.476.431-14.11 1.262v-4.291c0-9.6-7.81-17.41-17.409-17.41h-35.471a7.5 7.5 0 0 0-7.5 7.5 7.5 7.5 0 0 0 7.5 7.5H380.9a2.412 2.412 0 0 1 2.409 2.41v12.75h-259.47v-12.75a2.413 2.413 0 0 1 2.41-2.41h191.32a7.5 7.5 0 0 0 7.5-7.5 7.5 7.5 0 0 0-7.5-7.5h-191.32c-9.6 0-17.41 7.81-17.41 17.41v90.58a145.12 145.12 0 0 0 3.901 33.42c-12.207-3.64-26.753-.78-40.025 8.301a7.5 7.5 0 1 0 8.47 12.38c8.698-5.951 17.826-8.287 25.374-6.775L79.241 394.53a7.5 7.5 0 0 0 12.47 8.336l27.326-40.886c2.834 4.207 4.387 9.712 4.46 16.128v.008l.001.042c.101 9.908-3.361 20.625-9.746 30.177-3.64 5.447-7.944 10.118-12.818 13.902-3.379 2.646-6.929 4.763-10.566 6.314H66.675a16.9 16.9 0 0 1-.81-.507c-12.487-8.34-13.277-29.909-1.799-49.104a7.5 7.5 0 0 0-12.873-7.699c-7.317 12.235-10.891 25.867-10.063 38.386.47 7.103 2.329 13.504 5.389 18.923H27.42a7.5 7.5 0 0 0-7.5 7.5v17.94a7.5 7.5 0 0 0 6.101 7.368l110.29 20.945v22.196a7.5 7.5 0 0 0 7.5 7.5h219.528a7.5 7.5 0 0 0 7.5-7.5v-22.194l110.3-20.947a7.5 7.5 0 0 0 6.101-7.368v-17.94a7.5 7.5 0 0 0-7.5-7.499zM398.308 306.33v-35.484h.001a30.814 30.814 0 0 1 14.11-3.415c17.099 0 31.01 13.911 31.01 31.01s-13.911 31.01-31.01 31.01a30.768 30.768 0 0 1-15.353-4.083 146.93 146.93 0 0 0 1.242-19.038zm-4.09 34.375a45.794 45.794 0 0 0 18.201 3.747c25.37 0 46.01-20.64 46.01-46.01s-20.64-46.01-46.01-46.01c-4.84 0-9.588.757-14.11 2.214v-18.567c0-.026.004-.051.004-.077s-.004-.051-.004-.077v-.589a64.716 64.716 0 0 1 14.111-1.555c35.653 0 64.66 29.006 64.66 64.66 0 35.659-29.007 64.67-64.66 64.67-8.269 0-16.24-1.541-23.783-4.538a143.052 143.052 0 0 0 5.581-17.868zm-270.379-97.203h259.47v62.829c0 34.654-13.493 67.237-37.991 91.745-13.573 13.564-30.197 24.076-48.133 30.475h-87.201a126.92 126.92 0 0 1-7.203-2.8c5.503-8.652 7.6-18.278 5.789-27.452l-.005-.035c-.003-.014-.008-.028-.01-.042-2.391-11.935-10.824-21.755-23.752-27.653-12.11-5.525-26.911-6.955-41.678-4.023a78.32 78.32 0 0 0-3.994.907c-10.011-18.714-15.292-39.718-15.292-61.121v-62.83zm2.386 173.167c6.943-10.388 11.133-22.037 12.069-33.325a62.543 62.543 0 0 1 7.755-2.087c19.083-3.788 37.483 1.954 44.82 12.878l-48.2 9.581a7.5 7.5 0 0 0 1.454 14.857c.484 0 .977-.047 1.47-.146l48.23-9.588c-.962 4.934-3.712 9.88-8.117 14.424l-.034.037c-1.837 1.885-3.914 3.64-6.176 5.249h-63.061a75.79 75.79 0 0 0 9.79-11.88zm229.614 80.332H151.31v-13.48h204.529v13.48zM273.097 149.949l-.327.206.327-.206zM272.77 150.154c-.2.126-.175.11 0 0z" fill="#000000" data-original="#000000"></path><path d="M289.335 81.868c10.1-9.6 15.917-22.903 15.917-37.183 0-17.775-8.998-34.048-24.07-43.532a7.5 7.5 0 1 0-7.988 12.696c10.682 6.721 17.059 18.248 17.059 30.835s-6.377 24.114-17.059 30.835c-4.585 2.876-4.585 9.81 0 12.696 10.682 6.721 17.059 18.248 17.059 30.835.001 12.588-6.376 24.116-17.058 30.837l-.098.062.098-.061a7.5 7.5 0 0 0 7.987 12.696c15.072-9.483 24.07-25.757 24.07-43.531 0-14.282-5.818-27.585-15.917-37.185zm-12.228 65.557c.177-.111.199-.125 0 0zm-.977.616.453-.285-.453.285zM333.964 75.521a7.5 7.5 0 1 0-7.988 12.696c10.681 6.721 17.058 18.249 17.058 30.836.001 12.585-6.376 24.113-17.057 30.834a7.5 7.5 0 0 0 7.987 12.696c15.071-9.483 24.069-25.757 24.069-43.531s-8.998-34.048-24.069-43.531zM224.079 75.52a7.5 7.5 0 1 0-7.988 12.696c10.682 6.721 17.059 18.248 17.059 30.835.001 12.587-6.376 24.115-17.058 30.836a7.5 7.5 0 0 0 7.987 12.696c15.072-9.483 24.07-25.757 24.07-43.531 0-17.775-8.998-34.048-24.07-43.532z" fill="#000000" data-original="#000000"></path></g></svg>