<svg xmlns="http://www.w3.org/2000/svg" version="1.1" xmlns:xlink="http://www.w3.org/1999/xlink" xmlns:svgjs="http://svgjs.com/svgjs" width="512" height="512" x="0" y="0" viewBox="0 0 512 512" style="enable-background:new 0 0 512 512" xml:space="preserve"><g><path d="M443.285 162.969c-4.082-6.024-9.828-9.707-16.547-10.719 1.547-6.625.301-13.262-3.687-19.145a25.91 25.91 0 0 0-17.094-10.972c-7.027-1.176-14.043.535-19.75 4.816-9.598 7.196-12.852 19.856-8.262 30.672l-7.148 4.84c-.48-19.45-8.254-38.7-23.145-53.184A76.552 76.552 0 0 0 315.88 90.75a7.754 7.754 0 0 0-9.621 5.266 7.755 7.755 0 0 0 5.27 9.62 60.989 60.989 0 0 1 25.308 14.762c17.922 17.426 22.965 43.504 14.535 65.743-.02.054-.043.109-.062.164-.254.656-.52 1.312-.797 1.965-.075.175-.149.351-.227.527-.258.601-.531 1.2-.812 1.797-.059.12-.114.25-.176.37a58.626 58.626 0 0 1-1.031 2.04c-.102.195-.211.39-.317.582a58.908 58.908 0 0 1-1.047 1.851 78.486 78.486 0 0 0-6.527-8.98c-.016-.016-.031-.035-.047-.055a88.6 88.6 0 0 0-5.09-5.547c-.058-.054-.113-.113-.168-.167-25.988-25.895-68.449-37.372-96.445-42.325a61.523 61.523 0 0 1 11.86-17.039 60.886 60.886 0 0 1 28.827-16.37 7.754 7.754 0 1 0-3.703-15.063 77.23 77.23 0 0 0-10.101 3.242C281 68.375 285.066 32.145 283.492 15.98c-.695-7.144-2.43-11.421-5.629-13.863C275.512.324 272.63-.359 269.738.18c-7.144 1.351-12.023 9.402-21.75 25.437-6.347 10.473-14.25 23.5-24.238 36.75-4.793 6.363-11.855 11.524-20.879 16.817-.648-2.684-1.844-4.817-3.598-6.446-2.398-2.23-5.597-3.215-9.015-2.765-3.414.449-9.13 1.203-30.238 31.855-2.805 4.07-6.102 8.043-9.801 11.805-7.672 7.8-11.856 16.48-12.895 27.484-9.336-4.488-20.043-4.066-28.879.797L68.418 101.16a24.28 24.28 0 0 0-2.207-29.496c-4.484-5.031-10.66-7.926-17.383-8.148-6.621-.227-13.137 2.32-17.867 6.964-4.734 4.649-7.18 10.375-7.156 16.547-6.192-.164-11.887 2.16-16.52 6.707a24.457 24.457 0 0 0-7.281 17.739c.098 6.722 2.879 12.945 7.828 17.523 8.203 7.586 20.297 8.531 29.461 2.742l40.02 40.746c-5.004 8.715-5.641 19.368-1.372 28.762h-14.18c-14.218 0-25.78 11.566-25.78 25.781 0 14.22 11.562 25.786 25.78 25.786h.97l36.69 239.492c1.75 11.414 11.4 19.695 22.942 19.695h217.485c11.547 0 21.195-8.281 22.945-19.695l36.691-239.493h.97c14.214 0 25.78-11.566 25.78-25.785 0-14.214-11.566-25.78-25.78-25.78h-4.743l8.074-5.47a25.726 25.726 0 0 0 31.543 3.703c6.102-3.718 10.293-9.597 11.805-16.558a25.909 25.909 0 0 0-3.848-19.953zm-282.008-38.465c4.332-4.399 8.203-9.07 11.516-13.879 7.074-10.273 12.207-16.816 15.66-20.742a11.15 11.15 0 0 0 4.633 5.941 11.092 11.092 0 0 0 11.258.34c13.68-7.512 24.32-14.55 31.793-24.465 10.46-13.87 18.586-27.273 25.117-38.043 2.351-3.879 4.855-8.008 7.07-11.418.078 17.098-5.332 51.875-21.32 69.926-22.89 25.848-42.02 44.64-42.207 44.828a7.753 7.753 0 0 0-1.836 8.246 7.748 7.748 0 0 0 6.781 5.032c.18.011 11.824.773 28.125 3.78.11.024.219.044.328.063.39.075.79.149 1.184.227 19.031 3.64 45.582 10.656 66.937 23.648.137.086.274.168.41.254.415.254.829.512 1.239.774 11.543 7.328 19.156 15.047 24.16 22.226H173.27a63.405 63.405 0 0 1-5.036-5.844l-.101-.136c-.488-.645-.965-1.301-1.43-1.969-.11-.152-.21-.313-.316-.469a71.902 71.902 0 0 1-1.137-1.707c-.137-.215-.266-.43-.402-.644a73.255 73.255 0 0 1-.973-1.61c-.148-.25-.29-.504-.434-.758a57.331 57.331 0 0 1-1.309-2.41 57.977 57.977 0 0 1-.78-1.558c-.149-.301-.293-.606-.438-.91-.242-.52-.48-1.04-.71-1.567-.142-.32-.282-.644-.423-.969-.222-.527-.437-1.058-.652-1.59-.133-.34-.27-.675-.399-1.019-.207-.539-.402-1.082-.601-1.629-.125-.348-.25-.695-.371-1.047a95.786 95.786 0 0 1-.559-1.695c-.113-.352-.23-.703-.34-1.055a108.81 108.81 0 0 1-.523-1.8c-.102-.344-.203-.684-.297-1.032-.18-.664-.351-1.34-.52-2.015-.074-.301-.156-.59-.226-.891-.234-.98-.461-1.977-.672-2.988-.187-.907-.363-1.79-.527-2.664-.04-.211-.074-.418-.114-.625-.14-.762-.27-1.512-.386-2.246l-.059-.344c-.12-.77-.226-1.52-.328-2.258l-.117-.934c-.05-.406-.094-.8-.137-1.195-1.64-15.234 2.016-22.742 8.324-29.16zM112 158.46l.25-.242.484-.438c.032-.027.059-.058.086-.086 5.07-4.554 12.344-5.515 18.348-2.343 2.227 1.175 4.5 2.328 6.793 3.441a132.132 132.132 0 0 0 .605 3.762 141.6 141.6 0 0 0 .875 4.554c.309 1.47.649 2.914 1.008 4.34.102.418.215.828.32 1.242.278 1.055.567 2.098.872 3.13.12.402.238.808.359 1.206.414 1.348.844 2.676 1.305 3.98a95.963 95.963 0 0 0 1.535 4.05c.137.341.281.673.422 1.01.414.995.843 1.972 1.285 2.94.156.333.305.669.46 1a89.671 89.671 0 0 0 1.821 3.65 85.167 85.167 0 0 0 2.04 3.609c.152.254.308.504.46.754a80.312 80.312 0 0 0 1.754 2.757c.102.153.195.317.3.47h-60.23a216.198 216.198 0 0 0-2.82-5.794c-3.062-6.058-1.965-13.312 2.676-18.297.031-.035.066-.062.101-.097zm-66.238-40.234a11.24 11.24 0 0 0-8.04-3.375 11.242 11.242 0 0 0-7.585 2.93c-3.344 2.913-8.516 2.84-11.774-.177a8.778 8.778 0 0 1-2.851-6.367 8.77 8.77 0 0 1 2.644-6.441c2.235-2.195 4.567-2.762 7.785-1.89a11.19 11.19 0 0 0 10.766-2.837 11.189 11.189 0 0 0 2.934-10.746c-.817-3.144-.164-5.469 2.191-7.781a8.762 8.762 0 0 1 6.484-2.527 8.793 8.793 0 0 1 6.32 2.968c2.954 3.313 2.934 8.485-.03 11.766l-.075.082c-4.086 4.43-3.988 11.262.23 15.555l41.77 42.527-9 8.84zm32.66 134.582h29.484l8.172 76.98H90.215zm19.176 125.18L92.59 345.3h66.46a74.1 74.1 0 0 0-2.167 17.777c0 5.106.52 10.09 1.504 14.91h-28.61zm25.906-125.18h30.59l4.902 76.98h-27.324zm25.86 243.683-3.243-30.55a7.743 7.743 0 0 0-8.531-6.891 7.753 7.753 0 0 0-6.89 8.531l3.066 28.91h-11.399a7.659 7.659 0 0 1-7.613-6.539l-14.777-96.457h22.863l4.039 38.074a7.755 7.755 0 1 0 15.422-1.636l-3.867-36.438h24.62l6.56 102.996zm35.788 0-5.066-79.582a74.346 74.346 0 0 0 23.992 15.274l1.363 64.308zm56.11 0h-20.305l-1.277-60.07a74.5 74.5 0 0 0 22.855 0zm35.8 0h-20.289l1.364-64.308a74.29 74.29 0 0 0 23.992-15.278zm-45.957-74.699c-32.375 0-58.714-26.34-58.714-58.715 0-32.379 26.34-58.719 58.714-58.719 32.38 0 58.72 26.34 58.72 58.72 0 32.374-26.34 58.714-58.72 58.714zm-61.468-168.984h30.633l.902 42.37a74.646 74.646 0 0 0-27.504 20.946zm46.148 0h30.649l-.797 37.48a74.18 74.18 0 0 0-29.055 0zm72.762 63.316a74.664 74.664 0 0 0-27.5-20.945l.898-42.371h30.633zm24.305 180.367h-20.247l6.56-102.996h24.616zm34.613-6.539a7.666 7.666 0 0 1-7.617 6.54h-11.399l10.93-102.997h22.863zm17.152-111.965h-60.789a74.445 74.445 0 0 0 1.504-14.91 74.1 74.1 0 0 0-2.168-17.777h66.461zM303.22 329.79l4.902-76.98h30.59l-8.168 76.98zm68.781 0h-25.863l8.172-76.98h29.488zm28.453-113.035c5.664 0 10.274 4.61 10.274 10.273 0 5.664-4.61 10.274-10.274 10.274H61.762c-5.664 0-10.274-4.61-10.274-10.274 0-5.664 4.61-10.273 10.274-10.273zm31.527-37.129a10.243 10.243 0 0 1-4.718 6.61c-4.41 2.683-10.325 1.581-13.469-2.512l-.07-.09c-3.723-4.95-10.645-6.11-15.762-2.645l-29.899 20.258h-6.617c.442-.805.868-1.621 1.278-2.437.09-.184.175-.364.261-.543a74.611 74.611 0 0 0 1.454-3.13 76.689 76.689 0 0 0 4.246-12.507l20.828-14.113c5.117-3.465 6.605-10.328 3.41-15.578l-.082-.141c-2.637-4.438-1.465-10.34 2.668-13.438a10.233 10.233 0 0 1 7.887-1.933 10.21 10.21 0 0 1 6.816 4.375c2.035 3.008 2.207 5.894.55 9.363a11.494 11.494 0 0 0 .868 11.395 11.504 11.504 0 0 0 10.316 4.953c3.75-.274 6.364 1.008 8.5 4.156a10.208 10.208 0 0 1 1.535 7.957zm0 0" fill="#000000" data-original="#000000"></path></g></svg>