<svg xmlns="http://www.w3.org/2000/svg" version="1.1" xmlns:xlink="http://www.w3.org/1999/xlink" xmlns:svgjs="http://svgjs.com/svgjs" width="512" height="512" x="0" y="0" viewBox="0 0 64 64" style="enable-background:new 0 0 512 512" xml:space="preserve"><g><path d="M52.617 29.972a1.24 1.24 0 0 1-.802.472l-.78.116a3.238 3.238 0 0 0-2.716 2.646l-.107.611a1.001 1.001 0 0 0 .986 1.173c.477 0 .898-.342.984-.827l.107-.611c.092-.527.51-.935 1.039-1.013l.782-.116a3.241 3.241 0 0 0 2.088-1.228.998.998 0 0 0-.18-1.402.997.997 0 0 0-1.402.18zM21.578 40.074a3.218 3.218 0 0 0-1.649 2.291l-.108.61a1.001 1.001 0 0 0 1.97.346l.107-.611a1.23 1.23 0 0 1 .631-.876 1 1 0 0 0-.951-1.759zM9.537 25.473a3.216 3.216 0 0 0-2.6 1.104l-.408.467a1 1 0 0 0 1.506 1.316l.408-.467c.251-.287.616-.435.994-.422a.991.991 0 0 0 1.049-.949 1 1 0 0 0-.949-1.049zM32.093 36.664a1.232 1.232 0 0 1-.801.471l-.78.116a3.246 3.246 0 0 0-1.067.356 1 1 0 1 0 .956 1.757 1.24 1.24 0 0 1 .406-.136l.781-.116a3.228 3.228 0 0 0 2.09-1.229.999.999 0 1 0-1.584-1.22zM26.587 17.113a3.228 3.228 0 0 0 2.09-1.229.999.999 0 1 0-1.584-1.22 1.232 1.232 0 0 1-.801.471l-.78.116a3.246 3.246 0 0 0-1.067.356 1 1 0 1 0 .956 1.757 1.24 1.24 0 0 1 .406-.136l.781-.116zM48.596 21.98c.088 0 .177-.012.265-.035a3.229 3.229 0 0 0 1.631-1.047l.175-.209a1.239 1.239 0 0 1 1.322-.389l2.015.629a.999.999 0 1 0 .596-1.908l-2.015-.63a3.237 3.237 0 0 0-3.451 1.015l-.175.208c-.164.196-.38.335-.625.401a1 1 0 0 0 .263 1.965zM38.556 31.11a1 1 0 0 0 .938-.653c.23-.623.265-1.292.098-1.935l-.068-.265a1.24 1.24 0 0 1 .453-1.302l1.684-1.274a.999.999 0 1 0-1.207-1.593l-1.684 1.273a3.232 3.232 0 0 0-1.182 3.396l.068.266c.063.246.051.502-.037.74a.998.998 0 0 0 .938 1.346zM35.145 15.167c.2 0 .403-.061.579-.186a3.223 3.223 0 0 0 1.169-1.542l.093-.258a1.237 1.237 0 0 1 1.107-.82l2.108-.104c.552-.027.977-.497.949-1.049s-.478-.991-1.049-.949l-2.108.104a3.233 3.233 0 0 0-2.889 2.14l-.094.259c-.086.239-.24.443-.447.591a1 1 0 0 0 .581 1.815zM20.064 22.507a3.268 3.268 0 0 0-2.938 1.487l-.146.23a1.24 1.24 0 0 1-.569.478 1 1 0 1 0 .77 1.846 3.232 3.232 0 0 0 1.484-1.245l.146-.229a1.23 1.23 0 0 1 1.125-.57 1 1 0 1 0 .128-1.996z" fill="#000000" data-original="#000000"></path><path d="M57.584 37.05c1.427-1.699 1.681-3.136 1.883-4.291.113-.646.211-1.205.485-1.759l.225-.44c.713-1.396 1.6-3.134 1.672-4.703l.038-.666c.118-1.938.298-4.865-1.245-7.395-.989-1.606-2.692-2.331-4.196-2.972-.663-.282-1.29-.55-1.796-.863-1.242-.776-2.282-.596-3.088-.269l-.005-.025c-.553-1.804-2.022-2.935-3.319-3.933-.57-.439-1.109-.854-1.523-1.286-1.349-1.409-2.773-1.083-3.718-.864-.429.098-.8.183-1.055.106-.618-.18-1.354-.513-2.134-.864-1.612-.729-3.426-1.562-5.172-1.454-1.406.077-2.525.842-3.607 1.581-.715.488-1.39.95-2.077 1.16-.392.118-.876.238-1.391.367-1.258.313-2.683.669-3.589 1.178-1.052.591-1.669 1.711-2.214 2.699-.325.59-.633 1.147-.964 1.476-1.099 1.099-1.802 1.818-2.38 2.734-.858 1.363-2.239 2.484-3.899 3.161l-.254.106c-1.033.425-2.215.615-3.644.586a8.597 8.597 0 0 0-2.875.392c-1.527.461-2.042 1.216-2.54 1.946-.279.411-.569.836-1.106 1.343-1.5 1.413-2.778 3.08-1.982 5.687.484 1.607 2.293 2.462 3.746 3.147.282.134.547.259.776.379l.153.081c1.047.552 1.94 1.022 3.167 1.022.537 0 1.139-.09 1.845-.304a9.137 9.137 0 0 0 2.589-1.279c1.152-.817 2.252-1.327 3.353-1.554l.571-.111c1.599-.33 3.124-.255 4.405.216 1.013.382 1.999.405 3.043.43.504.012 1.07.042 1.669.094a9.115 9.115 0 0 1-1.127 1.011l-.231.168c-.894.668-2.036 1.165-3.399 1.478a9.006 9.006 0 0 0-2.676 1.102c-1.355.832-1.664 1.688-1.962 2.516-.169.469-.344.953-.742 1.586-1.098 1.754-1.917 3.695-.493 6.005.881 1.432 2.848 1.804 4.428 2.103.301.058.582.11.821.166l.161.038c.771.185 1.465.352 2.195.352.847 0 1.74-.224 2.852-.902a8.879 8.879 0 0 0 2.186-1.883c.923-1.086 1.861-1.854 2.869-2.35l.51-.25c1.464-.716 2.96-1.025 4.329-.883.332.033.662.036 1.009.011l1.606 11.248a3.014 3.014 0 0 0 2.97 2.576h14.531a3.015 3.015 0 0 0 2.97-2.576l1.685-11.797c.023-.093.028-.191.041-.287l.029-.193c.002-.013-.003-.025-.002-.038.002-.037.013-.072.013-.109 0-1.793-1.808-3.116-4.416-3.95zm2.41 3.918-.021.143C57.831 39.795 54.158 39 50.001 39s-7.83.794-9.972 2.111l-.021-.143C40.077 39.774 44.042 38 50.002 38s9.925 1.774 9.994 2.968zm-1.645 1.538C56.642 43.312 53.708 44 50.001 44s-6.641-.687-8.348-1.494C43.35 41.68 46.241 41 50.001 41s6.651.68 8.348 1.506zm-32.541-12.69c-.944-.022-1.689-.04-2.393-.305-1.639-.603-3.545-.706-5.496-.303l-.571.111c-1.388.286-2.734.902-4.121 1.887a7.113 7.113 0 0 1-2.017.996c-1.518.459-2.097.158-3.489-.577l-.154-.08c-.25-.133-.542-.271-.854-.418-.979-.463-2.457-1.161-2.686-1.92-.407-1.332-.044-2.253 1.44-3.651.696-.656 1.079-1.219 1.388-1.671.435-.638.614-.902 1.468-1.16a6.828 6.828 0 0 1 2.236-.306c1.715.027 3.168-.204 4.468-.738l.251-.105c2.064-.84 3.734-2.204 4.828-3.942.464-.735 1.101-1.386 2.099-2.384.532-.527.925-1.239 1.305-1.928.436-.791.887-1.608 1.441-1.92.672-.378 2.015-.713 3.094-.981a32.958 32.958 0 0 0 1.488-.395c.981-.3 1.816-.87 2.624-1.422.895-.611 1.739-1.188 2.592-1.236 1.233-.066 2.833.647 4.235 1.28.846.382 1.644.742 2.391.96.76.229 1.455.066 2.068-.075.899-.207 1.286-.268 1.826.299.52.541 1.145 1.022 1.748 1.487 1.163.895 2.262 1.739 2.625 2.928.014.047.018.1.031.148-.612-.036-1.333-.154-2.108-.289-1.75-.303-3.736-.645-5.391-.118-1.33.429-2.216 1.442-3.073 2.422-.574.657-1.117 1.277-1.741 1.656-.353.215-.795.455-1.264.71-1.135.617-2.422 1.317-3.167 2.031-.876.838-1.191 2.079-1.471 3.174-.034.136-.069.268-.103.399a1.226 1.226 0 0 1-.653-.137l-.688-.39a3.239 3.239 0 0 0-3.767.418l-.461.416a1 1 0 1 0 1.34 1.484l.462-.417a1.244 1.244 0 0 1 1.442-.16l.687.39c.255.144.526.237.803.308-.558.955-.969 1.736-1.242 2.591-.13.402-.297.792-.495 1.17-1.179-.193-2.134-.216-2.977-.236zm6.132 11.437-.511.25c-1.259.618-2.407 1.551-3.52 2.859a6.904 6.904 0 0 1-1.699 1.464c-1.363.832-1.998.678-3.535.311l-.167-.04a23.92 23.92 0 0 0-.909-.185c-1.066-.201-2.679-.507-3.097-1.188-.733-1.188-.615-2.135.483-3.892.513-.814.744-1.455.93-1.971.262-.725.37-1.025 1.13-1.492a6.977 6.977 0 0 1 2.079-.855c1.632-.374 3.026-.988 4.133-1.815l.231-.168a10.766 10.766 0 0 0 2.574-2.719l.009-.013a9.649 9.649 0 0 0 1.113-2.305c.268-.84.741-1.662 1.438-2.825.382-.648.582-1.434.775-2.194.223-.875.453-1.78.916-2.223.552-.529 1.765-1.188 2.739-1.719a31.42 31.42 0 0 0 1.347-.759c.887-.537 1.559-1.305 2.208-2.047.709-.812 1.378-1.577 2.179-1.835 1.186-.378 2.914-.078 4.438.185.907.157 1.765.306 2.541.332.772.044 1.421-.3 1.979-.59.815-.424 1.174-.58 1.85-.16.638.396 1.365.706 2.068 1.005 1.348.574 2.621 1.116 3.274 2.177 1.213 1.989 1.063 4.438.954 6.227l-.04.696c-.052 1.139-.83 2.662-1.455 3.886l-.231.455c-.406.818-.539 1.576-.667 2.31-.187 1.065-.363 2.073-1.46 3.368-.191.225-.565.431-1.122.628a29.176 29.176 0 0 0-4.916-.41c-5.431 0-10.908 1.43-11.845 4.164a4.033 4.033 0 0 1-.804.011c-1.742-.173-3.612.196-5.412 1.078zm26.315 11.888c-.069.49-.495.859-.989.859h-2.085l.806-4.836a.999.999 0 1 0-1.972-.328L53.154 54h-2.153v-5a1 1 0 1 0-2 0v5h-2.153l-.861-5.164a1 1 0 1 0-1.972.328L44.821 54h-2.085c-.494 0-.92-.369-.989-.859l-1.285-8.996C42.771 45.368 46.395 46 50.002 46s7.231-.633 9.54-1.855l-1.285 8.996z" fill="#000000" data-original="#000000"></path><path d="M10.109 37.006c-.25-.029-3.596.029-4.661 1.169-.986 1.056-.092 2.286.245 2.75l.087.117c-.039.124-.101.284-.144.396-.222.571-.498 1.283-.06 1.924.183.267.546.586 1.219.586l.222.002c1.009 0 4.005-.112 5.307-1.39.441-.434.675-.973.675-1.56 0-.886-.869-3.77-2.891-3.994zm.814 4.126c-.496.488-2.062.739-3.336.802.119-.321.228-.671.228-1.03 0-.462-.256-.814-.504-1.155a5.871 5.871 0 0 1-.213-.305c.649-.271 2.311-.495 2.791-.449.487.054 1.107 1.488 1.11 2.006 0 .024 0 .058-.076.132zM11.297 48.624c-.312.089-.729.332-.95.987-.46 1.373-.728 4.17 1.555 4.937.306.103.657.142.998.142.307 0 .603-.032.845-.078.929-.176 1.557-.621 1.757-1.224.04-.088.116-.196.197-.322.433-.674 1.157-1.801.556-2.914-.685-1.269-2.136-.812-2.684-.642l-.14.045c-.104-.076-.237-.187-.329-.262-.472-.393-1.059-.878-1.805-.669zm.779 2.413c.249.196.525.386.838.49.44.148.854.018 1.256-.109.059-.019.136-.043.215-.065a6.402 6.402 0 0 1-.369.632 4.83 4.83 0 0 0-.336.576c-.257.12-.891.177-1.142.091-.545-.183-.55-.984-.462-1.614zM9.227 11.833h-.004c-.068-.011-.154-.039-.252-.067-.59-.17-1.821-.524-2.604.43-.793.968-.105 2.046.188 2.507l.064.099a7.452 7.452 0 0 1-.115.363c-.186.545-.416 1.224.013 1.822.108.151.328.38.707.483.508.349 1.235.526 1.999.526.84 0 1.724-.214 2.41-.649 1.301-.825 1.701-2.267 1.071-3.854-.514-1.294-3.223-1.659-3.478-1.659zm1.411 3.772c-.729.53-1.988.435-2.254.241l.014-.04c.116-.343.248-.731.248-1.131 0-.408-.199-.728-.396-1.035l.168.047c.252.073.49.142.737.142.34.008 1.395.302 1.736.525.293.852-.088 1.13-.254 1.251zM31.728 55.062c1.271 0 2.906-1.249 3.044-1.39.057-.04.138-.081.227-.13.539-.296 1.662-.911 1.544-2.14-.119-1.245-1.366-1.526-1.898-1.646l-.115-.025c-.059-.102-.127-.242-.174-.338-.253-.518-.568-1.161-1.293-1.284a1.285 1.285 0 0 0-.844.155c-1.272.231-2.697 1.681-3.041 3.194-.342 1.502.39 2.807 1.957 3.49.182.079.383.113.594.113zm-.618-3.069c.142-.889 1.105-1.71 1.43-1.759l.019.037c.159.325.339.694.62.977.288.29.655.376 1.011.457-.057.032-.11.062-.152.084-.23.127-.448.246-.623.419-.246.234-1.202.77-1.602.852-.809-.397-.734-.862-.702-1.066z" fill="#000000" data-original="#000000"></path></g></svg>