<svg xmlns="http://www.w3.org/2000/svg" version="1.1" xmlns:xlink="http://www.w3.org/1999/xlink" xmlns:svgjs="http://svgjs.com/svgjs" width="512" height="512" x="0" y="0" viewBox="0 0 511.292 511.292" style="enable-background:new 0 0 512 512" xml:space="preserve"><g><path fill="#fc9744" d="M444.103 145.239c-30.794-30.794-135.561 55.443-135.561 55.443s96.785-112.778 64.312-158.156C340.381-2.853 235.747-11.556 193.601 55.123 141.07 138.231 116.104 232.61 77.119 277.51s.492 72.39 20.057 75.55c57.016 9.208 175.887-33.861 175.887-33.861-15.581 44.602-41.39 132.999-20.414 179.756 3.131 6.98 13.251 6.236 15.227-1.154 8.871-33.18 31.006-107.004 64.056-157.517 16.036-24.509 34.315-48.183 51.831-70.054.344 8.681 3.099 16.241 6.467 22.349 3.764 6.826 14.076 4.929 15.12-2.796 1.326-9.804 3.482-19.604 6.067-28.982 6.326-22.943 16.662-44.558 29.967-64.29 13.393-19.858 10.652-43.339 2.719-51.272z" data-original="#fc9744"></path><g fill="#fb8627"><path d="M308.547 200.67c.1-.08.69-.56 1.71-1.38-31.16 28.34-43.91 26.61-63.08 30.51 55.17-48.32 105.31-117.23 101.78-165.66-3.26-44.64-58.5-55.71-67.11-57.17 37.23-1.9 74.01 11.8 91.01 35.56 32.27 45.09-63.14 156.78-64.31 158.14zM441.387 196.51c-13.31 19.73-23.64 41.35-29.97 64.29-2.58 9.38-4.74 19.18-6.06 28.98-1.05 7.73-11.36 9.62-15.13 2.8-3.36-6.11-6.12-13.67-6.46-22.35-17.52 21.87-35.8 45.54-51.83 70.05-33.05 50.52-55.19 124.34-64.06 157.52-1.98 7.39-12.1 8.13-15.23 1.15-2.42-5.4-4.22-11.36-5.48-17.74v-.03c8.99-113.41 128.97-254.3 163.89-289.77 26.49-26.93 12.78-44.77 4.62-51.81 11.72-2.2 21.79-1 28.43 5.64 7.93 7.93 10.67 31.41-2.72 51.27z" fill="#fb8627" data-original="#fb8627"></path></g><path d="M327.159 347.691a7.5 7.5 0 0 0-10.24 2.768c-28.339 49.329-47.43 112.274-56.288 145.404-.061.229-.105.393-.49.424-.456.036-.561-.207-.649-.402-11.087-24.714-7.864-63.019-.525-98.82l3.917 3.917c1.464 1.464 3.384 2.197 5.303 2.197s3.839-.732 5.303-2.197a7.5 7.5 0 0 0 0-10.606l-10.63-10.63a584.586 584.586 0 0 1 6.852-25.524l5.713 5.713c1.464 1.464 3.384 2.197 5.303 2.197s3.839-.732 5.303-2.197a7.5 7.5 0 0 0 0-10.606l-11.346-11.346a666.366 666.366 0 0 1 5.458-16.309c.009-.027.013-.054.022-.081.008-.023.02-.043.028-.067.033-.102.882-2.661 2.567-6.894l5.205 5.205c1.464 1.464 3.384 2.197 5.303 2.197s3.839-.732 5.303-2.197a7.5 7.5 0 0 0 0-10.606l-9.315-9.314c3.477-7.188 7.974-15.548 13.523-24.085l8.442 8.442c1.464 1.465 3.384 2.197 5.303 2.197s3.839-.732 5.303-2.197a7.5 7.5 0 0 0 0-10.606l-10.247-10.246c3.575-4.608 7.462-9.125 11.673-13.391a7.5 7.5 0 1 0-10.675-10.537c-26.796 27.146-41.254 62.56-45.399 73.83-9.01 3.137-35.26 12.006-65.603 19.786a7.5 7.5 0 0 0 3.726 14.53c22.525-5.776 42.851-12.146 55.788-16.419-16.267 49.979-35.05 126.751-15.287 170.807 2.572 5.733 8.065 9.267 14.23 9.267.432 0 .868-.018 1.306-.053 6.646-.534 12.054-5.049 13.779-11.501 8.668-32.422 27.314-93.958 54.803-141.807a7.498 7.498 0 0 0-2.762-10.243zM166.716 341.002c-29.41 5.662-52.405 7.227-68.344 4.654-8.763-1.416-23.963-9.674-28.761-22.906-4.269-11.773.163-25.34 13.171-40.323 21.215-24.435 37.826-61.68 57.059-104.806 16.621-37.268 35.459-79.509 60.1-118.491 14.353-22.708 38.34-37.991 67.542-43.032 4.082-.705 6.819-4.585 6.115-8.667s-4.58-6.82-8.667-6.115c-33.437 5.772-61.021 23.458-77.67 49.799-25.219 39.898-44.292 82.665-61.119 120.396-18.746 42.032-34.935 78.332-54.686 101.081-20.981 24.165-20.252 43.394-15.946 55.27 6.52 17.983 25.718 30.218 40.471 32.601 5.685.918 12.099 1.376 19.224 1.376 15.033 0 33.222-2.041 54.348-6.108a7.5 7.5 0 1 0-2.837-14.729z" fill="#000000" data-original="#000000"></path><path d="M449.406 139.935c-15.497-15.497-45.252-10.445-88.441 15.016a408.454 408.454 0 0 0-15.986 9.951c4.754-6.98 9.646-14.551 14.342-22.449 28.386-47.74 34.991-82.829 19.631-104.293-14.684-20.52-42.979-34.771-75.69-38.12-4.123-.426-7.803 2.577-8.225 6.697a7.5 7.5 0 0 0 6.697 8.225c28.496 2.918 52.802 14.854 65.021 31.928 11.396 15.925 4.399 46.267-20.235 87.744-19.566 32.944-43.432 60.886-43.67 61.164-.059.069-.11.143-.166.214-23.301 20.629-34.601 22.549-48.774 24.952-12.54 2.126-26.752 4.535-50.203 18.71a7.5 7.5 0 0 0 3.887 13.92 7.457 7.457 0 0 0 3.872-1.083c21.011-12.699 33.182-14.763 44.951-16.758 15.696-2.661 30.526-5.18 58.663-30.709 6.321-5.054 28.789-22.615 53.635-37.247 34.934-20.573 60.478-26.861 70.086-17.255 2.209 2.209 4.439 7.971 4.442 15.864.003 8.985-2.864 18.187-8.073 25.912-14.196 21.053-24.619 43.423-30.979 66.49-2.886 10.467-4.995 20.55-6.27 29.97-.03.227-.055.407-.466.483-.445.084-.543-.105-.654-.305-3.422-6.205-5.286-12.605-5.54-19.023a7.502 7.502 0 0 0-5.15-6.828 7.504 7.504 0 0 0-8.198 2.436c-11.509 14.371-26.563 33.495-40.944 53.994a7.499 7.499 0 0 0 6.134 11.808 7.49 7.49 0 0 0 6.146-3.193c10.298-14.679 20.981-28.683 30.418-40.693a62.777 62.777 0 0 0 4 8.744c3.31 6.001 9.798 9.065 16.545 7.806 6.724-1.256 11.66-6.445 12.575-13.218 1.185-8.754 3.158-18.173 5.865-27.993 5.928-21.498 15.67-42.388 28.956-62.091 14.848-22.024 12.865-49.702 1.798-60.77zM161.611 304.285h-.036a7.5 7.5 0 0 0-.034 15H161.681a7.5 7.5 0 0 0 .034-15zM133.367 295.882H133.227a7.5 7.5 0 0 0-.034 15H133.333a7.5 7.5 0 0 0 .034-15z" fill="#000000" data-original="#000000"></path><path d="M287.976 91.648H288.116a7.5 7.5 0 0 0 .034-15H288.01a7.5 7.5 0 0 0-.034 15zM242.131 189.617h-.104a7.5 7.5 0 0 0 0 15h.104a7.5 7.5 0 0 0 0-15zM253.154 76.291a7.5 7.5 0 0 0 0-15h-.103a7.5 7.5 0 0 0 0 15zM261.598 104.14h.103a7.5 7.5 0 0 0 0-15h-.103a7.5 7.5 0 0 0 0 15z" fill="#000000" data-original="#000000"></path></g></svg>