<svg xmlns="http://www.w3.org/2000/svg" version="1.1" xmlns:xlink="http://www.w3.org/1999/xlink" xmlns:svgjs="http://svgjs.com/svgjs" width="512" height="512" x="0" y="0" viewBox="0 0 64 64" style="enable-background:new 0 0 512 512" xml:space="preserve"><g><path fill="#c99728" d="M18.471 3.59A3.116 3.116 0 0 0 15.754 2c-1.048 0-1.978.67-2.309 1.664-.162.486-.28.984-.354 1.488l.747 4.524.574 1.149a5.564 5.564 0 0 1-.348 5.578A6.342 6.342 0 0 0 13 19.919c0 1.205.247 2.395.723 3.498L17 27l10.404-2.74.97-3.527-.368-1.109a6.337 6.337 0 0 1 1.057-3.221 5.564 5.564 0 0 0 .756-4.489" data-original="#c99728"></path><path fill="#e7b532" d="M18.018 5.843a8.614 8.614 0 0 1 .427-2.178A2.432 2.432 0 0 1 20.754 2c1.141 0 2.173.621 2.717 1.59l1.282 2.392v2.037l-4.009 1.003" data-original="#e7b532"></path><path fill="#5a5b5d" d="M27.622 3H57a2 2 0 1 1 0 4H28.026" data-original="#5a5b5d"></path><path fill="#777777" d="M57 3H27.824l.202 2H57c.738 0 1.376-.405 1.723-1-.347-.595-.985-1-1.723-1z" data-original="#777777"></path><path fill="#e7b532" d="M24.574 11.18a5.57 5.57 0 0 1-.509 5.223A6.335 6.335 0 0 0 23 19.919c0 .812.112 1.617.331 2.394 0 0 2.103 5.036 2.195 5.173h-4.782l-2.152-4.388A8.847 8.847 0 0 1 18 19.919c0-1.251.37-2.474 1.064-3.515a5.564 5.564 0 0 0 .348-5.578l-.198-.396z" data-original="#e7b532"></path><path fill="#c99728" d="M42.185 23.921C39.804 20.923 36.126 19 32 19s-7.804 1.923-10.185 4.921L22 41h20z" data-original="#c99728"></path><path fill="#e7b532" d="M38.702 25.993C37.054 24.156 34.662 23 32 23s-5.054 1.156-6.702 2.993L25 38h14z" data-original="#e7b532"></path><path fill="#ffe1b2" d="M36.007 29.008A4.993 4.993 0 0 0 32 27c-1.65 0-3.113.799-4.024 2.031L28 34h8z" data-original="#ffe1b2"></path><path fill="#f9cb66" d="M34.993 31c1.959-4.698 6.596-8 12.004-8s10.045 3.302 12.004 8" data-original="#f9cb66"></path><path fill="#ffd992" d="M39.512 31c1.615-2.412 4.364-4 7.484-4s5.87 1.588 7.484 4" data-original="#ffd992"></path><path fill="#2b6724" d="M45 55.4V59a3 3 0 0 1-3 3H22a3 3 0 0 1-3-3v-3.6" data-original="#2b6724"></path><path fill="#4fa04b" d="M62 31c0 14.359-11.641 26-26 26h-8C13.641 57 2 45.359 2 31z" data-original="#4fa04b"></path><path fill="#6bb566" d="M8.084 31C9.106 44.424 20.314 55 34 55h8c1.768 0 3.494-.178 5.163-.514C55.935 50.308 62 41.363 62 31z" data-original="#6bb566"></path><path fill="#3d8738" d="m58.606 53.795-1.213-1.591 2.067-1.575A6.222 6.222 0 0 0 61 46.528V45h2v1.528a8.23 8.23 0 0 1-2.111 5.507 1.04 1.04 0 0 1-.138.127z" data-original="#3d8738"></path><path fill="#c53330" d="M54.758 52.484A11.763 11.763 0 0 0 56 47.223c0-1.468-.28-2.923-.826-4.287A8.633 8.633 0 0 1 55 37a4 4 0 0 0-4 4v2l-1.213-1.213A6.102 6.102 0 0 1 48 37.472 7.237 7.237 0 0 0 44 31c0 2.617-.711 5.186-2.058 7.43A6.614 6.614 0 0 0 41 41.831V45l-3-5a11.91 11.91 0 0 0-2 6.606c0 2.814 1.118 5.512 3.107 7.502A6.466 6.466 0 0 0 43.677 56h5.392a6.36 6.36 0 0 0 5.689-3.516z" data-original="#c53330"></path><path fill="#dd4946" d="M55.174 42.936A8.633 8.633 0 0 1 55 37a4 4 0 0 0-4 4v2l-1.213-1.213A6.102 6.102 0 0 1 48 37.472 7.237 7.237 0 0 0 44 31c0 2.617-.711 5.186-2.058 7.43A6.614 6.614 0 0 0 41 41.831V45l-2.423-4.038A11.894 11.894 0 0 0 38 44.606c0 2.814 1.118 5.512 3.107 7.502A6.466 6.466 0 0 0 45.677 54h5.392a6.353 6.353 0 0 0 3.362-.963c.114-.18.23-.359.327-.553A11.763 11.763 0 0 0 56 47.223c0-1.469-.28-2.924-.826-4.287z" data-original="#dd4946"></path><path fill="#e7b532" d="m51 50-3 1a7.242 7.242 0 0 0-2.121-5.121L45 45a4.828 4.828 0 0 1-1.414 3.414A5.414 5.414 0 0 0 42 52.243c0 1.156.269 2.296.786 3.329l.194.388c.23.025.463.04.697.04h5.392c.046 0 .091-.009.137-.01l.251-.418A10.837 10.837 0 0 0 51 50z" data-original="#e7b532"></path><path fill="#f9cb66" d="M50.218 54c.505-1.27.782-2.623.782-4l-3 1a7.242 7.242 0 0 0-2.121-5.121L45 45a4.828 4.828 0 0 1-1.414 3.414A5.414 5.414 0 0 0 42 52.243c0 .211.019.421.037.631A6.456 6.456 0 0 0 45.677 54z" data-original="#f9cb66"></path><path fill="#a12320" d="M61 53.75a3.75 3.75 0 0 0-6-3l-2.337 1.753a17.487 17.487 0 0 1-16.632 2.384L31 53c0 1.874.937 3.625 2.496 4.664A25.811 25.811 0 0 0 47.815 62h.833c3.481 0 6.875-1.088 9.708-3.111A6.315 6.315 0 0 0 61 53.75z" data-original="#a12320"></path><path fill="#c53330" d="M57.25 50a3.75 3.75 0 0 0-2.25.75l-2.337 1.753a17.487 17.487 0 0 1-16.632 2.384l-3.379-1.267a5.597 5.597 0 0 0 1.845 2.045A25.813 25.813 0 0 0 48.815 60h.833c3.481 0 6.875-1.088 9.708-3.111a6.267 6.267 0 0 0 1.379-1.365c.167-.57.265-1.165.265-1.774A3.75 3.75 0 0 0 57.25 50z" data-original="#c53330"></path><path fill="#c99728" d="M28.052 7.247A6.897 6.897 0 0 1 28 6.408V4.246A2.247 2.247 0 0 0 25.754 2c-1.048 0-1.978.67-2.309 1.664a8.674 8.674 0 0 0-.444 2.876" data-original="#c99728"></path><path fill="#f9cb66" d="M4.996 31c1.959-4.698 6.596-8 12.004-8s10.045 3.302 12.004 8" data-original="#f9cb66"></path><path fill="#ffd992" d="M9.516 31c1.615-2.412 4.364-4 7.484-4s5.87 1.588 7.484 4" data-original="#ffd992"></path><path fill="#777777" d="M9 7.138a2.14 2.14 0 0 0 1.842 2.119l47.306 6.624c.567.079 1.14.119 1.713.119a2.14 2.14 0 0 0 .296-4.258L12.853 5.119A12.45 12.45 0 0 0 11.138 5 2.138 2.138 0 0 0 9 7.138z" data-original="#777777"></path><path fill="#959595" d="M60.157 11.742 12.853 5.119c-.28-.039-.561-.068-.843-.088-.002.036-.01.071-.01.107a2.14 2.14 0 0 0 1.842 2.119l47.306 6.624c.279.039.56.068.841.088.002-.037.011-.071.011-.108a2.14 2.14 0 0 0-1.843-2.119z" data-original="#959595"></path><path d="M59.86 17A3.143 3.143 0 0 0 63 13.861a3.152 3.152 0 0 0-2.704-3.109L40.639 8H57c1.654 0 3-1.346 3-3s-1.346-3-3-3H28.088a3.231 3.231 0 0 0-2.334-1 3.43 3.43 0 0 0-2.374.956A4.114 4.114 0 0 0 20.754 1a3.43 3.43 0 0 0-2.374.956A4.114 4.114 0 0 0 15.754 1c-1.48 0-2.789.943-3.257 2.348-.078.232-.142.47-.202.709A13.175 13.175 0 0 0 11.139 4 3.142 3.142 0 0 0 8 7.137a3.15 3.15 0 0 0 2.703 3.11l2.475.347.339.678c.314.631.481 1.336.481 2.042a4.548 4.548 0 0 1-.767 2.535A7.314 7.314 0 0 0 12 19.918c0 .975.147 1.93.428 2.853A13.954 13.954 0 0 0 4.357 30H2a1 1 0 0 0-1 1c0 11.355 7.05 21.089 17 25.072V59c0 2.206 1.794 4 4 4h20c.552 0 1.097-.121 1.6-.34 1.386.22 2.794.34 4.215.34h.833c3.711 0 7.269-1.14 10.289-3.297A7.333 7.333 0 0 0 62 53.75c0-.843-.239-1.623-.625-2.31A8.23 8.23 0 0 0 63 46.528V45h-2v1.528a6.21 6.21 0 0 1-.999 3.364A4.715 4.715 0 0 0 57.25 49c-.128 0-.254.021-.381.031.05-.348.084-.697.105-1.048A27.029 27.029 0 0 0 63 31a1 1 0 0 0-1-1h-2.357A13.96 13.96 0 0 0 47 22c-1.569 0-3.088.267-4.517.753C39.821 19.734 36.05 18 32 18c-.933 0-1.847.108-2.741.285a5.28 5.28 0 0 1 .638-1.326A6.539 6.539 0 0 0 31 13.313c0-.076-.012-.15-.014-.226l27.025 3.784c.611.086 1.234.129 1.849.129zM57 4a1.001 1.001 0 0 1 0 2H29V4.247c0-.085-.019-.164-.025-.247zM25.754 3C26.441 3 27 3.559 27 4.247v1.844l-2.941-.412a7.645 7.645 0 0 1 .336-1.699A1.43 1.43 0 0 1 25.754 3zm-5 0c.636 0 1.22.298 1.618.779a9.617 9.617 0 0 0-.313 1.62l-2.924-.409c.065-.342.148-.68.259-1.01.196-.586.742-.98 1.36-.98zm-5 0c.641 0 1.229.303 1.627.79a9.455 9.455 0 0 0-.221.923l-2.86-.4c.031-.111.058-.223.094-.332A1.432 1.432 0 0 1 15.754 3zM10 7.139A1.14 1.14 0 0 1 11.139 6c.524 0 1.055.037 1.576.11l47.304 6.623c.559.078.981.563.981 1.128 0 .628-.512 1.139-1.14 1.139-.523 0-1.054-.037-1.574-.109L10.98 8.267A1.143 1.143 0 0 1 10 7.139zm13.999 6.175a4.548 4.548 0 0 1-.767 2.535A7.307 7.307 0 0 0 22 19.918a9.8 9.8 0 0 0 .241 2.054c-.253.246-.488.513-.724.78a14.017 14.017 0 0 0-2.17-.55A7.769 7.769 0 0 1 19 19.918c0-1.058.31-2.081.896-2.96a6.539 6.539 0 0 0 1.103-3.646 6.57 6.57 0 0 0-.22-1.655l3.03.424c.112.402.19.811.19 1.233zM14 19.918c0-1.058.31-2.081.896-2.96a6.539 6.539 0 0 0 1.103-3.646c0-.815-.162-1.628-.458-2.388l3.008.421a4.548 4.548 0 0 1-.317 4.503A7.313 7.313 0 0 0 17 19.918c0 .707.084 1.405.234 2.09-.078-.001-.155-.008-.234-.008-.899 0-1.781.094-2.641.258a7.758 7.758 0 0 1-.359-2.34zM17 24c4.338 0 8.264 2.314 10.389 6h-2.412c-1.887-2.506-4.82-4-7.977-4s-6.09 1.494-7.977 4H6.611c2.125-3.686 6.051-6 10.389-6zm12.643 6c-.138-.29-.284-.573-.44-.85A4.014 4.014 0 0 1 32 28c1.067 0 2.045.431 2.788 1.165-.152.272-.296.55-.431.835zm6.268-2.541A6.029 6.029 0 0 0 32 26a6.028 6.028 0 0 0-3.913 1.457 13.99 13.99 0 0 0-1.328-1.493C28.207 24.71 30.067 24 32 24s3.793.71 5.241 1.965c-.477.463-.921.962-1.33 1.494zM22.285 30h-10.57a7.983 7.983 0 0 1 10.57 0zM3.02 32h39.94a13.438 13.438 0 0 1-1.875 5.915 7.591 7.591 0 0 0-1.073 3.494l-1.154-1.924a1 1 0 0 0-.834-.485c-.345-.026-.666.16-.855.445A12.866 12.866 0 0 0 35 46.605c0 2.947 1.103 5.719 3.093 7.87a15.633 15.633 0 0 1-1.711-.526l-5.031-1.887A1.002 1.002 0 0 0 30 53c0 1.062.259 2.085.726 3H28C14.55 56 3.547 45.323 3.02 32zm38.695-2a7.983 7.983 0 0 1 10.57 0zM43 52.243c0-1.179.459-2.288 1.293-3.122a5.807 5.807 0 0 0 1.326-2.039A6.196 6.196 0 0 1 47 51a.998.998 0 0 0 1.316.949l1.581-.527a9.778 9.778 0 0 1-.488 1.89 16.88 16.88 0 0 1-5.824 1.59A6.468 6.468 0 0 1 43 52.243zM22 61c-1.103 0-2-.897-2-2v-2.21A26.914 26.914 0 0 0 28 58h4.288c.206.177.424.343.653.496A26.87 26.87 0 0 0 37.684 61zm38-7.25c0 1.712-.832 3.33-2.226 4.325A15.614 15.614 0 0 1 48.647 61h-.833a24.732 24.732 0 0 1-13.764-4.168 4.596 4.596 0 0 1-1.786-2.29l3.415 1.281A18.428 18.428 0 0 0 42.171 57c.272 0 .543-.021.815-.033l.035.005.001-.006c3.683-.173 7.291-1.448 10.242-3.663L55.6 51.55a2.752 2.752 0 0 1 4.4 2.2zm-5.6-3.8-2.338 1.752c-.072.054-.148.102-.221.154.098-.611.159-1.229.159-1.856a.998.998 0 0 0-1.316-.949l-1.793.598a8.172 8.172 0 0 0-2.305-4.477l-.879-.879A1.001 1.001 0 0 0 44 45a3.804 3.804 0 0 1-1.121 2.707A6.37 6.37 0 0 0 41 52.243c0 .746.112 1.489.308 2.21a5.466 5.466 0 0 1-1.493-1.052A9.55 9.55 0 0 1 37 46.605c0-1.608.352-3.179 1.025-4.619l2.117 3.528A1.002 1.002 0 0 0 42 45v-3.169c0-1.017.276-2.015.8-2.886a15.441 15.441 0 0 0 2.096-6.148A6.197 6.197 0 0 1 47 37.472c0 1.897.738 3.681 2.08 5.022l1.213 1.212a.997.997 0 0 0 1.09.217A.998.998 0 0 0 52 43v-2c0-1.174.678-2.192 1.662-2.685a9.637 9.637 0 0 0 .584 4.992c.5 1.251.754 2.569.754 3.916 0 .862-.122 1.718-.327 2.556-.09.058-.186.107-.273.171zm2.378-5.076a12.568 12.568 0 0 0-.674-2.309 7.642 7.642 0 0 1-.155-5.249.996.996 0 0 0-.137-.901A1.003 1.003 0 0 0 55 36a5.007 5.007 0 0 0-4.979 4.537A5.063 5.063 0 0 1 49 37.472c0-2.07-.771-3.993-2.093-5.472h14.072a25.027 25.027 0 0 1-4.201 12.874zM57.389 30h-2.412c-1.887-2.506-4.82-4-7.977-4s-6.09 1.494-7.977 4h-2.412c2.125-3.686 6.051-6 10.389-6s8.264 2.314 10.389 6zm-16.844-6.421c-.613.318-1.2.68-1.758 1.085C36.946 22.964 34.523 22 32 22s-4.946.964-6.786 2.664a14.029 14.029 0 0 0-1.758-1.085C25.703 21.292 28.751 20 32 20s6.297 1.292 8.545 3.579zM28.999 13.314a4.548 4.548 0 0 1-.767 2.535 7.327 7.327 0 0 0-1.146 3.048 13.86 13.86 0 0 0-3.046 1.605c-.014-.195-.04-.388-.04-.584 0-1.058.31-2.081.896-2.96a6.539 6.539 0 0 0 1.103-3.646c0-.315-.03-.626-.074-.934l3.042.426c.019.17.032.339.032.51z" fill="#000000" data-original="#000000"></path></g></svg>