<svg xmlns="http://www.w3.org/2000/svg" version="1.1" xmlns:xlink="http://www.w3.org/1999/xlink" xmlns:svgjs="http://svgjs.com/svgjs" width="512" height="512" x="0" y="0" viewBox="0 0 512 512" style="enable-background:new 0 0 512 512" xml:space="preserve"><g><path d="M292.231 159.683a7.5 7.5 0 0 0 5.303 12.803 7.474 7.474 0 0 0 5.303-2.197l8.059-8.059a7.5 7.5 0 0 0 0-10.606 7.5 7.5 0 0 0-10.606 0zM283.653 136.694h11.396a7.5 7.5 0 0 0 0-15h-11.396a7.5 7.5 0 0 0 0 15zM111.823 119.937c15.354 13.313 34.479 19.901 53.576 19.901 21.088-.001 42.141-8.036 58.027-23.922 30.271-30.271 32.037-79.292 4.021-111.602a12.549 12.549 0 0 0-9.006-4.305 12.505 12.505 0 0 0-9.288 3.654l-22.456 22.456a7.5 7.5 0 0 0 0 10.606 7.498 7.498 0 0 0 10.606 0l20.525-20.524c21.078 26.377 19.086 65.012-5.01 89.108-24.097 24.095-62.732 26.087-89.109 5.01l48.593-48.594a7.5 7.5 0 0 0 0-10.606 7.5 7.5 0 0 0-10.606 0l-50.525 50.525c-2.445 2.445-3.776 5.83-3.653 9.287s1.692 6.739 4.305 9.006z" fill="#000000" data-original="#000000"></path><path d="M184.602 78.53a7.5 7.5 0 0 0 0 10.606l7.188 7.188c1.464 1.464 3.384 2.197 5.303 2.197s3.839-.732 5.303-2.197a7.5 7.5 0 0 0 0-10.606l-7.188-7.188a7.5 7.5 0 0 0-10.606 0zM165.168 85.737a7.5 7.5 0 0 0-7.5 7.5v10.165a7.5 7.5 0 0 0 15 0V93.237a7.5 7.5 0 0 0-7.5-7.5zM200.747 67.191h10.166a7.5 7.5 0 0 0 0-15h-10.166a7.5 7.5 0 0 0 0 15z" fill="#000000" data-original="#000000"></path><path d="M442.984 309.982H427.79a44.174 44.174 0 0 0-.999-3.397c24.78-5.75 41.336-20.78 41.336-38.541 0-11.874-7.443-22.734-20.385-30.353 22.415-24.392 25.433-58.696 6.345-77.783-3.699-3.699-7.974-6.558-12.633-8.616-.319-12.006-3.651-23.751-9.697-34.081a7.5 7.5 0 1 0-12.945 7.577 56.172 56.172 0 0 1 7.386 22.721 55.428 55.428 0 0 0-10.764.195c-2.72-22.575-21.981-40.131-45.277-40.131-12.903 0-24.559 5.397-32.863 14.038l-7.566-7.566c10.245-10.58 24.574-17.182 40.429-17.182 9.177 0 18.282 2.254 26.33 6.519a7.5 7.5 0 0 0 7.024-13.254c-10.204-5.407-21.737-8.265-33.354-8.265-19.992 0-38.074 8.28-51.034 21.578l-34.6-34.601a12.464 12.464 0 0 0-9.223-3.65 12.614 12.614 0 0 0-9.031 4.258c-20.856 23.68-27.173 55.509-19.353 84.157-8.543 2.636-16.194 9.279-21.977 19.1-11.208-10.336-24.813-16.921-38.631-18.639-10.099-1.257-19.529.17-27.594 4.023-11.914-8.946-26.689-14.275-42.701-14.275-39.331 0-71.329 31.998-71.329 71.329 0 25.003 12.942 47.025 32.47 59.762-1.888 3.594-3.18 7.469-3.738 11.563-1.123 8.239.826 16.329 5.087 23.514H61.377a17.614 17.614 0 0 0-12.715 5.458c-3.319 3.493-5.012 8.059-4.767 12.855 2.041 39.936 15.438 78.205 38.742 110.671 22.828 31.803 53.95 56.481 90.002 71.367a22.202 22.202 0 0 0 8.516 1.667h142.051c2.971 0 5.836-.561 8.516-1.667 36.052-14.885 67.174-39.563 90.002-71.367 23.304-32.466 36.701-70.736 38.742-110.671.245-4.796-1.448-9.362-4.767-12.855a17.614 17.614 0 0 0-12.715-5.458zm-72.826-187.408c16.225 0 29.535 12.687 30.549 28.66-7.443 2.732-14.724 6.886-21.387 12.405l-31.424-31.424c5.586-5.928 13.495-9.641 22.262-9.641zm-2.973 59.533a7.5 7.5 0 0 0 12.841 2.052 64.398 64.398 0 0 1 4.481-4.995c18.645-18.644 45.102-22.523 58.975-8.65 13.874 13.875 9.994 40.33-8.651 58.975a64.186 64.186 0 0 1-4.918 4.419 7.5 7.5 0 0 0 2.059 12.833c13.049 4.965 21.156 13.128 21.156 21.302 0 11.832-16.373 22.749-38.085 25.394a7.5 7.5 0 0 0-5.592 11.189 39.97 39.97 0 0 1 2.59 5.356h-2.906l-47.257-47.257 42.563-42.563a7.5 7.5 0 0 0 0-10.606 7.5 7.5 0 0 0-10.606 0l-42.563 42.563-34.451-34.451a12.884 12.884 0 0 0-9.509-3.75 12.913 12.913 0 0 0-9.256 4.4 89.675 89.675 0 0 0-15.317 24.716c-2.659-7.428-4.016-14.809-3.902-21.595.093-5.538 1.333-15.454 8.593-19.645 2.09-1.207 4.556-1.803 7.282-1.803 4.363 0 9.391 1.528 14.607 4.524a7.5 7.5 0 0 0 11.179-5.587c2.665-21.655 13.577-37.984 25.381-37.984 8.177-.002 16.341 8.108 21.306 21.163zm19.145 126.284a35.986 35.986 0 0 1-2.685 1.591h-34.46a36.316 36.316 0 0 1-8.551-6.346c-12.395-12.395-13.979-31.568-4.755-45.696zm-149.162-37.162c-22.821 0-41.781 16.845-45.102 38.753h-10.793c3.399-27.831 27.161-49.463 55.895-49.463s52.496 21.632 55.895 49.463H282.27c-3.321-21.909-22.281-38.753-45.102-38.753zm29.834 38.753h-59.667c3.126-13.587 15.311-23.753 29.833-23.753s26.708 10.166 29.834 23.753zm24.21-39.607c1.407-14.444 6.922-28.574 16.661-40.442l17.242 17.242c-13.861 18.628-13.49 44.569 1.109 62.807H308.16c-1.445-15.053-7.594-28.745-16.948-39.607zM275.828 81.358l65.035 65.035c-15.505 2.794-28.287 18.441-33.503 40.794-3.07-1.046-6.112-1.727-9.104-2.034a33.27 33.27 0 0 0-6.885.009c-5.852-16.86-16.389-28.636-28.927-31.906-7.865-24.041-3.516-51.331 13.384-71.898zm-118.141 95.539c6.466-6.466 15.974-9.288 26.771-7.946 11.494 1.429 22.931 7.323 32.203 16.596a64.265 64.265 0 0 1 4.482 4.994 7.5 7.5 0 0 0 12.841-2.051c4.965-13.055 13.129-21.165 21.306-21.165 8.913 0 17.312 9.314 22.04 23.197-8.49 6.228-13.261 16.971-13.492 30.664-.175 10.428 2.335 21.806 7.156 32.879a70.891 70.891 0 0 0-33.826-8.547c-.083 0-.165.006-.248.006l-29.587-29.587a7.5 7.5 0 0 0-10.606 0 7.5 7.5 0 0 0 0 10.606l21.536 21.536c-23.4 6.441-42.03 24.515-49.218 47.599-12.665-4.838-21.005-12.811-21.005-21.254 0-8.174 8.106-16.337 21.156-21.302a7.501 7.501 0 0 0 2.059-12.833 63.852 63.852 0 0 1-4.918-4.419c-9.273-9.273-15.167-20.71-16.597-32.204-1.342-10.795 1.48-20.302 7.947-26.769zm-58.67 63.676c-8.202-5.498-13.623-14.835-13.623-25.43 0-16.883 13.736-30.619 30.619-30.619 7.141 0 13.706 2.47 18.918 6.584a51.005 51.005 0 0 0-.496 5.751c-7.695.175-15.025 2.489-21.166 7.157-10.703 8.135-15.636 21.835-14.252 36.557zm14.895 26.258a7.501 7.501 0 0 0 5.267-10.949c-8.332-15.406-7-32.196 3.166-39.923 3.876-2.947 8.594-4.292 13.627-4.217 2.676 11.609 8.71 22.83 17.451 32.333-12.941 7.618-20.383 18.479-20.383 30.352 0 15.251 12.216 28.479 31.356 35.556H97.615c-6.725-5.948-10.405-13.648-9.337-21.488 1.447-10.617 11.509-19.12 25.634-21.664zm-54.228-51.688c0-31.06 25.269-56.329 56.329-56.329a55.963 55.963 0 0 1 29.956 8.658 41.919 41.919 0 0 0-6.232 8.739 45.286 45.286 0 0 0-23.724-6.687c-25.154 0-45.619 20.464-45.619 45.619 0 18.368 10.916 34.229 26.599 41.453-3.835 1.819-7.314 4.032-10.345 6.594-16.161-9.911-26.964-27.74-26.964-48.047zM441.691 357.01H371a7.5 7.5 0 0 0 0 15h66.947a192.672 192.672 0 0 1-28.409 58.208c-21.193 29.525-50.081 52.434-83.541 66.249a7.275 7.275 0 0 1-2.791.532H181.155a7.275 7.275 0 0 1-2.791-.532c-33.46-13.815-62.348-36.724-83.541-66.25a192.672 192.672 0 0 1-28.409-58.208H335a7.5 7.5 0 0 0 0-15H62.67a193.558 193.558 0 0 1-3.794-29.481 2.335 2.335 0 0 1 .66-1.757c.281-.295.893-.79 1.841-.79h381.607c.948 0 1.561.495 1.841.79.325.342.703.924.66 1.757a193.555 193.555 0 0 1-3.794 29.482z" fill="#000000" data-original="#000000"></path><path d="M327.845 74.242c1.091 0 2.196-.144 3.292-.437l49.225-13.189h.001c6.046-1.621 9.985-7.513 9.164-13.705-1.585-11.954-6.938-22.787-15.478-31.327S354.677 1.692 342.723.107c-6.187-.815-12.083 3.118-13.706 9.166l-13.189 49.224c-1.169 4.365.04 8.878 3.235 12.074 2.394 2.393 5.527 3.671 8.782 3.671zm15.08-58.917c7.795 1.47 14.852 5.2 20.518 10.865 5.666 5.666 9.395 12.722 10.865 20.518l-42.87 11.487z" fill="#000000" data-original="#000000"></path></g></svg>