<svg xmlns="http://www.w3.org/2000/svg" version="1.1" xmlns:xlink="http://www.w3.org/1999/xlink" xmlns:svgjs="http://svgjs.com/svgjs" width="512" height="512" x="0" y="0" viewBox="0 0 512 512" style="enable-background:new 0 0 512 512" xml:space="preserve"><g><g fill="#fcc862"><path d="m242.635 68.517-4.223 24.334-28.873 165.323c-1.372-.422-2.745-.844-4.117-1.372-11.401-4.011-21.853-9.448-31.143-16.046-1.267-.897-2.534-1.795-3.748-2.745l3.114-17.736L201.41 61.286c1.267-7.232 8.182-12.088 15.413-10.821l14.938 2.586c7.284 1.267 12.141 8.182 10.874 15.466z" fill="#fcc862" data-original="#fcc862"></path><path d="m262.957 108.792-5.067 48.668-11.243 107.417c-12.985-.633-25.495-2.903-37.108-6.704-1.372-.422-2.745-.844-4.117-1.372l15.888-152.337c.792-7.337 7.337-12.668 14.674-11.877l2.428.264 12.669 1.32a13.003 13.003 0 0 1 7.918 3.748c2.797 2.744 4.381 6.703 3.958 10.873z" fill="#fcc862" data-original="#fcc862"></path><path d="m302.229 22.753-1.32 69.095-3.114 166.642c-2.164.686-4.328 1.32-6.545 1.901-11.19 2.903-23.067 4.539-35.419 4.645l2.059-107.576 1.109-59.542 1.425-75.958c.158-7.39 6.229-13.249 13.565-13.091l15.202.264c7.337.159 13.196 6.23 13.038 13.62zM126.666 174.14c-4.223-3.378-9.554-5.384-15.308-5.384h-22.38c-2.111 0-4.17.317-6.07.898L62.902 75.801c-1.531-7.179 3.062-14.305 10.24-15.835l14.833-3.167c7.232-1.531 14.305 3.061 15.835 10.293zM174.279 240.754c-1.267-.897-2.534-1.795-3.748-2.745-17.313-13.302-29.824-30.721-35.102-50.357-.95-3.642-2.639-6.915-4.909-9.66l-2.217-74.902c-.211-7.337 5.595-13.513 12.932-13.724l15.202-.422c7.337-.211 13.513 5.542 13.724 12.932l3.484 118.397zM395.342 45.503l-16.68 121.142-1.689 12.246a25.048 25.048 0 0 0-4.223 8.762c-2.112 7.918-5.384 15.466-9.712 22.486-7.179 11.824-17.208 22.275-29.349 30.774a95.437 95.437 0 0 1-8.234 5.331l10.293-74.849 18.105-131.593c1.003-7.284 7.76-12.404 15.044-11.401l15.044 2.111c7.284 1.003 12.404 7.707 11.401 14.991z" fill="#fcc862" data-original="#fcc862"></path><path d="m337.753 103.091-2.006 68.304-2.059 69.518a95.437 95.437 0 0 1-8.234 5.331c-8.445 5.015-17.736 9.132-27.659 12.246-2.164.686-4.328 1.32-6.545 1.901l4.698-158.513c.106-4.117 2.059-7.654 4.962-10.029 2.428-1.9 5.437-3.008 8.762-2.903l15.149.422c7.39.21 13.144 6.386 12.932 13.723zM448.602 95.49l-26.34 73.477a19.151 19.151 0 0 0-3.009-.211H396.82c-8.076 0-15.255 3.906-19.847 10.135a25.048 25.048 0 0 0-4.223 8.762c-2.112 7.918-5.384 15.466-9.712 22.486l15.624-43.495 30.563-85.301c2.481-6.915 10.082-10.557 17.049-8.023l14.252 5.12c6.968 2.482 10.557 10.083 8.076 17.05z" fill="#fcc862" data-original="#fcc862"></path></g><path fill="#ff716f" d="M440.156 187.072c-20.586 113.171-46.24 253.368-51.307 281.08l-.897 4.856a20.995 20.995 0 0 1-10.187 14.41c-8.023 4.645-14.252 8.234-22.328 12.932-5.173 2.956-11.402 3.537-17.103 1.795-56.163-17.419-112.326-17.419-168.49 0-5.701 1.742-11.877 1.161-17.049-1.795-2.006-1.161-3.906-2.27-5.754-3.273a22.646 22.646 0 0 1-1.425-4.645L93.57 213.148c-2.375-12.985 7.548-24.968 20.797-24.968h21.22c.053.211.106.37.211.581 6.704 24.017 24.387 44.603 48.351 58.274 19.847 11.402 44.022 18.052 69.94 18.052 57.8 0 106.784-32.991 118.661-77.435 2.956-11.032 12.669-18.897 24.07-18.897h22.434c10.873.001 19.583 8.13 20.902 18.317z" data-original="#ff716f"></path><path d="M419.253 168.756h-21.772c-11.438 0-21.859 7.478-24.647 18.572-.408 1.623-1.002 3.184-1.524 4.77v38.697c0 127.766-103.574 231.34-231.34 231.34l5.646 30.299a22.646 22.646 0 0 0 1.425 4.645c1.848 1.003 3.748 2.112 5.754 3.273 5.173 2.956 11.349 3.537 17.049 1.795 56.163-17.419 112.327-17.419 168.49 0 5.701 1.742 11.929 1.161 17.103-1.795 8.081-4.701 14.312-8.292 22.342-12.941a21.1 21.1 0 0 0 10.173-14.402l.897-4.856c5.067-27.712 30.721-167.909 51.307-281.08-1.319-10.188-10.029-18.317-20.903-18.317z" opacity=".12" fill="#000000" data-original="#000000"></path><path fill="#ff716f" d="m130.52 177.993.475 16.575-4.328-20.428a26.629 26.629 0 0 1 3.853 3.853z" data-original="#ff716f"></path><path fill="#efefef" d="M329.906 341.307v71.588c0 5.476-4.439 9.915-9.915 9.915H188.16c-5.476 0-9.915-4.439-9.915-9.915v-71.588c0-5.476 4.439-9.915 9.915-9.915h131.831c5.476 0 9.915 4.439 9.915 9.915z" data-original="#efefef"></path><path d="M329.889 341.31v71.576a9.912 9.912 0 0 1-9.924 9.924H188.161a9.912 9.912 0 0 1-9.924-9.924v-7.654h52.574c42.439 0 77.277-32.41 81.13-73.846h8.023a9.913 9.913 0 0 1 9.925 9.924z" opacity=".12" fill="#000000" data-original="#000000"></path><g fill="#59095b"><path d="m443.201 70.99-14.222-5.111c-11.054-4.034-23.236 1.713-27.207 12.789l-4.876 13.583 6.293-45.672c1.588-11.588-6.562-22.312-18.15-23.908l-15.062-2.113c-11.627-1.601-22.358 6.529-23.97 18.163l-6.723 48.869c-3.828-3.777-8.827-5.984-14.242-6.138l-15.119-.42c-.3-.01-.591.046-.89.049l1.111-58.159c.253-11.712-9.072-21.449-20.815-21.707l-15.171-.26c-11.488-.285-21.395 8.88-21.655 20.856l-1.222 64.421-3.623-.38 2.772-15.978c2.015-11.533-5.658-22.6-17.32-24.624l-14.923-2.585c-11.505-2.003-22.557 5.724-24.578 17.261l-14.344 82.201-1.192-40.476c-.335-11.922-10.318-20.946-21.861-20.622l-15.207.423c-11.707.338-20.959 10.147-20.619 21.877l.124 4.145-8.954-42.02c-2.394-11.29-13.456-18.877-25.238-16.397l-14.825 3.165c-11.454 2.438-18.78 13.755-16.334 25.233l13.408 62.814c.903 4.233 5.066 7.013 9.397 6.09a7.918 7.918 0 0 0 6.088-9.395L70.644 74.15c-.618-2.913 1.25-5.821 4.155-6.441l14.815-3.165a5.428 5.428 0 0 1 6.454 4.199l15.042 70.572c.918 4.286 5.16 7.01 9.392 6.096.854-.182 1.624-.526 2.338-.945 1.479 2.23 4.013 3.687 6.807 3.543a7.915 7.915 0 0 0 7.675-8.152l-1.108-36.991c-.082-2.992 2.268-5.498 5.242-5.583l15.207-.423c2.701-.199 5.497 2.071 5.588 5.25l2.742 93.111c.086 2.98 1.827 5.496 4.298 6.774.521 3.241 3.007 5.953 6.424 6.548 4.35.758 8.416-2.167 9.16-6.438l24.336-139.45c.515-2.933 3.32-4.874 6.263-4.389l14.933 2.588a5.434 5.434 0 0 1 4.428 6.309l-3.067 17.682c-9.451 1.277-17.251 8.83-18.335 18.796L200.921 223.41a7.92 7.92 0 0 0 7.052 8.696c4.251.464 8.236-2.629 8.701-7.052l12.505-119.74c.325-2.998 3.057-5.183 5.943-4.856 9.513 1.059 14.212 1.379 15.856 1.8l-2.484 130.954a7.922 7.922 0 0 0 7.923 8.072c4.299 0 7.825-3.443 7.913-7.763l4.01-211.39c.06-2.846 2.339-5.456 5.51-5.343l15.171.26c2.979.064 5.356 2.546 5.289 5.552l-1.261 66.005c-3.079 3.672-4.896 8.238-5.013 13.038l-3.696 125.099c-.131 4.436 3.42 8.152 7.918 8.152 4.263 0 7.784-3.392 7.907-7.683l3.701-125.135c.073-3.029 2.551-5.286 5.583-5.217l15.145.423c3.034.087 5.332 2.626 5.248 5.577l-2.747 92.255c-.139 4.371 3.299 8.023 7.665 8.16 4.603.093 8.026-3.299 8.16-7.67l.692-23.253 18.087-131.468c.415-3.031 3.257-5.044 6.098-4.642l15.067 2.113c2.959.407 5.041 3.132 4.634 6.067l-12.882 93.482c-.593 4.33 2.433 8.328 6.763 8.923a7.906 7.906 0 0 0 5.802-1.501c3.883.924 7.902-1.152 9.281-4.986l20.217-56.324c.976-2.734 3.982-4.311 6.918-3.245l14.274 5.129c2.862 1.022 4.277 4.104 3.278 6.915l-15.573 43.388a7.922 7.922 0 0 0 4.779 10.127 7.917 7.917 0 0 0 10.129-4.776l15.578-43.408c3.997-11.232-1.941-23.274-12.861-27.155z" fill="#59095b" data-original="#59095b"></path><path d="M419.252 160.838h-22.434c-14.768 0-27.81 10.186-31.717 24.771-11.078 41.465-57.77 71.561-111.013 71.561-56.585 0-97.488-31.008-111.008-71.569-3.912-14.58-16.959-24.764-31.723-24.764H88.98c-18.156 0-31.866 16.492-28.532 34.333l51.991 279.26a28.848 28.848 0 0 0 14.036 19.856c.374.214 21.38 12.351 21.753 12.567.528.172 10.339 7.021 23.959 2.853 54.347-16.854 109.451-16.854 163.829.01 8.094 2.472 16.576 1.375 23.398-2.526l22.294-12.908a28.826 28.826 0 0 0 14.026-19.838L447.778 195.2c3.381-17.581-10.249-34.362-28.526-34.362zm12.974 31.388c-.005.015-.005.031-.01.046l-52.053 279.314c-.691 3.781-3 7.049-6.361 8.98l-22.294 12.91c-3.201 1.83-7.16 2.237-10.83 1.108-57.436-17.816-115.684-17.831-173.149-.01-6.56 2.009-10.837-1.25-11.366-1.425l-21.805-12.596a13.037 13.037 0 0 1-6.346-8.992L76.016 192.267c-1.517-8.113 4.727-15.593 12.964-15.593h22.377c7.732 0 14.335 5.237 16.526 13.379 18.622 55.867 72.256 82.953 126.205 82.953 60.29 0 113.41-35.037 126.313-83.304 2.052-7.673 8.804-13.029 16.418-13.029h22.434c8.415.001 14.47 7.771 12.973 15.553z" fill="#59095b" data-original="#59095b"></path><path d="M319.991 323.474H188.158c-9.83 0-17.83 8-17.83 17.833v71.587c0 9.833 8 17.833 17.83 17.833h131.834c9.83 0 17.83-8 17.83-17.833v-71.587c0-9.833-8-17.833-17.831-17.833zm1.995 89.42a2 2 0 0 1-1.995 1.997H188.158a2 2 0 0 1-1.995-1.997v-71.587a2 2 0 0 1 1.995-1.997h131.834a2 2 0 0 1 1.995 1.997v71.587z" fill="#59095b" data-original="#59095b"></path></g></g></svg>