<svg xmlns="http://www.w3.org/2000/svg" version="1.1" xmlns:xlink="http://www.w3.org/1999/xlink" xmlns:svgjs="http://svgjs.com/svgjs" width="512" height="512" x="0" y="0" viewBox="0 0 64 64" style="enable-background:new 0 0 512 512" xml:space="preserve"><g><path fill="#ff826e" d="m37.91 54 .03.24-1.75 7c-.11.45-.51.76-.97.76H12.78c-.46 0-.86-.31-.97-.76L10 54h24z" data-original="#ff826e"></path><path fill="#e6e9ed" d="M14.31 47 17 54h-7v-6c0-.55.45-1 1-1zM36.95 47l.96 7H34c0-2.5-.59-4.88-1.66-7zM26.59 10.12 32 2h10c.55 0 1 .45 1 1v2c0 .55-.45 1-1 1h-8l-2.73 4.1c-.43-.07-.88-.1-1.33-.1h-1.88c-.5 0-.99.04-1.47.12z" data-original="#e6e9ed"></path><path fill="#ffeaa7" d="M39 18H19a9.136 9.136 0 0 1 9.06-8h1.88c.45 0 .9.03 1.33.1 4 .58 7.22 3.78 7.73 7.9z" data-original="#ffeaa7"></path><path fill="#fcd770" d="M41 19v2c0 .55-.45 1-1 1H18c-.55 0-1-.45-1-1v-2c0-.55.45-1 1-1h22c.55 0 1 .45 1 1z" data-original="#fcd770"></path><path fill="#ffeaa7" d="M39 30v8h-1.13c-1.03 0-1.87.84-1.87 1.87 0 .09.01.17.02.26l.93 6.87h-4.61a15.607 15.607 0 0 0-9.94-8.05l-3.4-.9V22h20z" data-original="#ffeaa7"></path><path fill="#e6e9ed" d="M35 35H23v-8c0-.55.45-1 1-1h10c.55 0 1 .45 1 1zM15 37l-3 4-4.88-4.88A2.996 2.996 0 0 1 2 34c0-1.66 1.34-3 3-3 0-1.66 1.34-3 3-3a2.996 2.996 0 0 1 2.56 4.56z" data-original="#e6e9ed"></path><path fill="#dfb28b" d="M34 54H17l-2.69-7L12 41l3-4 4 1.05 3.4.9c4.42 1.17 7.98 4.17 9.94 8.05 1.07 2.12 1.66 4.5 1.66 7z" data-original="#dfb28b"></path><circle cx="29" cy="32" r="2" fill="#ff826e" data-original="#ff826e"></circle><path fill="#ccd1d9" d="M62 39.87c0 .09-.01.17-.02.26l-2.86 21.01c-.07.49-.49.86-.99.86H39.87c-.5 0-.92-.37-.99-.86l-.94-6.9-.03-.24-.96-7-.93-6.87c-.01-.09-.02-.17-.02-.26 0-1.03.84-1.87 1.87-1.87H60.13c1.03 0 1.87.84 1.87 1.87z" data-original="#ccd1d9"></path><path fill="#fcd770" d="M47 30h4v8h-4zM47 30v8h-4V27c0-.55.45-1 1-1h2c.55 0 1 .45 1 1zM59 31v7h-4v-8h3c.55 0 1 .45 1 1zM39 30h4v8h-4zM55 30v8h-4V25c0-.55.45-1 1-1h2c.55 0 1 .45 1 1zM56 48l-4.33 3.65L53.33 57 49 53.7 44.67 57l1.66-5.35L42 48h5.35L49 43l1.65 5z" data-original="#fcd770"></path><path d="M60.127 37H60v-6c0-1.103-.897-2-2-2h-2v-4c0-1.103-.897-2-2-2h-2c-1.103 0-2 .897-2 2v4h-2v-2c0-1.103-.897-2-2-2h-2c-1.103 0-2 .897-2 2v2h-2v-6c1.103 0 2-.897 2-2v-2c0-1.103-.897-2-2-2h-.159c-.781-3.629-3.487-6.488-6.94-7.549L34.535 7H42c1.103 0 2-.897 2-2V3c0-1.103-.897-2-2-2H31.465l-5.483 8.223c-3.869.814-6.977 3.844-7.823 7.777H18c-1.103 0-2 .897-2 2v2c0 1.103.897 2 2 2v13.756l-2.484-.654-3.75-3.75A4.004 4.004 0 0 0 8 27a4.007 4.007 0 0 0-3.898 3.102A4.007 4.007 0 0 0 1 34a4.004 4.004 0 0 0 6.032 3.446l4.11 4.11L12.851 46H11c-1.103 0-2 .897-2 2v6l1.841 7.484A1.995 1.995 0 0 0 12.781 63h22.438c.92 0 1.718-.623 1.94-1.516l.492-1.969.239 1.754c.135.986.986 1.73 1.982 1.73h18.254c.996 0 1.848-.744 1.982-1.73l2.863-21.005A2.873 2.873 0 0 0 60.127 37zM58 31v6h-2v-6zm-4-6v12h-2V25zm-4 6v6h-2v-6zm-4-4v10h-2V27zm-4 4v6h-2v-6zM32.535 3H42v2h-8.535l-2.693 4.039A10.016 10.016 0 0 0 29.938 9h-1.403zm-4.472 8h1.875c3.704 0 6.89 2.512 7.84 6H20.223c.949-3.488 4.135-6 7.84-6zM18 19h22l.002 2H18zm2 4h18v14h-.127a2.876 2.876 0 0 0-2.847 3.261L35.809 46h-2.877a16.563 16.563 0 0 0-10.281-8.021L20 37.282zm-2.313 30-4.555-11.843 2.264-3.019 6.744 1.775A14.574 14.574 0 0 1 32.958 53zm17.271 0a16.469 16.469 0 0 0-1.098-5h2.222l.682 5zM6.413 35.413A1.986 1.986 0 0 1 5 36c-1.103 0-2-.897-2-2s.897-2 2-2h1v-1c0-1.103.897-2 2-2s2 .897 2 2c0 .371-.1.728-.289 1.03l-.421.675 4.39 4.389-1.788 2.384-4.772-4.772zM13.62 48l1.923 5H11v-5zm21.599 13H12.78l-1.5-6h25.44zm25.772-21.009L58.127 61H39.873l-2.865-21.013a.874.874 0 0 1 .865-.987h22.254a.874.874 0 0 1 .864.991z" fill="#000000" data-original="#000000"></path><path d="M49 39.813 46.625 47h-7.359l5.91 4.989-2.381 7.704L49 54.954l6.205 4.739-2.381-7.704L58.734 47h-7.359zm1.523 11.502.924 2.991L49 52.437l-2.447 1.87.924-2.991L44.734 49h3.336l.93-2.813.93 2.813h3.336zM24 27h10v8h2v-8c0-1.103-.897-2-2-2H24c-1.103 0-2 .897-2 2v8h2z" fill="#000000" data-original="#000000"></path><path d="M29 29c-1.654 0-3 1.346-3 3s1.346 3 3 3 3-1.346 3-3-1.346-3-3-3zm0 4a1 1 0 1 1 0-2 1 1 0 0 1 0 2z" fill="#000000" data-original="#000000"></path></g></svg>