<?xml version="1.0" encoding="UTF-8"?>
<svg xmlns="http://www.w3.org/2000/svg" version="1.1" xmlns:xlink="http://www.w3.org/1999/xlink" xmlns:svgjs="http://svgjs.com/svgjs" width="512" height="512" x="0" y="0" viewBox="0 0 682.667 682.667" style="enable-background:new 0 0 512 512" xml:space="preserve"><g><defs><clipPath id="a" clipPathUnits="userSpaceOnUse"><path d="M0 512h512V0H0Z" fill="#000000" data-original="#000000"></path></clipPath></defs><g clip-path="url(#a)" transform="matrix(1.33333 0 0 -1.33333 0 682.667)"><path d="M0 0h-430.019c-18.536 0-33.563 15.026-33.563 33.563v6.608c0 18.536 15.027 33.563 33.563 33.563H0c18.537 0 33.563-15.027 33.563-33.563v-6.608C33.563 15.026 18.537 0 0 0" style="fill-opacity:1;fill-rule:nonzero;stroke:none" transform="translate(471.01 115.035)" fill="#e94444" data-original="#e94444"></path><path d="M0 0h-430.019c-18.536 0-33.563 15.026-33.563 33.563v6.608c0 18.536 15.027 33.563 33.563 33.563H0c18.537 0 33.563-15.027 33.563-33.563v-6.608C33.563 15.026 18.537 0 0 0" style="fill-opacity:1;fill-rule:nonzero;stroke:none" transform="translate(471.01 246.837)" fill="#9e5528" data-original="#9e5528"></path><path d="M0 0v-6.61c0-18.54-15.02-33.57-33.56-33.57H-53.2c18.54 0 33.56 15.03 33.56 33.57V0c0 18.53-15.02 33.56-33.56 33.56h19.64C-15.02 33.56 0 18.53 0 0" style="fill-opacity:1;fill-rule:nonzero;stroke:none" transform="translate(504.57 155.21)" fill="#d83131" data-original="#d83131"></path><path d="M0 0v-6.61c0-18.54-15.02-33.56-33.56-33.56H-53.2c18.54 0 33.56 15.02 33.56 33.56V0c0 18.53-15.02 33.56-33.56 33.56h19.64C-15.02 33.56 0 18.53 0 0" style="fill-opacity:1;fill-rule:nonzero;stroke:none" transform="translate(504.57 287.01)" fill="#904d24" data-original="#904d24"></path><path d="M0 0c-167.632-2.426-223.954-93.358-242.547-146.193-6.371-18.104 7.213-37.051 26.405-37.051H216.14c19.335 0 32.744 19.138 26.296 37.366C223.73-92.998 167.3-2.421 0 0" style="fill-opacity:1;fill-rule:nonzero;stroke:none" transform="translate(256 503.815)" fill="#fe9738" data-original="#fe9738"></path><path d="M0 0h-2.39C4.12 7.26 6.8 17.83 3.17 28.11-15.54 81-71.97 171.57-239.27 173.99c-43.28-.62-79.15-7.15-108.85-17.4 33.68 15.47 76.8 25.86 131.98 26.66 167.3-2.43 223.73-93 242.44-145.88C32.74 19.14 19.33 0 0 0" style="fill-opacity:1;fill-rule:nonzero;stroke:none" transform="translate(472.14 320.57)" fill="#fe860a" data-original="#fe860a"></path><path d="M0 0h-430.019s-14.829-71.608 69.559-99.778c14.456-4.826 29.548-7.073 44.682-7.073h201.538c15.134 0 30.225 2.247 44.681 7.073C14.83-71.608 0 0 0 0" style="fill-opacity:1;fill-rule:nonzero;stroke:none" transform="translate(471.01 115.035)" fill="#fe9738" data-original="#fe9738"></path><path d="M0 0c-14.46-4.83-29.55-7.08-44.68-7.08h-22.78c15.14 0 30.23 2.25 44.69 7.08 84.38 28.17 69.55 99.77 69.55 99.77h22.78S84.39 28.17 0 0" style="fill-opacity:1;fill-rule:nonzero;stroke:none" transform="translate(401.45 15.26)" fill="#fe860a" data-original="#fe860a"></path><path d="M0 0c-73.993-31.031-105.115-86.117-118.031-122.82-6.371-18.104 7.213-37.051 26.405-37.051h432.282c19.335 0 32.744 19.138 26.296 37.366-18.706 52.881-75.136 143.457-242.436 145.879-35.232-.51-65.548-4.93-91.629-12.084" style="stroke-width:15;stroke-linecap:round;stroke-linejoin:round;stroke-miterlimit:10;stroke-dasharray:none;stroke-opacity:1" transform="translate(131.484 480.442)" fill="none" stroke="#000000" stroke-width="15" stroke-linecap="round" stroke-linejoin="round" stroke-miterlimit="10" stroke-dasharray="none" stroke-opacity="" data-original="#000000"></path><path d="M0 0h-430.019c-18.536 0-33.563 15.026-33.563 33.563v6.608c0 18.536 15.027 33.563 33.563 33.563H0c18.537 0 33.563-15.027 33.563-33.563v-6.608C33.563 15.026 18.537 0 0 0Z" style="stroke-width:15;stroke-linecap:round;stroke-linejoin:round;stroke-miterlimit:10;stroke-dasharray:none;stroke-opacity:1" transform="translate(471.01 246.837)" fill="none" stroke="#000000" stroke-width="15" stroke-linecap="round" stroke-linejoin="round" stroke-miterlimit="10" stroke-dasharray="none" stroke-opacity="" data-original="#000000"></path><path d="M0 0h-430.019c-18.536 0-33.563 15.026-33.563 33.563v6.608c0 18.536 15.027 33.563 33.563 33.563H0c18.537 0 33.563-15.027 33.563-33.563v-6.608C33.563 15.026 18.537 0 0 0Z" style="stroke-width:15;stroke-linecap:round;stroke-linejoin:round;stroke-miterlimit:10;stroke-dasharray:none;stroke-opacity:1" transform="translate(471.01 115.035)" fill="none" stroke="#000000" stroke-width="15" stroke-linecap="round" stroke-linejoin="round" stroke-miterlimit="10" stroke-dasharray="none" stroke-opacity="" data-original="#000000"></path><path d="M0 0c0-16.757-19.471-25.841-32.417-15.201-5.321 4.374-11.606 7.84-21.565 7.84-26.988 0-26.988-21.378-53.976-21.378s-26.988 21.378-53.976 21.378c-26.987 0-26.987-21.378-53.974-21.378s-26.987 21.378-53.974 21.378c-26.988 0-26.988-21.378-53.976-21.378-26.987 0-26.987 21.378-53.974 21.378-9.956 0-16.239-3.464-21.559-7.836-12.946-10.639-32.417-1.557-32.417 15.2v39.658H0Z" style="fill-opacity:1;fill-rule:nonzero;stroke:none" transform="translate(471.796 175.4)" fill="#bbec6c" data-original="#bbec6c"></path><path d="M0 0v-39.66C0-55.34-17.05-64.3-29.84-56.67c5.65 3.3 9.71 9.35 9.71 17.01V0Z" style="fill-opacity:1;fill-rule:nonzero;stroke:none" transform="translate(471.8 215.06)" fill="#a2e62e" data-original="#a2e62e"></path><path d="M0 0v-39.661c0-16.757-19.471-25.841-32.417-15.201-5.321 4.374-11.606 7.84-21.565 7.84-26.988 0-26.988-21.378-53.976-21.378s-26.988 21.378-53.976 21.378c-26.987 0-26.987-21.378-53.974-21.378s-26.987 21.378-53.974 21.378c-26.988 0-26.988-21.378-53.976-21.378-26.987 0-26.987 21.378-53.974 21.378-9.956 0-16.239-3.464-21.559-7.836-12.946-10.64-32.417-1.557-32.417 15.2V0" style="stroke-width:15;stroke-linecap:round;stroke-linejoin:round;stroke-miterlimit:10;stroke-dasharray:none;stroke-opacity:1" transform="translate(471.796 215.062)" fill="none" stroke="#000000" stroke-width="15" stroke-linecap="round" stroke-linejoin="round" stroke-miterlimit="10" stroke-dasharray="none" stroke-opacity="" data-original="#000000"></path><path d="M0 0h-430.019s-14.829-71.608 69.559-99.778c14.456-4.826 29.548-7.073 44.682-7.073h201.538c15.134 0 30.225 2.247 44.681 7.073C14.83-71.608 0 0 0 0Z" style="stroke-width:15;stroke-linecap:round;stroke-linejoin:round;stroke-miterlimit:10;stroke-dasharray:none;stroke-opacity:1" transform="translate(471.01 115.035)" fill="none" stroke="#000000" stroke-width="15" stroke-linecap="round" stroke-linejoin="round" stroke-miterlimit="10" stroke-dasharray="none" stroke-opacity="" data-original="#000000"></path><path d="m0 0 6.506 12.039" style="stroke-width:15;stroke-linecap:round;stroke-linejoin:round;stroke-miterlimit:10;stroke-dasharray:none;stroke-opacity:1" transform="translate(186.813 434.207)" fill="none" stroke="#000000" stroke-width="15" stroke-linecap="round" stroke-linejoin="round" stroke-miterlimit="10" stroke-dasharray="none" stroke-opacity="" data-original="#000000"></path><path d="M0 0v13.684" style="stroke-width:15;stroke-linecap:round;stroke-linejoin:round;stroke-miterlimit:10;stroke-dasharray:none;stroke-opacity:1" transform="translate(255.91 433.384)" fill="none" stroke="#000000" stroke-width="15" stroke-linecap="round" stroke-linejoin="round" stroke-miterlimit="10" stroke-dasharray="none" stroke-opacity="" data-original="#000000"></path><path d="m0 0-6.865 11.837" style="stroke-width:15;stroke-linecap:round;stroke-linejoin:round;stroke-miterlimit:10;stroke-dasharray:none;stroke-opacity:1" transform="translate(325.188 434.308)" fill="none" stroke="#000000" stroke-width="15" stroke-linecap="round" stroke-linejoin="round" stroke-miterlimit="10" stroke-dasharray="none" stroke-opacity="" data-original="#000000"></path><path d="M0 0v-32.071h46.292c9.63 0 17.437-7.807 17.437-17.437v-92.367c0-12.312 9.981-22.294 22.293-22.294 12.313 0 22.294 9.982 22.294 22.294v92.367c0 9.63 7.807 17.437 17.437 17.437h305.839V0Z" style="fill-opacity:1;fill-rule:nonzero;stroke:none" transform="translate(40.204 246.837)" fill="#fee45a" data-original="#fee45a"></path><path d="M471.8 214.77h-20.13v32.07h20.13z" style="fill-opacity:1;fill-rule:nonzero;stroke:none" fill="#fddf30" data-original="#fddf30"></path><path d="M0 0h157.992v32.071H-273.6V0h46.291c9.631 0 17.438-7.807 17.438-17.437v-92.367c0-12.312 9.981-22.294 22.293-22.294 12.313 0 22.294 9.982 22.294 22.294v92.367c0 9.63 7.807 17.437 17.437 17.437h112.678" style="stroke-width:15;stroke-linecap:round;stroke-linejoin:round;stroke-miterlimit:10;stroke-dasharray:none;stroke-opacity:1" transform="translate(313.804 214.766)" fill="none" stroke="#000000" stroke-width="15" stroke-linecap="round" stroke-linejoin="round" stroke-miterlimit="10" stroke-dasharray="none" stroke-opacity="" data-original="#000000"></path></g></g></svg>



