<svg xmlns="http://www.w3.org/2000/svg" version="1.1" xmlns:xlink="http://www.w3.org/1999/xlink" xmlns:svgjs="http://svgjs.com/svgjs" width="512" height="512" x="0" y="0" viewBox="0 0 512 512" style="enable-background:new 0 0 512 512" xml:space="preserve"><g><path d="M103.8 448h-16a8 8 0 0 0 0 16h16a8 8 0 0 0 0-16ZM167.8 448h-32a8 8 0 0 0 0 16h32a8 8 0 0 0 0-16Z" fill="#000000" data-original="#000000"></path><path d="M197.645 53.669a8 8 0 0 0 .012-11.326l-24-24a8 8 0 0 0-11.3-.01L114.976 65.54A38.254 38.254 0 0 0 103.8 92.458v46.869a88.206 88.206 0 0 0-63.744 77.919A14.01 14.01 0 0 0 31.8 230v26a8 8 0 0 0 8 8h.532l15.484 224.55A8 8 0 0 0 63.8 496h128a8 8 0 0 0 7.981-7.45l13.279-192.569v-.046l2.2-31.935h.532a8 8 0 0 0 8-8v-26a14.009 14.009 0 0 0-8.257-12.754 88.208 88.208 0 0 0-63.735-77.919v-40ZM167.99 35.3l12.685 12.685-34.632 34.49-8.374-16.961Zm-42.262 42.17 5.2 10.53h-10.659a22.155 22.155 0 0 1 5.459-10.53ZM103.8 156.129V216H56.239a72.185 72.185 0 0 1 47.561-59.871ZM207.8 248h-160v-16h160Zm-88-32v-63.54a69.8 69.8 0 0 1 16 0V216Zm72.586 147.229L66.159 405.972l-3.713-53.851 133.83-45.321ZM71.265 480 67.3 422.478l123.893-41.953L184.331 480Zm126.2-190.493L61.307 335.615 56.368 264h142.86ZM199.356 216H151.8v-59.871A72.186 72.186 0 0 1 199.356 216ZM127.8 136c-2.7 0-5.364.129-8 .367V104h16v32.368a88.633 88.633 0 0 0-8-.368ZM384 16h-32a8 8 0 0 0-8 8v88h-56a8 8 0 0 0-7.761 6.06L273.754 144H264a8 8 0 0 0-8 8v32a8 8 0 0 0 8 8h2.426L270 241.092v.014l18.02 247.475A8 8 0 0 0 296 496h152a8 8 0 0 0 7.986-7.531l17.43-296.6A8 8 0 0 0 480 184v-32a8 8 0 0 0-8-8h-1.754l-6.485-25.94A8 8 0 0 0 456 112h-64V24a8 8 0 0 0-8-8Zm-24 16h16v80h-16Zm-88 128h192v16H272Zm175.453 200.93-146.748 81.527-2.638-36.232 151.676-84.264ZM449.127 192l-160.179 88.989-2.639-36.232L381.272 192Zm1.728 111.04-154.069 85.594-2.639-36.234 159-88.332Zm3.4-57.889-161.39 89.661-2.638-36.232 166.318-92.4ZM348.328 192l-63.3 35.166-2.56-35.166Zm-46.342 268.048 144.355-80.2-2.29 38.97L333.927 480h-30.489ZM366.873 480l76.066-42.259L440.456 480Zm86.881-336H290.246l4-16h155.508Z" fill="#000000" data-original="#000000"></path></g></svg>