<svg xmlns="http://www.w3.org/2000/svg" version="1.1" xmlns:xlink="http://www.w3.org/1999/xlink" xmlns:svgjs="http://svgjs.com/svgjs" width="512" height="512" x="0" y="0" viewBox="0 0 512 512" style="enable-background:new 0 0 512 512" xml:space="preserve"><g><g data-name="filled outline"><path fill="#ea2b2d" d="M191.797 488h-128l-16-232h160z" data-original="#ea2b2d"></path><path fill="#f3be5f" d="M205.08 295.38 200 369.1 58.9 416.88l-4.86-70.36z" data-original="#f3be5f"></path><path fill="#eae9e4" d="M448 488H296l-22.136-304h192z" data-original="#eae9e4"></path><g fill="#6699ce"><path d="m455.18 365.79-3.4 57.89L336 488h-40l-2.36-32.46v-.01zM461.98 250.01l-3.4 57.89-168.86 93.81-3.92-53.82zM465.86 184l-.48 8.12-183.5 101.95-3.92-53.82L379.2 184z" fill="#6699ce" data-original="#6699ce"></path></g><path fill="#dcdbd6" d="M45.8 224h164a6 6 0 0 1 6 6v26h-176v-26a6 6 0 0 1 6-6z" data-original="#dcdbd6"></path><path fill="#eae9e4" d="M127.8 144a80 80 0 0 1 80 80h-160a80 80 0 0 1 80-80z" data-original="#eae9e4"></path><path fill="#eae9e4" d="M143.8 145.61V224h-32v-78.4a80.553 80.553 0 0 1 32 .01z" data-original="#eae9e4"></path><path fill="#cb2527" d="M103.8 464h-16a8 8 0 0 1 0-16h16a8 8 0 0 1 0 16zM167.8 464h-32a8 8 0 0 1 0-16h32a8 8 0 0 1 0 16z" data-original="#cb2527"></path><path fill="#915628" d="M143.8 224h-32V92.458a30 30 0 0 1 8.826-21.251L168 24l24 24-48.2 48z" data-original="#915628"></path><path fill="#915628" d="M143.8 96h-32v-3.54a29.983 29.983 0 0 1 8.82-21.25l7.12-7.1h.01L128 64z" data-original="#915628"></path><path fill="#915628" d="M143.8 96v128h-32V92.46a29.983 29.983 0 0 1 8.82-21.25l7.12-7.1.26-.11z" data-original="#915628"></path><path fill="#7a4922" d="M143.8 145.61V224h-32v-78.4a80.553 80.553 0 0 1 32 .01z" data-original="#7a4922"></path><path fill="#cdccc8" d="M264 152h208v32H264zM464 152H280l8-32h168z" data-original="#cdccc8"></path><path fill="#bbbab6" d="M464 152H280l2-8h180z" data-original="#bbbab6"></path><path fill="#eae9e4" d="M352 24h32v96h-32z" data-original="#eae9e4"></path><path fill="#dcdbd6" d="M352 112h32v8h-32z" data-original="#dcdbd6"></path><path fill="#a3612d" d="M143.8 96h-32v-3.54a29.983 29.983 0 0 1 8.82-21.25l7.12-7.1h.01L128 64z" data-original="#a3612d"></path><path d="M103.8 448h-16a8 8 0 0 0 0 16h16a8 8 0 0 0 0-16zM167.8 448h-32a8 8 0 0 0 0 16h32a8 8 0 0 0 0-16z" fill="#000000" data-original="#000000"></path><path d="M197.645 53.669a8 8 0 0 0 .012-11.326l-24-24a8 8 0 0 0-11.3-.01L114.976 65.54A38.254 38.254 0 0 0 103.8 92.458v46.869a88.206 88.206 0 0 0-63.744 77.919A14.01 14.01 0 0 0 31.8 230v26a8 8 0 0 0 8 8h.532l15.484 224.55A8 8 0 0 0 63.8 496h128a8 8 0 0 0 7.981-7.45l13.279-192.569v-.046l2.2-31.935h.532a8 8 0 0 0 8-8v-26a14.009 14.009 0 0 0-8.257-12.754 88.208 88.208 0 0 0-63.735-77.919v-40zM167.99 35.3l12.685 12.685-34.632 34.49-8.374-16.961zm-42.262 42.17 5.2 10.53h-10.659a22.155 22.155 0 0 1 5.459-10.53zM103.8 156.129V216H56.239a72.185 72.185 0 0 1 47.561-59.871zM207.8 248h-160v-16h160zm-88-32v-63.54a69.8 69.8 0 0 1 16 0V216zm72.586 147.229L66.159 405.972l-3.713-53.851 133.83-45.321zM71.265 480 67.3 422.478l123.893-41.953L184.331 480zm126.2-190.493L61.307 335.615 56.368 264h142.86zM199.356 216H151.8v-59.871A72.186 72.186 0 0 1 199.356 216zM127.8 136c-2.7 0-5.364.129-8 .367V104h16v32.368a88.633 88.633 0 0 0-8-.368zM384 16h-32a8 8 0 0 0-8 8v88h-56a8 8 0 0 0-7.761 6.06L273.754 144H264a8 8 0 0 0-8 8v32a8 8 0 0 0 8 8h2.426L270 241.092v.014l18.02 247.475A8 8 0 0 0 296 496h152a8 8 0 0 0 7.986-7.531l17.43-296.6A8 8 0 0 0 480 184v-32a8 8 0 0 0-8-8h-1.754l-6.485-25.94A8 8 0 0 0 456 112h-64V24a8 8 0 0 0-8-8zm-24 16h16v80h-16zm-88 128h192v16H272zm175.453 200.93-146.748 81.527-2.638-36.232 151.676-84.264zM449.127 192l-160.179 88.989-2.639-36.232L381.272 192zm1.728 111.04-154.069 85.594-2.639-36.234 159-88.332zm3.4-57.889-161.39 89.661-2.638-36.232 166.318-92.4zM348.328 192l-63.3 35.166-2.56-35.166zm-46.342 268.048 144.355-80.2-2.29 38.97L333.927 480h-30.489zM366.873 480l76.066-42.259L440.456 480zm86.881-336H290.246l4-16h155.508z" fill="#000000" data-original="#000000"></path></g></g></svg>