<svg xmlns="http://www.w3.org/2000/svg" version="1.1" xmlns:xlink="http://www.w3.org/1999/xlink" xmlns:svgjs="http://svgjs.com/svgjs" width="512" height="512" x="0" y="0" viewBox="0 0 128 128" style="enable-background:new 0 0 512 512" xml:space="preserve"><g><linearGradient id="a"><stop offset=".042" stop-color="#fbc848"></stop><stop offset=".191" stop-color="#fbc348"></stop><stop offset="1" stop-color="#fca845"></stop></linearGradient><linearGradient xlink:href="#a" id="c" x1="126.055" x2="98.809" y1="36.269" y2="45.885" gradientUnits="userSpaceOnUse"></linearGradient><linearGradient xlink:href="#a" id="d" x1="86.482" x2="67.583" y1="43.308" y2=".552" gradientUnits="userSpaceOnUse"></linearGradient><linearGradient xlink:href="#a" id="e" x1="170.641" x2="143.026" y1="28.108" y2="37.855" gradientTransform="matrix(-1 0 0 1 172.579 0)" gradientUnits="userSpaceOnUse"></linearGradient><linearGradient xlink:href="#a" id="f" x1="130.544" x2="111.51" y1="35.333" y2="-7.731" gradientTransform="matrix(-1 0 0 1 172.579 0)" gradientUnits="userSpaceOnUse"></linearGradient><linearGradient xlink:href="#a" id="g" x1="62.75" x2="68.484" y1="116.014" y2="80.569" gradientUnits="userSpaceOnUse"></linearGradient><linearGradient id="h" x1="70.108" x2="71.558" y1="52.172" y2="92.66" gradientUnits="userSpaceOnUse"><stop offset="0" stop-color="#fca845"></stop><stop offset=".809" stop-color="#fbc348"></stop><stop offset=".958" stop-color="#fbc848"></stop></linearGradient><linearGradient id="b"><stop offset="0" stop-color="#eddcc8"></stop><stop offset="1" stop-color="#f6ecd9"></stop></linearGradient><linearGradient xlink:href="#b" id="i" x1="27.785" x2="43.524" y1="82.968" y2="67.978" gradientUnits="userSpaceOnUse"></linearGradient><linearGradient id="j" x1="33.5" x2="33.5" y1="68.862" y2="81.251" gradientUnits="userSpaceOnUse"><stop offset="0" stop-color="#e15c63"></stop><stop offset=".406" stop-color="#de585f"></stop><stop offset=".826" stop-color="#d44b53"></stop><stop offset="1" stop-color="#ce444c"></stop></linearGradient><linearGradient xlink:href="#b" id="k" x1="9" x2="59" y1="85.5" y2="85.5" gradientUnits="userSpaceOnUse"></linearGradient><path fill="url(#c)" d="M119 42s7-.909 7 11c0 10-8.12 16.742-13 19s-16.432 2.128-24 7-13.617-10.289-18-11-9.421-4.994-15-12-10.989-11.122-9-23c0 0 49.889 22.746 72 9z" data-original="url(#c)"></path><path fill="url(#d)" d="M119 41c2.633.651 4.917.324 6 7s-7.361 11.586-12 13-15.865 2.824-23 6-12.715-9.304-17-10-10.278-3.738-16-9-11.413-6.562-10-15 13.354-17.544 28-13 21.572 12.957 28 14 11.232 5.821 16 7z" data-original="url(#d)"></path><path fill="url(#e)" d="M9 34s-7-.909-7 11c0 10 8.059 16.742 13 19s16.336 2.128 24 7 14.562-10.289 19-11 9.351-4.994 15-12 11.009-11.085 8.995-22.963c0 0-50.606 22.709-72.995 8.963z" data-original="url(#e)"></path><path fill="url(#f)" d="M9 33c-2.666.651-4.891.361-5.987 7.037S10.303 51.586 15 53s15.775 2.824 23 6 13.661-9.304 18-10 10.206-3.738 16-9 11.426-6.525 9.995-14.963S68.83 7.456 54 12 31.509 24.957 25 26s-11.172 5.821-16 7z" data-original="url(#f)"></path><path fill="url(#g)" d="M103 61s6.961 1.718 8 11-8.258 17.551-13 20-14.696 2.826-22 8-14.638-10.447-19-11-10.219-4.167-16-11-11.523-10.993-10-23c0 0 50.645 20.626 72 6z" data-original="url(#g)"></path><path fill="url(#h)" d="M103 60c2.629.557 5.679 1.332 7 8s-8.465 12.408-13 14-15.096 1.465-22.034 4.919C68.028 90.372 63.265 78.541 59 78s-11.143-2.924-17-8-12.082-6.47-11-15 13.343-17.025 28-13 21.603 11.189 28 12 11.239 4.992 16 6z" data-original="url(#h)"></path><path fill="url(#i)" d="M59 72c0-3.817-11.216-6-25.015-6S9 68.183 9 72v1c0 12.037 11.186 24.896 24.985 24.896S59 85.037 59 73z" data-original="url(#i)"></path><path fill="url(#j)" d="M17 69c-2.405.511-4 2.324-4 5 0 3.05 2.103 6 5 6h31c2.897 0 5-2.95 5-6 0-2.676-1.595-4.489-4-5v-1c0-3.05-3.103-5-6-5 0 0 .019-.751 0-1-.613-7.841-10.906-4-8-4 1.983 0 1 3-1 4H23c-2.897 0-6 2.95-6 6z" data-original="url(#j)"></path><path fill="url(#k)" d="M9 73c0 12.037 11.186 25 24.985 25S59 85.037 59 73c0 0-11.178 6-25 6S9 73 9 73z" data-original="url(#k)"></path><path fill="#3a322b" d="M125.217 44.633c-1.137-3.284-2.907-3.952-5.15-4.421-.271-.056-.547-.113-.826-.183-1.935-.479-3.959-1.639-6.104-2.867-2.887-1.654-6.16-3.53-9.977-4.149-2.639-.429-5.479-2.268-9.075-4.597-3.216-2.083-7.189-4.643-12.133-6.852-1.444-3.187-4.12-6.146-7.594-8.288-5.979-3.688-13.314-4.48-20.65-2.231-8.345 2.557-14.426 6.304-19.312 9.314-3.826 2.358-6.85 4.221-9.553 4.654-3.859.618-7.106 2.491-9.97 4.144-2.134 1.231-4.148 2.394-6.109 2.872-.27.066-.535.122-.795.177-2.315.487-4.045 1.142-5.171 4.444l-.02-.012C1.598 38.671 1 41.484 1 45c0 10.839 8.886 17.763 13.584 19.909.548.251 1.191.479 1.935.699-.135.317-.248.64-.332.969C10.759 67.792 8 69.615 8 72v1c0 12.224 11.113 25.896 25.985 25.896 8.099 0 15.078-4.049 19.765-9.705 1.086.404 2.137.676 3.124.802 1.212.153 3.213 2.364 5.148 4.503 3.138 3.467 6.863 7.584 10.861 7.584 1.209-.001 2.444-.378 3.694-1.263 4.365-3.093 9.698-4.408 14.404-5.568 2.985-.736 5.564-1.372 7.477-2.359 4.46-2.302 13.619-10.206 13.614-19.466.491-.163.95-.331 1.347-.515C118.117 70.734 127 63.777 127 53c0-3.522-.602-6.334-1.783-8.367zm-32.22-14.538c3.793 2.456 6.789 4.396 9.843 4.893 3.458.561 6.43 2.264 9.303 3.91 2.269 1.3 4.411 2.528 6.617 3.073.305.075.604.138.897.199 2.109.44 3.503.732 4.355 5.99.985 6.074-7.19 10.629-11.305 11.884-1.207.367-2.893.739-4.828 1.141-1.55-1.494-3.302-1.873-4.673-2.164-1.928-.408-3.943-1.406-6.079-2.464-2.903-1.438-6.193-3.066-10.002-3.55-2.688-.341-5.59-1.943-9.263-3.972-2.695-1.488-5.791-3.184-9.497-4.786a51.529 51.529 0 0 0 4.305-3.509c1.34-1.217 2.658-2.205 3.933-3.16 4.062-3.044 7.569-5.673 6.377-12.71a11.924 11.924 0 0 0-.142-.691c3.992 1.931 7.244 4.026 10.159 5.916zM14.003 74.102 14 74c0-2.123 1.169-3.589 3.208-4.021A1 1 0 0 0 18 69v-1c0-2.43 2.57-5 5-5h12c.155 0 .309-.036.447-.105 1.722-.861 2.925-2.919 2.574-4.404a1.99 1.99 0 0 0-.136-.394c.929-.093 2.078-.035 3.056.443 1.249.612 1.924 1.77 2.062 3.538.018.223-.003.891-.003.896A1.002 1.002 0 0 0 44 64c2.415 0 5 1.607 5 4v1a1 1 0 0 0 .792.979C51.831 70.411 53 71.877 53 74c0 .161-.012.323-.025.483C48.462 76.118 41.615 78 34 78c-8.216 0-15.536-2.191-19.997-3.898zm40.977-.386c-.087-2.257-1.185-4.066-3.01-5.05C56.372 69.729 58 71.046 58 72v.384c-.577.282-1.614.765-3.02 1.332zm-4.241-7.362c-.781-2.405-3.223-3.957-5.735-4.288a3.834 3.834 0 0 0-.007-.145c-.304-3.872-2.877-6.058-6.869-5.851-.615.032-3.684.271-3.644 1.811.007.264.137 1.119 1.516 1.119.036 0 .065.002.087.005.044.383-.437 1.439-1.344 1.995h-1.834c-.929-1.598-1.223-3.466-.917-5.874.438-3.455 2.86-6.885 6.646-9.41 5.583-3.724 12.908-4.725 20.098-2.752 7.947 2.184 13.61 5.311 18.161 7.823 3.86 2.132 6.909 3.815 9.978 4.205 3.475.44 6.47 1.924 9.367 3.358 2.251 1.114 4.377 2.167 6.552 2.628 2.347.497 5.006 1.06 6.227 7.216 1.116 5.634-7.493 11.157-12.351 12.862-1.646.577-4.194.924-7.146 1.326-4.714.641-10.581 1.439-15.003 3.641-3.383 1.683-6.126-.877-9.636-4.673-1.868-2.022-3.505-3.773-5.296-4.236A21.69 21.69 0 0 0 60 73v-1c0-2.537-3.121-4.434-9.261-5.646zM8.38 34.162c.28-.06.566-.119.857-.19 2.238-.547 4.374-1.778 6.634-3.083 2.848-1.643 5.791-3.341 9.287-3.901 3.097-.496 6.27-2.451 10.286-4.926 4.789-2.951 10.749-6.624 18.849-9.105 6.779-2.08 13.534-1.359 19.015 2.021 3.355 2.069 5.85 4.948 7.046 7.987l-.026.061.06.027c.274.712.5 1.431.622 2.152.989 5.834-1.634 7.8-5.604 10.776-1.251.937-2.668 1.999-4.077 3.279a48.425 48.425 0 0 1-5.148 4.091 67.883 67.883 0 0 0-6.916-2.315c-7.75-2.131-15.674-1.028-21.736 3.016-4.269 2.847-7.009 6.792-7.521 10.822-.02.161-.03.315-.045.472-2.802-.706-5.634-1.296-8.167-1.817-2.659-.547-4.955-1.02-6.508-1.487-4.114-1.238-12.287-5.763-11.289-11.843.871-5.299 2.267-5.593 4.381-6.037zm7.036 28.929c-4.239-1.938-12.192-8.113-12.397-17.719 2.29 4.296 7.71 7.387 11.693 8.586 1.638.492 3.975.974 6.681 1.53 2.641.543 5.609 1.159 8.506 1.904.057 1.319.317 2.516.784 3.608H23c-2.047 0-4.068 1.168-5.409 2.835-.884-.238-1.604-.483-2.175-.744zm-1.142 6.057c-1.276.965-2.061 2.418-2.227 4.165A43.585 43.585 0 0 1 10 72.384V72c0-.801 1.183-1.887 4.274-2.852zm19.711 27.748c-10.637 0-22.924-9.602-23.914-22.259C13.63 76.278 22.917 80 34 80s20.37-3.722 23.928-5.363c-.991 12.656-13.292 22.259-23.943 22.259zm63.556-5.785c-1.702.879-4.175 1.489-7.038 2.194-4.636 1.144-10.406 2.566-15.081 5.878-3.643 2.584-7.394-1.034-11.916-6.03-2.379-2.629-4.434-4.898-6.38-5.146-.653-.083-1.356-.267-2.077-.5 1.863-2.618 3.254-5.502 4.081-8.446 1.221.343 2.776 2.011 4.286 3.646 2.468 2.669 5.412 5.854 8.995 5.854.953 0 1.953-.226 3-.747 4.128-2.055 9.575-2.796 14.382-3.45 3.06-.416 5.701-.776 7.538-1.421 3.76-1.319 10.224-4.977 12.741-9.753.187 8.441-8.386 15.782-12.531 17.921zm15.04-20.019a10.2 10.2 0 0 1-.662.269c-.197-1.409-.531-2.737-1.011-3.944l-.015.006c-.413-1.914-.984-3.369-1.647-4.482 1.583-.337 2.977-.658 4.047-.984 3.977-1.213 9.394-4.32 11.691-8.619-.189 9.57-8.159 15.79-12.403 17.754z" data-original="#3a322b"></path></g></svg>