<svg xmlns="http://www.w3.org/2000/svg" version="1.1" xmlns:xlink="http://www.w3.org/1999/xlink" xmlns:svgjs="http://svgjs.com/svgjs" width="512" height="512" x="0" y="0" viewBox="0 0 64 64" style="enable-background:new 0 0 512 512" xml:space="preserve"><g><g data-name="Layer 25"><path fill="#ffc76f" d="m1.468 11.884-.936-1.768.775-.41A75.2 75.2 0 0 1 36.359 1a3.642 3.642 0 0 1 2.118 6.6l-2.069 1.48-4.218 2.757-1.09-1.674 4.18-2.733 2.033-1.453A1.642 1.642 0 0 0 36.359 3a73.187 73.187 0 0 0-34.117 8.474z" data-original="#ffc76f"></path><path fill="#ec8329" d="m21.295 43.519-4.449.404-1.177 1.955 2.638 2.967z" data-original="#ec8329"></path><g fill="#ffc76f"><path d="M21 30a1.006 1.006 0 0 1-.769-.359l-5.008-6.011 1.537-1.281 4.641 5.57 5.435-.905.328 1.972-6 1A1.009 1.009 0 0 1 21 30z" fill="#ffc76f" data-original="#ffc76f"></path><path d="m26.051 34.043-8.293-2.073a1 1 0 0 1-.653-.523l-3.5-7 1.79-.894 3.293 6.589 7.847 1.958z" fill="#ffc76f" data-original="#ffc76f"></path><path d="M25 36h-8a1 1 0 0 1-.848-.47l-4.411-7.057 1.7-1.061L17.555 34H25z" fill="#ffc76f" data-original="#ffc76f"></path><path d="M17 40a1 1 0 0 1-.8-.4l-6-8 1.6-1.2 5.652 7.536 7.093-.887.248 1.984-7.669.959A1.032 1.032 0 0 1 17 40z" fill="#ffc76f" data-original="#ffc76f"></path></g><path fill="#ec8329" d="M18.97 22.82a6.6 6.6 0 0 0 7.82-.21 92.4 92.4 0 0 1 15.38-9.7L44 12l-9 1 6-4-4.6-.66a34.3 34.3 0 0 0-13.81.86l-2.85.78q-.93.255-1.83.57l-3.21 9.588z" data-original="#ec8329"></path><path fill="#f79b31" d="M36.4 9.34a34.3 34.3 0 0 0-13.81.86l-2.85.78c-.468.128-1.5.524-2.242.8l-2.8 8.357 4.272 2.683a6.6 6.6 0 0 0 7.82-.21 92.4 92.4 0 0 1 15.38-9.7L44 12l-9 1 4.766-3.177z" data-original="#f79b31"></path><path fill="#95afd1" d="m23.974 39.949-.4-.8A5.421 5.421 0 0 1 23 36.717a5.432 5.432 0 0 1 2.174-4.347L27 31v5.734zM37.8 29.4A14.769 14.769 0 0 1 44 22l-1.25 5M47.83 40.11A14.765 14.765 0 0 0 55 34l-4.85 1.212M38.771 51.908a17.106 17.106 0 0 0 8.914-3.656L48 48h-5.429" data-original="#95afd1"></path><path fill="#a5badb" d="m22 57-7 3a39.894 39.894 0 0 1 22.088-30.255L51 23l-.2-.41a7.531 7.531 0 0 1-.8-3.368 7.529 7.529 0 0 1 .386-2.381L51 15l4 8 7 1a10.242 10.242 0 0 1-7.243 3H54l-5.576 11.9A40.792 40.792 0 0 1 17 62z" data-original="#a5badb"></path><path fill="#c1cfe8" d="m55 23-2.4-4.8-.214.641a7.534 7.534 0 0 0 .414 5.749l.2.41-13.912 6.745a39.883 39.883 0 0 0-21.5 27.147L22 57l-5 5a40.792 40.792 0 0 0 31.424-23.1L54 27h.757A10.242 10.242 0 0 0 62 24z" data-original="#c1cfe8"></path><path fill="#95afd1" d="M22 54a2 2 0 1 1 2-2 2 2 0 0 1-2 2z" data-original="#95afd1"></path><path fill="#f79b31" d="m19 47-.52-.14A19.5 19.5 0 0 1 4 28.02a17.468 17.468 0 0 1 8.65-15.07 29.725 29.725 0 0 1 5.26-2.4l-.34 2.01a42.352 42.352 0 0 0-.57 6.93 3.632 3.632 0 0 0 1.07 2.58 6.394 6.394 0 0 0 .9.75l-1.46.87a11.352 11.352 0 0 0-3.46 16.24z" data-original="#f79b31"></path><path fill="#fcb732" d="M14.05 39.93a11.344 11.344 0 0 1 3.46-16.24l1.46-.87a6.394 6.394 0 0 1-.9-.75A3.632 3.632 0 0 1 17 19.49a42.352 42.352 0 0 1 .57-6.93l.115-.677c-.691.331-1.372.682-2.035 1.067A17.468 17.468 0 0 0 7 28.02a19.453 19.453 0 0 0 10.979 17.522z" data-original="#fcb732"></path><path fill="#383838" d="M33 15a2 2 0 1 1 2-2 2 2 0 0 1-2 2z" data-original="#383838"></path><path fill="#a5badb" d="M31.962 56.847a14.576 14.576 0 0 0-4.255-9.554l-1.414 1.414A12.59 12.59 0 0 1 30 57.405v.508a41.739 41.739 0 0 0 1.962-1.066z" data-original="#a5badb"></path><path fill="#f79b31" d="m15.4 25.342-7-8.902a17.513 17.513 0 0 0-1.271 1.62l6.946 8.84a11.37 11.37 0 0 1 1.325-1.558zM12 33.42a11.478 11.478 0 0 1 .086-1.328l-8.072-3.725a19.61 19.61 0 0 0 .179 2.285l7.84 3.618c-.022-.282-.033-.57-.033-.85zM14.05 39.93a11.458 11.458 0 0 1-.657-1.079L7.9 39.7c.05.067.093.138.144.2a19.59 19.59 0 0 0 1.378 1.586l5.165-.795z" data-original="#f79b31"></path><path d="m62.142 23.01-6.482-.926-3.76-7.531a.979.979 0 0 0-.966-.55 1 1 0 0 0-.877.681l-.614 1.84a8.531 8.531 0 0 0 .231 6.01l-5.43 2.633.731-2.925a1 1 0 0 0-1.485-1.1 15.835 15.835 0 0 0-6.455 7.519l-.379.184A40.975 40.975 0 0 0 28 34.494V31a1 1 0 0 0-1.6-.8l-1.825 1.37-.039.034-5.847-1.462-2.211-4.423c.093-.084.181-.172.277-.252l3.477 4.174a1 1 0 0 0 .933.345l6-1-.328-1.972-5.435.905-3-3.6.549-.319a7.793 7.793 0 0 0 8.451-.6 91.516 91.516 0 0 1 15.217-9.589l1.828-.914a1 1 0 0 0-.557-1.889l-4.915.547 2.58-1.721a1 1 0 0 0-.413-1.822l-2.695-.385.03-.021A3.642 3.642 0 0 0 36.359 1 75.2 75.2 0 0 0 1.307 9.706l-.775.41.936 1.768.774-.41A73.187 73.187 0 0 1 36.359 3a1.642 1.642 0 0 1 .954 2.977l-1.764 1.26a35.35 35.35 0 0 0-13.225 1l-2.847.778a30.428 30.428 0 0 0-7.329 3.073A18.5 18.5 0 0 0 3 28.017 20.531 20.531 0 0 0 15.059 46.7l2.079 2.339a40.89 40.89 0 0 0-3.128 10.819 1 1 0 0 0 1.384 1.061l2.227-.954-1.328 1.328A1 1 0 0 0 17 63a1.02 1.02 0 0 0 .135-.009 41.661 41.661 0 0 0 22.077-10.136 18.045 18.045 0 0 0 9.1-3.823l.314-.252A1 1 0 0 0 48 47h-3.35a41.977 41.977 0 0 0 3.883-6.111 15.86 15.86 0 0 0 7.324-6.374 1 1 0 0 0-1.1-1.485l-2.809.7L54.636 28h.122a11.169 11.169 0 0 0 7.949-3.293 1 1 0 0 0-.565-1.7zm-19.788 1.455-.46 1.839-1.841.892a13.862 13.862 0 0 1 2.301-2.731zm-16.58 8.705L26 33v3.317q-.91.883-1.761 1.821a4.411 4.411 0 0 1 1.535-4.968zm-6.748 12.124-.371-.531.729-.066c-.119.203-.242.395-.358.597zm1.721-2.73-3.414.31-2.463-3.519a10.3 10.3 0 0 1-1.623-3.693L16.2 39.6a1 1 0 0 0 .8.4 1.046 1.046 0 0 0 .124-.008l5.435-.679c.041.094.075.191.121.283l.109.218a40.84 40.84 0 0 0-2.042 2.75zM11.014 33.8a12.277 12.277 0 0 0 1.328 5.212l-3.317.51a18.5 18.5 0 0 1-3.747-8.37zm11.024 3.562-4.586.573-4.366-5.82a10.332 10.332 0 0 1 .222-1.137l2.844 4.551A1 1 0 0 0 17 36h5.043a5.757 5.757 0 0 0 0 1.363zm-4.28-5.393L23 33.281a6.566 6.566 0 0 0-.39.719h-5.055L14.2 28.635a10.494 10.494 0 0 1 .826-1.343l2.078 4.155a1 1 0 0 0 .654.523zm.8-19.25L18.8 11.3c.4-.128.8-.247 1.206-.358l2.848-.777a33.3 33.3 0 0 1 13.41-.835l2.007.286-3.553 2.369a2 2 0 1 0 .028 1.972 1 1 0 0 0 .367.034l3.607-.4a93.473 93.473 0 0 0-12.546 8.229 5.631 5.631 0 0 1-3.44 1.18 5.566 5.566 0 0 1-3.961-1.641A2.622 2.622 0 0 1 18 19.492a41.22 41.22 0 0 1 .561-6.772zm-5.4 1.1a28.37 28.37 0 0 1 3.482-1.723l-.05.3a43.327 43.327 0 0 0-.588 7.1 4.6 4.6 0 0 0 1.264 3.183l-.27.162a12.2 12.2 0 0 0-2.21 1.723l-5.754-7.323a16.373 16.373 0 0 1 4.124-3.425zm-5.377 5.066 5.654 7.2a12.428 12.428 0 0 0-2.3 5.574l-6.104-2.823c-.012-.273-.031-.544-.031-.819a16.456 16.456 0 0 1 2.781-9.132zM10.637 41.3l2.845-.437 2.99 4.27a18.44 18.44 0 0 1-5.835-3.833zM44.775 49a16.012 16.012 0 0 1-2.827 1.216c.369-.394.72-.807 1.075-1.216zm7.76-13.354a13.879 13.879 0 0 1-2.491 2.15l.81-1.73zM54.758 26H54a1 1 0 0 0-.905.575l-5.576 11.9A39.681 39.681 0 0 1 31.87 55.763a14.573 14.573 0 0 0-4.163-8.47l-1.414 1.414a12.583 12.583 0 0 1 3.666 8.124 39.8 39.8 0 0 1-10.012 3.636l2.76-2.76A1 1 0 0 0 22 56a.989.989 0 0 0-.394.081l-5.32 2.279a38.839 38.839 0 0 1 21.238-27.715L51.437 23.9a1 1 0 0 0 .458-1.346l-.206-.41a6.534 6.534 0 0 1-.489-4.514l2.908 5.817a1 1 0 0 0 .753.543l4.7.671A9.182 9.182 0 0 1 54.758 26z" fill="#000000" data-original="#000000"></path><circle cx="22" cy="52" r="2" fill="#000000" data-original="#000000"></circle></g></g></svg>