<svg xmlns="http://www.w3.org/2000/svg" version="1.1" xmlns:xlink="http://www.w3.org/1999/xlink" xmlns:svgjs="http://svgjs.com/svgjs" width="512" height="512" x="0" y="0" viewBox="0 0 512 512" style="enable-background:new 0 0 512 512" xml:space="preserve"><g><linearGradient id="a" x1="64.46" x2="436.637" y1="433.695" y2="61.517" gradientUnits="userSpaceOnUse"><stop offset="0" stop-color="#0095da"></stop><stop offset=".5" stop-color="#00aeee"></stop><stop offset="1" stop-color="#2bc4f3"></stop></linearGradient><path fill="url(#a)" d="m456.062 98.146-15.578 43.408a7.918 7.918 0 0 1-10.129 4.776 7.922 7.922 0 0 1-4.779-10.127l15.573-43.388a5.386 5.386 0 0 0-3.278-6.915l-14.274-5.129c-2.935-1.066-5.941.511-6.918 3.245l-20.217 56.324c-1.379 3.834-5.398 5.91-9.281 4.986a7.905 7.905 0 0 1-5.802 1.501c-4.33-.595-7.356-4.593-6.763-8.923l12.882-93.482c.407-2.936-1.675-5.66-4.634-6.067l-15.067-2.113c-2.841-.402-5.683 1.61-6.098 4.642l-18.087 131.468-.692 23.253c-.134 4.371-3.557 7.763-8.16 7.67-4.366-.137-7.804-3.789-7.665-8.16l2.747-92.255c.084-2.951-2.213-5.491-5.248-5.577l-15.144-.423c-3.032-.069-5.51 2.188-5.583 5.217l-3.701 125.135a7.914 7.914 0 0 1-7.907 7.683c-4.498 0-8.049-3.717-7.918-8.152l3.696-125.099c.117-4.8 1.934-9.366 5.013-13.038l1.26-66.006c.067-3.005-2.309-5.487-5.289-5.552l-15.171-.26c-3.172-.113-5.451 2.496-5.51 5.343l-4.01 211.39a7.92 7.92 0 0 1-15.836-.309l2.484-130.954c-1.643-.421-6.343-.741-15.856-1.8-2.887-.327-5.619 1.858-5.943 4.856l-12.505 119.74c-.465 4.423-4.45 7.516-8.701 7.052a7.92 7.92 0 0 1-7.052-8.696l12.511-119.769c1.084-9.966 8.885-17.519 18.335-18.796l3.067-17.682a5.433 5.433 0 0 0-4.428-6.309l-14.933-2.588c-2.943-.485-5.748 1.456-6.263 4.389l-24.336 139.45c-.744 4.271-4.811 7.196-9.16 6.438-3.417-.595-5.903-3.307-6.424-6.548-2.471-1.279-4.212-3.794-4.298-6.774l-2.742-93.111c-.09-3.179-2.886-5.449-5.588-5.25l-15.207.423c-2.974.085-5.325 2.59-5.242 5.583l1.108 36.991a7.915 7.915 0 0 1-7.675 8.152c-2.794.144-5.328-1.312-6.807-3.543-.714.419-1.484.763-2.338.945-4.232.915-8.474-1.809-9.392-6.096L96.068 68.743a5.428 5.428 0 0 0-6.454-4.199l-14.815 3.165c-2.905.619-4.772 3.528-4.155 6.441l13.408 62.814a7.918 7.918 0 0 1-6.088 9.395c-4.331.922-8.494-1.858-9.397-6.09L55.159 77.455c-2.446-11.477 4.88-22.795 16.336-25.233l14.825-3.165c11.782-2.48 22.844 5.107 25.238 16.397l8.954 42.02-.124-4.145c-.34-11.73 8.913-21.539 20.619-21.877l15.207-.423c11.543-.324 21.527 8.7 21.861 20.622l1.192 40.476 14.344-82.201c2.021-11.536 13.073-19.263 24.578-17.261l14.923 2.585c11.662 2.024 19.335 13.091 17.32 24.624l-2.772 15.978 3.623.38 1.222-64.421C252.765 9.834 262.672.67 274.16.955l15.171.26c11.743.258 21.068 9.995 20.815 21.707l-1.111 58.159c.298-.003.59-.059.89-.049l15.119.42c5.415.154 10.414 2.361 14.242 6.138l6.723-48.869c1.612-11.634 12.343-19.764 23.97-18.163l15.062 2.113c11.588 1.595 19.738 12.32 18.15 23.908l-6.293 45.672 4.876-13.583c3.971-11.076 16.153-16.823 27.207-12.789l14.222 5.111c10.918 3.881 16.856 15.923 12.859 27.156zm-8.284 97.054-52.043 279.247a28.826 28.826 0 0 1-14.026 19.838l-22.294 12.908c-6.822 3.901-15.304 4.997-23.398 2.526-54.378-16.864-109.482-16.864-163.829-.01-13.62 4.167-23.431-2.681-23.959-2.853-.373-.216-21.379-12.353-21.753-12.567a28.844 28.844 0 0 1-14.036-19.856l-51.991-279.26c-3.334-17.841 10.376-34.333 28.532-34.333h22.377c14.763 0 27.81 10.183 31.723 24.764 13.52 40.561 54.423 71.569 111.008 71.569 53.244 0 99.936-30.096 111.013-71.561 3.907-14.585 16.949-24.771 31.717-24.771h22.434c18.276-.003 31.906 16.778 28.525 34.359zm-28.526-18.526h-22.434c-7.614 0-14.366 5.356-16.418 13.029-12.902 48.267-66.022 83.304-126.313 83.304-53.949 0-107.582-27.086-126.205-82.953-2.191-8.142-8.794-13.379-16.526-13.379H88.98c-8.237 0-14.482 7.48-12.964 15.593l51.996 279.294a13.03 13.03 0 0 0 6.346 8.992l21.805 12.596c.529.175 4.806 3.434 11.366 1.425 57.465-17.82 115.713-17.806 173.149.01 3.67 1.129 7.629.722 10.83-1.108l22.294-12.91a13.035 13.035 0 0 0 6.361-8.98l52.053-279.314c.005-.015.005-.031.01-.046 1.497-7.783-4.558-15.553-12.974-15.553zm-81.43 164.633v71.587c0 9.833-8 17.833-17.83 17.833H188.158c-9.83 0-17.83-8-17.83-17.833v-71.587c0-9.833 8-17.833 17.83-17.833h131.834c9.83 0 17.83 8 17.83 17.833zm-15.836 0a2 2 0 0 0-1.995-1.997H188.158a2 2 0 0 0-1.995 1.997v71.587a2 2 0 0 0 1.995 1.997h131.834a2 2 0 0 0 1.995-1.997v-71.587z" data-original="url(#a)"></path></g></svg>

