<?xml version="1.0" encoding="UTF-8"?>
<svg xmlns="http://www.w3.org/2000/svg" version="1.1" xmlns:xlink="http://www.w3.org/1999/xlink" xmlns:svgjs="http://svgjs.com/svgjs" width="512" height="512" x="0" y="0" viewBox="0 0 64 64" style="enable-background:new 0 0 512 512" xml:space="preserve"><g><linearGradient id="a" x1="32" x2="32" y1="63" y2="1" gradientUnits="userSpaceOnUse"><stop offset="0" stop-color="#9f2fff"></stop><stop offset="1" stop-color="#0bb1d3"></stop></linearGradient><path fill="url(#a)" d="M60.127 37H60v-6c0-1.103-.897-2-2-2h-2v-4c0-1.103-.897-2-2-2h-2c-1.103 0-2 .897-2 2v4h-2v-2c0-1.103-.897-2-2-2h-2c-1.103 0-2 .897-2 2v2h-2v-6c1.103 0 2-.897 2-2v-2c0-1.103-.897-2-2-2h-.159c-.781-3.629-3.487-6.488-6.94-7.549L34.535 7H42c1.103 0 2-.897 2-2V3c0-1.103-.897-2-2-2H31.465l-5.483 8.223c-3.869.814-6.977 3.844-7.823 7.777H18c-1.103 0-2 .897-2 2v2c0 1.103.897 2 2 2v13.756l-2.484-.654-3.75-3.75A4.004 4.004 0 0 0 8 27a4.007 4.007 0 0 0-3.898 3.102A4.007 4.007 0 0 0 1 34a4.004 4.004 0 0 0 6.032 3.446l4.11 4.11L12.851 46H11c-1.103 0-2 .897-2 2v6l1.841 7.484A1.995 1.995 0 0 0 12.781 63h22.438c.92 0 1.718-.623 1.94-1.516l.492-1.969.239 1.754c.135.986.986 1.73 1.982 1.73h18.254c.996 0 1.848-.744 1.982-1.73l2.863-21.005A2.873 2.873 0 0 0 60.127 37zM58 31v6h-2v-6zm-4-6v12h-2V25zm-4 6v6h-2v-6zm-4-4v10h-2V27zm-4 4v6h-2v-6zM32.535 3H42v2h-8.535l-2.693 4.039A10.02 10.02 0 0 0 29.937 9h-1.403zm-4.473 8h1.875c3.704 0 6.89 2.512 7.84 6H20.223c.949-3.488 4.135-6 7.839-6zM18 19h22l.002 2H18zm2 4h18v14h-.127a2.876 2.876 0 0 0-2.847 3.261L35.809 46h-2.877a16.563 16.563 0 0 0-10.281-8.021L20 37.282zm-2.313 30-4.555-11.843 2.264-3.019 6.744 1.775A14.574 14.574 0 0 1 32.958 53zm17.271 0a16.469 16.469 0 0 0-1.098-5h2.222l.682 5zM6.413 35.413A1.986 1.986 0 0 1 5 36c-1.103 0-2-.897-2-2s.897-2 2-2h1v-1c0-1.103.897-2 2-2s2 .897 2 2c0 .371-.1.728-.289 1.03l-.421.675 4.39 4.389-1.788 2.384-4.772-4.772zM13.62 48l1.923 5H11v-5zm21.599 13H12.78l-1.5-6h25.44zm25.772-21.009L58.127 61H39.873l-2.865-21.013a.874.874 0 0 1 .865-.987h22.254a.874.874 0 0 1 .864.991zM49 39.813 46.625 47h-7.359l5.91 4.989-2.381 7.704L49 54.954l6.205 4.739-2.381-7.704L58.734 47h-7.359zm1.523 11.502.924 2.991L49 52.437l-2.447 1.87.924-2.991L44.734 49h3.336l.93-2.813.93 2.813h3.336zM24 35h-2v-8c0-1.103.897-2 2-2h10c1.103 0 2 .897 2 2v8h-2v-8H24zm5-6c-1.654 0-3 1.346-3 3s1.346 3 3 3 3-1.346 3-3-1.346-3-3-3zm0 4a1 1 0 1 1 0-2 1 1 0 0 1 0 2z" data-original="url(#a)"></path></g></svg>



