<?xml version="1.0" encoding="UTF-8"?>
<svg xmlns="http://www.w3.org/2000/svg" version="1.1" xmlns:xlink="http://www.w3.org/1999/xlink" xmlns:svgjs="http://svgjs.com/svgjs" width="512" height="512" x="0" y="0" viewBox="0 0 64 64" style="enable-background:new 0 0 512 512" xml:space="preserve"><g><path fill="#a02e14" d="M27.722 33.835a4.36 4.36 0 0 1-.544-.036c-.946-.122-1.946-.497-3.452-1.293l-.936-.494.897-.562a47.104 47.104 0 0 0 2.905-1.968l.456-.335s.743.87.885 1.03c1.21 1.373 1.603 1.872 1.83 2.32l.242.48-.445.3a3.044 3.044 0 0 1-.251.152 3.185 3.185 0 0 1-1.587.406z" data-original="#a02e14"></path><path fill="#ffa963" d="m22.167 31.645-.11-.231a5.503 5.503 0 0 0-1.217-1.952l-.538-.555.665-.394a68.532 68.532 0 0 0 3.57-2.283l.65-.443.268.74c.068.19.11.306.164.425.268.6.62 1.16 1.18 1.871l.389.496-.51.373a48.993 48.993 0 0 1-3.355 2.244l-.305.186z" data-original="#ffa963"></path><path fill="#8ab504" d="M47.699 22.458c-.706-.572-1.53-1.053-2.67-1.558l-.37-.164.008-.406c.01-.527.042-1.144.191-1.725l.157-.61.606.177c.83.244 1.458.368 2.17.429.163.013.324.02.481.02.462 0 .913-.058 1.343-.17l1.391-.365-.705 1.254c-.506.9-1.071 1.89-1.691 2.952l-.359.615z" data-original="#8ab504"></path><path fill="#a02e14" d="M44.062 20.494a57.007 57.007 0 0 0-2.027-.753c-.081-.027-3.772-1.313-3.772-1.313l.56-.675c.312-.376.612-.745.897-1.106l.248-.314.387.104c.164.043 1.259.386 2.31.728 2.485.81 2.582.841 2.419 1.451-.105.39-.165.814-.188 1.338l-.037.857zM23.112 39.322l-.067-.147c-.024-.055-.041-.096-.065-.137-.61-1.078-1.452-1.912-2.791-3.074l-.284-.248c-.526-.461-.85-.745-1.074-.95l-.065-.059-1.33-1.664 2.013.692.077.04c.342.18.854.463 1.704.933l.354.196c1.474.811 2.504 1.287 3.447 1.593l.944.306-.7.704c-.458.46-.806 1.046-1.036 1.739l-.47 1.415zM31.022 37.897a1.68 1.68 0 0 0-.407-.766l-.513-.569.669-.373c1.96-1.078 2.698-2.739 2.024-4.555-.222-.583-.568-1.166-1.124-1.889-.282-.363-.434-.537-.968-1.146 0 0-.706-.809-.824-.95l-.388-.463.575-.49c.233-.199.467-.398.705-.612l.795-.72.38.202c.623.333 1.438.812 3.407 1.968a67 67 0 0 0 1.467.847c.275.157 1.03.571 1.03.571l.076.363c.077 1.236 1.067 2.196 1.65 2.66l.591.468-.583.48c-2.803 2.31-5.706 4.167-7.646 5.363l-.732.452z" data-original="#a02e14"></path><path fill="#77a505" d="M38.062 18.327c-.57-.246-.918-.477-1.127-.747-.118-.155-.167-.257-.18-.283l-.126-.256.152-.337c.164-.266.556-.452 1.164-.552.148-.022.3-.033.468-.033.231 0 .493.022.788.067l1.043.16-.659.823c-.26.326-.532.656-.815.991l-.293.346z" data-original="#77a505"></path><path fill="#8ab504" d="M44.409 28.034c-.216 0-.465-.024-.757-.075-.836-.148-1.807-.5-3.057-1.108l-1.281-.622 1.335-.498c.339-.126.685-.235 1.026-.342.868-.269 1.692-.556 2.232-1.105l.321-.326.402.216c.45.241.814.478 1.114.725.819.659.914 1.145.404 2.08-.29.521-.724 1.055-1.74 1.055z" data-original="#8ab504"></path><path fill="#77a505" d="M41.79 13.598c-.981-.297-1.784-.47-2.526-.543l-.587-.059.04-.589c.108-1.61.22-3.275 1.964-4.642a3.476 3.476 0 0 1 2.059-.7l1.132-.022-1.863 1.186c-.11.258-.154.519-.13.775.046.413.249.785.573 1.048.271.221.608.338.973.338h1.224l-.737.977-1.706 2.357z" data-original="#77a505"></path><path fill="#a02e14" d="M39.43 26.252c-.34-.182-.69-.374-1.067-.588a52.165 52.165 0 0 1-1.384-.802c-.98-.572-1.74-1.015-2.364-1.372l-.688-.393.557-.565c.48-.486.938-.957 1.37-1.417l.308-.328.403.197c.724.352 1.61.707 3.063 1.226.13.043 1.375.476 1.375.476 1.093.385 1.926.705 2.623 1.008l.98.428-.866.626c-.562.406-1.293.633-2 .852-.604.187-1.191.378-1.745.66l-.285.143zM50.663 9.666a8.647 8.647 0 0 0-1.1-.772c-.284-.167-.594-.321-.913-.469l-1.578-.73 1.688-.416a4.213 4.213 0 0 1 2.762.23l.518.228-.188.534c-.1.28-.164.608-.192.972l-.092 1.17z" data-original="#a02e14"></path><path fill="#8ab504" d="M52.695 12.942c-.152-.865-.541-1.676-1.155-2.408l-.131-.157-.01-.273c.012-.212.02-.357.02-.512.007-1.347.533-2.4 1.442-2.887a2.337 2.337 0 0 1 1.105-.277c.475 0 .942.14 1.348.406.91.597 1.388 1.736 1.315 3.126l-.02.388-.36.145c-.71.288-1.44 1.086-2.437 2.668l-.841 1.335z" data-original="#8ab504"></path><path fill="#77a505" d="M29.233 26.817a10.802 10.802 0 0 1-.447-.7l-.123-.205c-.295-.477-.547-1.025-.185-1.467l.1-.12.27-.1.142-.01c.283 0 .637.14 1.308.516.146.082.285.16.412.22l1.071.516-.866.784c-.216.194-.43.376-.642.558l-.654.56zM33.722 22.987c-.85-.47-1.408-.739-2.127-1.029l-.41-.166.03-.441c.066-.952.367-1.734.895-2.327.223-.253.476-.469.797-.68l.578-.381.305.621c.275.56.704 1.064 1.273 1.496.204.156.419.299.645.437l.641.394-.517.546c-.437.462-.896.936-1.383 1.425l-.324.327z" data-original="#77a505"></path><path fill="#a02e14" d="M48.408 15.506c-.094 0-.208-.005-.35-.016-1.318-.105-2.548-.57-3.737-1.02-.342-.129-.654-.247-.967-.357l-1.277-.434.39-.69 1.209-1.676c.16-.215.322-.42.485-.627l.223-.283.354.058c.884.145 2.2.516 3.244 1.122 1.598.947 2.012 1.95 1.388 3.353-.176.4-.464.57-.962.57z" data-original="#a02e14"></path><path fill="#8ab504" d="M39.626 32.289c-.376-.278-1.297-1.037-1.71-2.092l-.583-1.49 1.427.723c.846.43 1.597.764 2.297 1.025l.94.35-.946.86c-.238.215-.45.409-.665.594l-.368.317zM23.583 42.24a4.314 4.314 0 0 0-.003-1.524l-.027-.15.066-.195c.111-.261.205-.539.296-.874.302-1.154.947-2.088 1.864-2.7.792-.501 1.644-.755 2.534-.755.704 0 1.375.165 1.892.463.697.403 1.082 1.018 1.086 1.732l.028.428s-1.654 1.002-2.304 1.39c-1.547.926-3.147 1.883-4.489 2.797l-1.2.816z" data-original="#8ab504"></path><path fill="#ffa963" d="M17.936 57.574c-7.05 0-11.688-2.75-15.042-8.912-2.936-5.389 1.323-9.29 2.699-10.357l.6-.466.325.686a6.8 6.8 0 0 0 .87 1.371l.317.387-.316.387c-.688.84-1.12 1.762-1.284 2.738-.347 2.065.517 4.34 2.311 6.083 1.33 1.296 3.14 1.952 5.38 1.952 2.994 0 5.818-1.185 6.354-1.422l.364-.162c-.295-.832-.494-2.277.588-4.014l.063-.1.133-.096a4.82 4.82 0 0 0 1.715-1.82.752.752 0 0 1 .047-.105l.048-.091.106-.096c.3-.242.61-.476.967-.72 1.351-.935 2.988-1.914 4.721-2.95 3.795-2.271 8.506-5.091 12.625-8.93l.209-.195.37.053c.343.096.677.179 1.004.237.44.077.87.116 1.277.116 1.982 0 3.533-.916 4.487-2.65 1.075-1.955.899-3.872-.495-5.398l-.302-.332.227-.388a224.088 224.088 0 0 0 2.488-4.368l.053-.095.115-.097c.543-.404.97-.948 1.27-1.617a6.373 6.373 0 0 0 .468-1.535l.028-.123c1.536-2.669 2.64-4.202 3.88-4.377.082-.01.157-.015.233-.015.652 0 1.318.352 2.097 1.107 3.522 3.425 5.593 15.328-3.011 25.87-8.338 10.227-15.373 16.325-28.652 19.257-3.616.799-6.67 1.187-9.337 1.187z" data-original="#ffa963"></path><path fill="#ffa963" d="M17.936 57.574c-7.05 0-11.688-2.75-15.042-8.912-2.936-5.389 1.323-9.29 2.699-10.357l.6-.466.325.686a6.8 6.8 0 0 0 .87 1.371l.317.387-.316.387c-.688.84-1.12 1.762-1.284 2.738-.347 2.065.517 4.34 2.311 6.083 1.33 1.296 3.14 1.952 5.38 1.952 2.994 0 5.818-1.185 6.354-1.422l.364-.162c-.295-.832-.494-2.277.588-4.014l.063-.1.133-.096a4.82 4.82 0 0 0 1.715-1.82.752.752 0 0 1 .047-.105l.048-.091.106-.096c.3-.242.61-.476.967-.72 1.351-.935 2.988-1.914 4.721-2.95 3.795-2.271 8.506-5.091 12.625-8.93l.209-.195.37.053c.343.096.677.179 1.004.237.44.077.87.116 1.277.116 1.982 0 3.533-.916 4.487-2.65 1.075-1.955.899-3.872-.495-5.398l-.302-.332.227-.388a224.088 224.088 0 0 0 2.488-4.368l.053-.095.115-.097c.543-.404.97-.948 1.27-1.617a6.373 6.373 0 0 0 .468-1.535l.028-.123c1.536-2.669 2.64-4.202 3.88-4.377.082-.01.157-.015.233-.015.652 0 1.318.352 2.097 1.107 3.522 3.425 5.593 15.328-3.011 25.87-8.338 10.227-15.373 16.325-28.652 19.257-3.616.799-6.67 1.187-9.337 1.187z" data-original="#ffa963"></path><path fill="#f49853" d="M55.92 37.13c-8.33 10.23-15.37 16.33-28.65 19.26-3.61.8-6.67 1.18-9.33 1.18-7.05 0-11.69-2.75-15.05-8.91a6.39 6.39 0 0 1-.38-.8c3.28 5.25 7.75 7.61 14.28 7.61 2.66 0 5.72-.39 9.33-1.19 13.28-2.93 20.32-9.03 28.66-19.26 6.93-8.49 6.93-17.87 4.83-22.98 3.08 4.2 4.36 15.24-3.69 25.09z" data-original="#f49853"></path><path fill="#77a505" d="M21.594 30.04c-.715-1.032-1.734-1.801-2.871-2.167a4.654 4.654 0 0 0-1.422-.23c-.881 0-1.72.275-2.425.797-1.455 1.071-1.394 2.315-1.34 3.413.021.429.003.832-.067 1.253-.098.377-.332.846-1.28 1.128-.27.08-.542.119-.83.119-.446 0-.87-.095-1.286-.187-.42-.094-.818-.184-1.25-.184-.763 0-1.446.298-2.146.935-1.241 1.126-1.075 2.993.446 4.993l.412.542.494-.47c.763-.725 1.74-1.369 2.898-1.913 1.14-.537 2.27-1.046 3.415-1.563l1.276-.578-.36-.59c-.425-.694-.623-1.383-.59-2.046 0 0 .043-.48.06-.478l.022-.088c.091-.371.254-.74.482-1.096.65-1.01 1.57-1.522 2.731-1.522.442 0 .916.076 1.409.225.436.138.898.33 1.453.602l2.108 1.033z" data-original="#77a505"></path><path fill="#8ab504" d="M14.795 51.257c-.793-1.256-1.063-3.177.557-4.803l.19-.19.354.021c.801.15 1.484.223 2.087.223.507 0 .992-.045 1.443-.135.206-.04.403-.088.593-.145l1.164-.35-.415 1.142c-.308.844-.356 1.674-.145 2.468l.134.504-.477.21a18.562 18.562 0 0 1-4.895 1.336l-.384.046z" data-original="#8ab504"></path><path fill="#a02e14" d="M18.142 38.316c-1.681-1.458-1.819-1.577-2.34-2.215l-.297-.363-1.348.61c-1.1.497-2.206.996-3.323 1.522a12.02 12.02 0 0 0-2.302 1.403 6.106 6.106 0 0 0-2.204 2.697l-.061.147a5.72 5.72 0 0 0-.379 1.254c-.358 2.137.53 4.484 2.375 6.277 1.356 1.322 3.212 1.992 5.516 1.992.153 0 .306-.003.459-.009l.935-.035-.41-.842c-.293-.603-.844-2.174.38-3.736l2.337-3.664c.16.012.33.034.478.034 1.156 0 1.937-.356 2.32-1.057.616-1.14.137-2.04-2.136-4.015z" data-original="#a02e14"></path><path fill="#f7c800" d="M52.43 16.29c-.75 1.67-2.16 2.55-4.09 2.55-.18 0-.37 0-.57-.02-1.9-.15-3.75-.83-5.54-1.48-.76-.27-1.51-.54-2.25-.77-.65-.15-1.17-.23-1.59-.23-.14 0-.28.01-.41.03-.57.09-.95.28-1.04.51-.06.15 0 .34.17.57.38.49 1.27.79 2.74 1.3.47.16.95.32 1.44.48 2.3.75 4.68 1.53 6.57 3.07 2.08 1.7 2.51 3.94 1.21 6.3-1 1.81-2.61 2.77-4.68 2.77-.42 0-.87-.04-1.32-.12-1.5-.27-3.09-.9-5.31-2.09-.37-.2-.7-.39-1.05-.59-.42-.23-.86-.48-1.45-.84l-.39-.22c-.87-.52-1.7-1.01-2.53-1.48-.36-.2-.74-.39-1.11-.57-.37-.19-.72-.36-1.06-.54-.43-.24-.87-.49-1.2-.49-.13 0-.21.04-.29.13-.23.24-.26.59.35 1.54.5.78 1.08 1.46 1.71 2.18.37.44.75.87 1.11 1.33.56.74.92 1.34 1.15 1.95.72 1.93-.04 3.67-2.06 4.79-.17.1-.34.17-.51.24l-.05.02c-.06-.03-.12-.07-.18-.11-.51-.29-1.18-.46-1.89-.46-.89 0-1.74.26-2.53.76a.64.64 0 0 0-.13.1c-1.16-.28-2.38-.81-4.17-1.8l-.11-.06c-.22-.13-.45-.26-.68-.4-.85-.49-1.69-.99-2.55-1.18-.03 0-.07-.01-.1-.01.08.32.43.66.69.92.36.36.73.68 1.1.99l.5.44c1.57 1.36 2.29 2.15 2.84 3.13.24.43.42.84.53 1.23.03.13.06.25.08.37.22 1.03.07 2.09-.43 3.13-.05.09-.09.18-.14.27-.77 1.41-2.06 2.33-3.74 2.66-.51.1-1.06.15-1.61.15-2.32 0-4.62-.85-6.56-1.68-.78-.33-1.56-.7-2.32-1.1a6.68 6.68 0 0 1-.47-.25l-.46-.26c-.42-.25-.71-.63-.83-1.1-.12-.46-.05-.94.2-1.35.24-.4.63-.69 1.09-.81.14-.03.28-.05.43-.05.67 0 1.26.35 1.73.64l.09.06c.63.37 1.3.67 1.94.95 1.19.51 2.3.89 3.31 1.12.73.17 1.39.26 1.95.26 1.08 0 1.78-.31 2.12-.94.56-1.02.09-1.86-2.08-3.75-1.79-1.55-1.86-1.61-2.39-2.27-1.68-1.99-1.23-3.65-.56-4.7.68-1.06 1.69-1.63 2.9-1.63.46 0 .96.08 1.49.24.56.18 1.15.44 1.91.83.27.14.55.29.94.51l.54.31c1.4.79 2.85 1.61 4.37 1.81.16.02.32.03.48.03.74 0 1.41-.22 1.92-.64.08-.07.1-.09.1-.09 0-.01.04-.15-.49-.85-.41-.54-.84-1.02-1.25-1.48l-.19-.23c-1.22-1.38-1.88-2.22-2.35-3.28-.73-1.59-.56-3.31.43-4.61.68-.87 1.66-1.35 2.83-1.37 1.65 0 3.2.7 4.63 1.45 1.37.73 2.68 1.5 3.79 2.17.55.32.96.56 1.37.79.46.26.87.49 1.29.71 1.7.9 2.91 1.38 3.93 1.56.26.05.5.07.71.07.74 0 1.18-.26 1.56-.94.45-.83.37-1.21-.35-1.8-1.35-1.08-3.07-1.65-4.73-2.2-.47-.16-.91-.3-1.34-.46-2.24-.8-3.57-1.35-4.61-2.16-1.76-1.33-2.17-3.21-1.08-5.02 1-1.62 2.52-2.44 4.53-2.44h.2c1.31.03 2.62.33 4.86 1.12.32.11.64.23.96.35 1.21.45 2.45.92 3.67 1.01.1.01.21.01.3.01.47 0 .65-.09.8-.43.58-1.3.2-2.19-1.3-3.08-1.12-.65-2.91-1.17-3.99-1.17-.09 0-.18 0-.26.01-.06.01-.13.01-.19.01-.41 0-.8-.14-1.12-.4-.37-.3-.6-.72-.65-1.19-.09-.99.63-1.86 1.61-1.96.24-.03.49-.04.73-.04 1.8 0 3.87.61 5.67 1.67 3.04 1.8 4.07 4.64 2.76 7.59z" data-original="#f7c800"></path><g fill="#e8bc03"><path d="M49.07 28.6c-1 1.81-2.61 2.77-4.68 2.77-.42 0-.87-.04-1.32-.12-.41-.07-.82-.17-1.25-.3.36.05.71.08 1.04.08 2.07 0 3.68-.96 4.68-2.77 1.3-2.36.87-4.6-1.21-6.3-1.89-1.54-4.27-2.32-6.57-3.07-.49-.16-.97-.32-1.44-.48-1.47-.51-2.36-.81-2.74-1.3-.17-.23-.23-.42-.17-.57.09-.23.47-.42 1.04-.51.13-.02.27-.03.41-.03.42 0 .94.08 1.59.23.14.04.28.09.42.14-.17-.02-.33-.03-.48-.03-.14 0-.28.01-.41.03-.57.09-.95.28-1.04.51-.06.15 0 .34.17.57.38.49 1.27.79 2.74 1.3.47.16.95.32 1.44.48 2.3.75 4.68 1.53 6.57 3.07 2.08 1.7 2.51 3.94 1.21 6.3zM52.43 16.29c-.75 1.67-2.16 2.55-4.09 2.55-.18 0-.37 0-.57-.02-.84-.07-1.67-.24-2.49-.46.32.05.64.09.96.12.2.02.39.02.57.02 1.93 0 3.34-.88 4.09-2.55 1.31-2.95.28-5.79-2.76-7.59-.9-.53-1.87-.95-2.84-1.23 1.45.21 2.99.76 4.37 1.57 3.04 1.8 4.07 4.64 2.76 7.59zM30.94 36.35c-.17.1-.34.17-.51.24l-.05.02c-.06-.03-.12-.07-.18-.11-.29-.17-.64-.29-1.02-.37.07-.03.15-.07.23-.12 2.02-1.12 2.78-2.86 2.06-4.79-.23-.61-.59-1.21-1.15-1.95-.36-.46-.74-.89-1.11-1.33-.63-.72-1.21-1.4-1.71-2.18-.61-.95-.58-1.3-.35-1.54.08-.09.16-.13.29-.13.33 0 .77.25 1.2.49.01 0 .01.01.02.01-.21.24-.22.6.37 1.51.5.78 1.08 1.46 1.71 2.18.37.44.75.87 1.11 1.33.56.74.92 1.34 1.15 1.95.72 1.93-.04 3.67-2.06 4.79zM23.35 43.66c-.05.09-.09.18-.14.27-.77 1.41-2.06 2.33-3.74 2.66-.51.1-1.06.15-1.61.15-1.1 0-2.2-.19-3.26-.49.57.1 1.15.15 1.73.15.55 0 1.1-.05 1.61-.15 1.68-.33 2.97-1.25 3.74-2.66.05-.09.09-.18.14-.27.5-1.04.65-2.1.43-3.13-.02-.12-.05-.24-.08-.37-.11-.39-.29-.8-.53-1.23-.55-.98-1.27-1.77-2.84-3.13l-.5-.44c-.37-.31-.553-.577-.913-.937-.212-.212-.339-.686.069-.74.127-.016.504-.025.584.107.14.23.51.74.69.92.36.36.73.68 1.1.99l.5.44c1.57 1.36 2.29 2.15 2.84 3.13.24.43.42.84.53 1.23.03.13.06.25.08.37.22 1.03.07 2.09-.43 3.13z" fill="#e8bc03" data-original="#e8bc03"></path></g></g></svg>



