<svg xmlns="http://www.w3.org/2000/svg" version="1.1" xmlns:xlink="http://www.w3.org/1999/xlink" xmlns:svgjs="http://svgjs.com/svgjs" width="512" height="512" x="0" y="0" viewBox="0 0 682.667 682.667" style="enable-background:new 0 0 512 512" xml:space="preserve"><g><defs><clipPath id="a" clipPathUnits="userSpaceOnUse"><path d="M0 512h512V0H0Z" fill="#000000" data-original="#000000"></path></clipPath></defs><g clip-path="url(#a)" transform="matrix(1.33333 0 0 -1.33333 0 682.667)"><path d="M0 0c0-82.8 34.1-79.033 57.938-152.145 6.039-18.526 6.237-40.678 30.87-41.188.849 0 1.728 0 2.664.029H149.099c.907-.029 1.786-.029 2.665-.029 24.604.51 24.802 22.662 30.868 41.188 20.182 61.98 47.792 68.693 55.7 119.767 1.445 9.15 2.239 19.773 2.239 32.378 0 7.875-.765 15.608-2.239 23.058-10.743 55.351-59.526 97.134-118.061 97.134C53.828 120.192 0 66.371 0 0" style="fill-opacity:1;fill-rule:evenodd;stroke:none" transform="translate(261.429 374.308)" fill="#ffa96b" data-original="#ffa96b"></path><path d="M0 0c0-18.725 19.531-35.834 35.83-35.834 16.327 0 24.094 6.742 30.415 16.883 6.35-10.141 14.116-16.883 30.415-16.883S132.489-18.725 132.489 0c0 18.696-12.756 32.292-29.536 35.267l-5.216 92.375c-.879 0-1.758 0-2.665.028H37.445c-.935-.028-1.814-.028-2.664-.028l-5.216-92.375C12.756 32.292 0 18.696 0 0" style="fill-opacity:1;fill-rule:evenodd;stroke:none" transform="translate(315.455 53.334)" fill="#ffd4b5" data-original="#ffd4b5"></path><path d="m0 0 5.216-92.403c16.78-2.974 29.536-16.571 29.536-35.267 0-18.725-19.53-35.834-35.829-35.834s-24.066 6.742-30.415 16.883c-6.321-10.141-14.088-16.883-30.415-16.883-16.299 0-35.83 17.109-35.83 35.834 0 18.696 12.756 32.293 29.565 35.267L-62.956 0" style="stroke-width:20;stroke-linecap:round;stroke-linejoin:round;stroke-miterlimit:10;stroke-dasharray:none;stroke-opacity:1" transform="translate(413.192 181.004)" fill="none" stroke="#000000" stroke-width="20" stroke-linecap="round" stroke-linejoin="round" stroke-miterlimit="10" stroke-dasharray="none" stroke-opacity="" data-original="#000000"></path><path d="M0 0h.028" style="stroke-width:20;stroke-linecap:round;stroke-linejoin:round;stroke-miterlimit:10;stroke-dasharray:none;stroke-opacity:1" transform="translate(447.916 412.012)" fill="none" stroke="#000000" stroke-width="20" stroke-linecap="round" stroke-linejoin="round" stroke-miterlimit="10" stroke-dasharray="none" stroke-opacity="" data-original="#000000"></path><path d="M0 0h.057" style="stroke-width:20;stroke-linecap:round;stroke-linejoin:round;stroke-miterlimit:10;stroke-dasharray:none;stroke-opacity:1" transform="translate(458.007 370.597)" fill="none" stroke="#000000" stroke-width="20" stroke-linecap="round" stroke-linejoin="round" stroke-miterlimit="10" stroke-dasharray="none" stroke-opacity="" data-original="#000000"></path><path d="M0 0h.057" style="stroke-width:20;stroke-linecap:round;stroke-linejoin:round;stroke-miterlimit:10;stroke-dasharray:none;stroke-opacity:1" transform="translate(421.81 380.228)" fill="none" stroke="#000000" stroke-width="20" stroke-linecap="round" stroke-linejoin="round" stroke-miterlimit="10" stroke-dasharray="none" stroke-opacity="" data-original="#000000"></path><path d="M0 0h.028" style="stroke-width:20;stroke-linecap:round;stroke-linejoin:round;stroke-miterlimit:10;stroke-dasharray:none;stroke-opacity:1" transform="translate(403.923 414.76)" fill="none" stroke="#000000" stroke-width="20" stroke-linecap="round" stroke-linejoin="round" stroke-miterlimit="10" stroke-dasharray="none" stroke-opacity="" data-original="#000000"></path><path d="m0 0-.028-.028" style="stroke-width:20;stroke-linecap:round;stroke-linejoin:round;stroke-miterlimit:10;stroke-dasharray:none;stroke-opacity:1" transform="translate(277.585 434.532)" fill="none" stroke="#000000" stroke-width="20" stroke-linecap="round" stroke-linejoin="round" stroke-miterlimit="10" stroke-dasharray="none" stroke-opacity="" data-original="#000000"></path><path d="M0 0c20.664 16.685 46.94 26.656 75.542 26.656 66.442 0 120.3-53.822 120.3-120.192 0-82.8-34.101-79.033-57.94-152.145-6.263-19.177-6.263-42.236-33.533-41.159H46.742c-27.297-1.077-27.297 21.982-33.533 41.159-23.839 73.112-57.938 69.345-57.938 152.145 0 6.713.538 13.286 1.586 19.716" style="stroke-width:20;stroke-linecap:round;stroke-linejoin:round;stroke-miterlimit:10;stroke-dasharray:none;stroke-opacity:1" transform="translate(306.158 467.844)" fill="none" stroke="#000000" stroke-width="20" stroke-linecap="round" stroke-linejoin="round" stroke-miterlimit="10" stroke-dasharray="none" stroke-opacity="" data-original="#000000"></path><path d="M0 0c0 82.8 34.101 79.004 57.939 152.145 6.038 18.526 6.236 40.649 30.869 41.159.85.029 1.729.029 2.665-.028H149.1c.907.057 1.814.057 2.664.028 24.632-.51 24.831-22.633 30.869-41.159 20.211-62.008 47.791-68.722 55.727-119.767 1.418-9.178 2.211-19.773 2.211-32.378 0-7.903-.764-15.608-2.211-23.086-10.771-55.352-59.554-97.134-118.089-97.134C53.857-120.22 0-66.399 0 0" style="fill-opacity:1;fill-rule:evenodd;stroke:none" transform="translate(10 137.72)" fill="#ffa96b" data-original="#ffa96b"></path><path d="M0 0c0 18.696 19.53 35.806 35.829 35.806 16.327 0 24.094-6.742 30.415-16.855 6.35 10.113 14.116 16.855 30.415 16.855 16.327 0 35.859-17.11 35.859-35.806 0-18.724-12.756-32.321-29.566-35.267l-5.216-92.403a28.38 28.38 0 0 1-2.664-.028H37.445c-.935.056-1.814.056-2.665.028l-5.216 92.403C12.756-32.321 0-18.724 0 0" style="fill-opacity:1;fill-rule:evenodd;stroke:none" transform="translate(64.027 458.694)" fill="#ffd4b5" data-original="#ffd4b5"></path><path d="m0 0 5.216 92.431c16.809 2.946 29.565 16.543 29.565 35.267 0 18.697-19.531 35.806-35.858 35.806-16.299 0-24.066-6.742-30.415-16.855-6.321 10.113-14.088 16.855-30.387 16.855-16.327 0-35.857-17.109-35.857-35.806 0-18.724 12.756-32.321 29.564-35.267L-62.956 0" style="stroke-width:20;stroke-linecap:round;stroke-linejoin:round;stroke-miterlimit:10;stroke-dasharray:none;stroke-opacity:1" transform="translate(161.764 330.996)" fill="none" stroke="#000000" stroke-width="20" stroke-linecap="round" stroke-linejoin="round" stroke-miterlimit="10" stroke-dasharray="none" stroke-opacity="" data-original="#000000"></path><path d="M0 0h.058" style="stroke-width:20;stroke-linecap:round;stroke-linejoin:round;stroke-miterlimit:10;stroke-dasharray:none;stroke-opacity:1" transform="translate(196.487 99.988)" fill="none" stroke="#000000" stroke-width="20" stroke-linecap="round" stroke-linejoin="round" stroke-miterlimit="10" stroke-dasharray="none" stroke-opacity="" data-original="#000000"></path><path d="M0 0h.057" style="stroke-width:20;stroke-linecap:round;stroke-linejoin:round;stroke-miterlimit:10;stroke-dasharray:none;stroke-opacity:1" transform="translate(206.58 141.431)" fill="none" stroke="#000000" stroke-width="20" stroke-linecap="round" stroke-linejoin="round" stroke-miterlimit="10" stroke-dasharray="none" stroke-opacity="" data-original="#000000"></path><path d="M0 0h.057" style="stroke-width:20;stroke-linecap:round;stroke-linejoin:round;stroke-miterlimit:10;stroke-dasharray:none;stroke-opacity:1" transform="translate(170.38 131.8)" fill="none" stroke="#000000" stroke-width="20" stroke-linecap="round" stroke-linejoin="round" stroke-miterlimit="10" stroke-dasharray="none" stroke-opacity="" data-original="#000000"></path><path d="M0 0h.028" style="stroke-width:20;stroke-linecap:round;stroke-linejoin:round;stroke-miterlimit:10;stroke-dasharray:none;stroke-opacity:1" transform="translate(152.495 97.24)" fill="none" stroke="#000000" stroke-width="20" stroke-linecap="round" stroke-linejoin="round" stroke-miterlimit="10" stroke-dasharray="none" stroke-opacity="" data-original="#000000"></path><path d="M0 0c0 82.8 34.101 79.004 57.939 152.145 6.038 18.526 6.236 40.649 30.869 41.159.85.029 1.729.029 2.665-.028H149.1c.907.057 1.814.057 2.664.028 24.632-.51 24.831-22.633 30.869-41.159 20.211-62.008 47.791-68.722 55.727-119.767 1.418-9.178 2.211-19.773 2.211-32.378 0-7.903-.764-15.608-2.211-23.086-10.771-55.352-59.554-97.134-118.089-97.134C53.857-120.22 0-66.399 0 0Z" style="stroke-width:20;stroke-linecap:round;stroke-linejoin:round;stroke-miterlimit:10;stroke-dasharray:none;stroke-opacity:1" transform="translate(10 137.72)" fill="none" stroke="#000000" stroke-width="20" stroke-linecap="round" stroke-linejoin="round" stroke-miterlimit="10" stroke-dasharray="none" stroke-opacity="" data-original="#000000"></path></g></g></svg>