<svg xmlns="http://www.w3.org/2000/svg" version="1.1" xmlns:xlink="http://www.w3.org/1999/xlink" xmlns:svgjs="http://svgjs.com/svgjs" width="512" height="512" x="0" y="0" viewBox="0 0 512.001 512" style="enable-background:new 0 0 512 512" xml:space="preserve"><g><path fill="#3691bb" d="M13.492 280.035a246.947 246.947 0 0 1-2.488-36.476C11.785 108.82 122.364-.59 257.102.004 391.906.598 501 110.059 501 245c0 11.75-.828 23.309-2.43 34.613-1.164 8.23-8.23 14.332-16.539 14.332H29.59c-8.074.004-14.953-5.918-16.098-13.91zm0 0" data-original="#3691bb"></path><path fill="#f1ca50" d="m500.285 259.504-48.883 48.883S250 314.523 250 309c0 0-38.734-61.875-40.297-67.172L161.605 78.773c-1.562-5.296 1.465-10.855 6.762-12.421l19.184-5.657c21.191-6.25 43.433 5.86 49.683 27.047l13.813 46.828c1.637-3.297 5.027-5.57 8.953-5.57h20c7.29 0 14.117 1.96 20 5.367V109c0-5.523 4.477-10 10-10h20c12.164 0 23.05 5.437 30.387 14.004l44.73-78.934c2.723-4.804 8.824-6.492 13.63-3.77l17.398 9.86c19.222 10.895 25.972 35.305 15.082 54.524l-35.903 63.355C424.281 165.375 430 176.52 430 189v41.793l42-42c3.906-3.906 10.238-3.906 14.145 0l14.14 14.14c15.621 15.622 15.621 40.95 0 56.57zm0 0" data-original="#f1ca50"></path><path fill="#fdf385" d="m500.285 259.504-77.781 77.781C406.883 352.906 380 309.078 380 309.078V159c0-3.121 1.438-5.898 3.676-7.734.304-.246.492-.606.492-.996 0-.7-.57-1.27-1.27-1.27H370c-5.523 0-10 4.477-10 10v116.445c-7.328 8.309-40 9.078-40 3.555V109c0-5.523 4.523-10.004 10.05-10 19.977.023 36.52 14.695 39.477 33.852.184 1.191 1.758 1.488 2.352.441l50.637-89.36c2.746-4.843 8.902-6.468 13.738-3.706 19.137 10.921 25.844 35.273 14.973 54.457l-35.903 63.359-.086-.07C424.246 165.309 430 176.48 430 189v65.25c0 1.781 2.156 2.672 3.414 1.414l52.73-52.73c3.938-3.934 10.305-3.86 14.231.09 15.531 15.628 15.504 40.886-.09 56.48zM187.551 60.695c-5.297 1.563-8.324 7.121-6.762 12.418l48.098 163.055c1.562 5.297 18.43 4.582 21.113 3.031V139c0-1.594.383-3.094 1.047-4.43l-13.813-46.828c-6.25-21.187-28.492-33.297-49.683-27.047zM270 139v153c0 5.523 30-7.477 30-13V134.367A39.788 39.788 0 0 0 280 129c-5.523 0-10 4.477-10 10zm0 0" data-original="#fdf385"></path><path fill="#f19b0b" d="M277.738 312.89c-21.48 21.481-56.304 21.481-77.785 0l-16.176-16.175c-.644 13.156-5.992 26.129-16.039 36.176-21.48 21.48-56.304 21.48-77.785 0l-63.637-63.637a55.22 55.22 0 0 1-7.546-9.426 14.913 14.913 0 0 1-7.305-4.012c-4.895-4.894-5.684-12.324-2.399-18.05a14.954 14.954 0 0 1-4.671-3.16c-5.86-5.86-5.86-15.356 0-21.215 2.804-2.805 6.44-4.25 10.117-4.371a54.87 54.87 0 0 1 11.8-17.547 54.993 54.993 0 0 1 13.243-9.778l-7.086-7.082a55.195 55.195 0 0 1-7.543-9.425 14.913 14.913 0 0 1-7.305-4.012c-4.894-4.895-5.684-12.32-2.398-18.051a14.954 14.954 0 0 1-4.672-3.16c-5.86-5.86-5.86-15.356 0-21.215 2.804-2.805 6.441-4.25 10.117-4.367a54.78 54.78 0 0 1 11.8-17.551c21.481-21.48 56.305-21.48 77.782 0l58.883 58.879c16.023-1.77 32.676 3.476 44.965 15.762l63.64 63.64c21.477 21.477 21.477 56.301 0 77.778zm0 0" data-original="#f19b0b"></path><path fill="#f5c02c" d="m277.738 235.11-25.64-25.637c2.109-5.383.996-11.735-3.352-16.082s-10.7-5.461-16.082-3.356l-7.996-7.992c3.219-3.93 2.996-9.734-.672-13.398a9.945 9.945 0 0 0-6.496-2.903 14.933 14.933 0 0 0-4.11-7.707c-5.859-5.855-15.355-5.855-21.214 0 0 .004-.004.008-.004.008-11.461-4.375-23.414-2.293-23.04-2.332l-20.878-20.879c2.11-5.383.996-11.734-3.352-16.082s-10.699-5.46-16.082-3.355l-7.996-7.993c3.219-3.93 2.996-9.734-.672-13.398a9.918 9.918 0 0 0-6.496-2.902c-.933-4.754-4.172-9.141-9.738-11.356-5.422-2.16-11.625-.64-15.586 3.649l-.004.007a11.417 11.417 0 0 0-.39-.125c-25.32-7.972-49.422 16.13-41.446 41.45a54.525 54.525 0 0 0 4.57 10.507c-3.851 5.825-3.214 13.743 1.915 18.871 4.617 4.618 11.488 5.579 17.062 2.918l13.746 13.747c1.742 1.746 2.707 7.722-5.351 6.875-27.79-2.926-47.329 27.136-33.868 51.625.11.203.223.406.34.605-3.855 5.824-3.215 13.742 1.914 18.871 4.614 4.613 11.485 5.578 17.059 2.918l53.652 53.649c16.621 16.625 41.23 20.37 61.469 11.265a55.071 55.071 0 0 0 4.77-19.871l-16.028-16.031c-5.722 3.246-13.117 2.441-17.992-2.434-4.879-4.879-5.68-12.27-2.438-17.992l-11-11a55.018 55.018 0 0 1-7.542-9.422 14.913 14.913 0 0 1-7.305-4.012c-4.895-4.894-5.684-12.324-2.399-18.054a14.94 14.94 0 0 1-6.738-5.739c-3.367-5.257-3.055-12.214.762-17.156a14.946 14.946 0 0 1 11.422-5.847 54.844 54.844 0 0 1 11.8-17.551 54.863 54.863 0 0 1 6.797-5.778c3.008-2.16 7.07.606 6.207 4.204-3.214 13.378-1.351 27.726 5.59 39.98-3.855 5.82-3.215 13.738 1.914 18.867 4.614 4.617 11.485 5.578 17.059 2.918l53.652 53.653c16.621 16.62 41.23 20.367 61.469 11.261 9.105-20.23 5.36-44.844-11.262-61.465zm0 0" data-original="#f5c02c"></path><path fill="#f7e6b0" d="M498.656 279C482.106 398.215 379.773 490 256 490c-123.77 0-226.078-91.785-242.633-211zm0 0" data-original="#f7e6b0"></path><path fill="#f9d19a" d="M220.05 487.371C112.868 471.617 28.267 386.461 13.345 279h75.734c11.172 80.465 61.418 148.414 130.953 184.094 5.797 2.976 4.996 25.008.02 24.277zm0 0" data-original="#f9d19a"></path><path fill="#ea5569" d="M415 339c0 61.164-49.914 110.668-111.234 109.992-58.868-.644-107.215-48.258-108.727-107.11-.101-3.925.004-7.8.305-11.624.96-12.145 11.277-21.278 23.46-21.258H219c48.191 0 89.133-30.988 104.008-74.125.832-2.402 3.312-3.84 5.797-3.29C378.113 242.462 415 286.423 415 339zm0 0" data-original="#ea5569"></path><path fill="#e43950" d="M195.344 330.258c.96-12.145 11.277-21.278 23.46-21.258H219c3.883 0 7.707-.2 11.484-.59a25.805 25.805 0 0 0-1.093 5.656c-.34 4.344-.461 8.75-.348 13.207a123.69 123.69 0 0 0 8.375 41.73h-38.234c-5.184-8.753-4.141-34.921-3.84-38.745zm0 0" data-original="#e43950"></path><path fill="#88b9d3" d="M220 487.379V457l-40-98h250l-36.14 88.55C354.581 474.337 307.124 490 256 490c-12.23 0-24.246-.89-36-2.621zm0 0" data-original="#88b9d3"></path><path fill="#75ccd4" d="M269 379h-79c-11.043 0-20-8.953-20-20 0-11.043 8.957-20 20-20h79c11.047 0 20 8.957 20 20 0 11.047-8.953 20-20 20zm0 0" data-original="#75ccd4"></path><path fill="#b3d1e1" d="M263.883 409h145.71l-15.741 38.566c-32.649 22.266-70.954 36.836-112.325 41.122l-26.902-65.907c-2.684-6.578 2.156-13.781 9.258-13.781zm0 0" data-original="#b3d1e1"></path><path fill="#a7dde2" d="M420 379H239c-11.043 0-20-8.953-20-20 0-11.043 8.957-20 20-20h181c11.047 0 20 8.957 20 20 0 11.047-8.953 20-20 20zm0 0" data-original="#a7dde2"></path></g></svg>