<svg xmlns="http://www.w3.org/2000/svg" version="1.1" xmlns:xlink="http://www.w3.org/1999/xlink" xmlns:svgjs="http://svgjs.com/svgjs" width="512" height="512" x="0" y="0" viewBox="0 0 512 512" style="enable-background:new 0 0 512 512" xml:space="preserve"><g><linearGradient id="a" x1="256" x2="256" y1="33.143" y2="478.857" gradientUnits="userSpaceOnUse"><stop offset="0" stop-color="#faac1e"></stop><stop offset="1" stop-color="#eb1b45"></stop></linearGradient><path fill="url(#a)" d="M508.37 340.653 500.412 316a35.794 35.794 0 0 0-14.812-19.226 40.16 40.16 0 0 0-1.787-72.486 27.688 27.688 0 0 0 9.938-21.252v-14.629c0-48.315-26.019-88.785-75.245-117.035C375.546 46.72 317.834 33.143 256 33.143S136.454 46.72 93.5 71.372c-49.226 28.25-75.246 68.72-75.246 117.035v14.629a27.689 27.689 0 0 0 9.939 21.252 40.161 40.161 0 0 0-1.793 72.487A35.791 35.791 0 0 0 11.588 316L3.63 340.653A18.682 18.682 0 0 0 5.068 355.4a18.463 18.463 0 0 0 11.6 8.931c.537.134 1.057.283 1.576.434v34.6a79.58 79.58 0 0 0 79.49 79.489h316.527a79.579 79.579 0 0 0 79.489-79.489v-34.6c.519-.15 1.039-.3 1.576-.434a18.463 18.463 0 0 0 11.606-8.93 18.682 18.682 0 0 0 1.438-14.748zM28.249 188.407c0-56.254 38.188-89.977 70.224-108.361 41.467-23.8 97.412-36.9 157.527-36.9s116.059 13.1 157.527 36.9c32.036 18.384 70.223 52.107 70.223 108.361v14.629a17.757 17.757 0 0 1-17.736 17.737H45.986a17.757 17.757 0 0 1-17.737-17.737zm-13.843 72.552a30.22 30.22 0 0 1 30.186-30.186v-.036c.462.023.927.036 1.394.036h420.028c.467 0 .932-.013 1.394-.036v.036a30.187 30.187 0 0 1 0 60.373v.022c-.376-.011-.752-.022-1.131-.022H45.723c-.378 0-.755.011-1.131.022v-.022a30.221 30.221 0 0 1-30.186-30.187zM483.75 399.368a69.568 69.568 0 0 1-69.489 69.489H97.739a69.568 69.568 0 0 1-69.49-69.489V369.06c5.1 2.948 9.458 6.654 13.962 10.493 10.525 8.972 22.454 19.141 45.349 19.141s34.824-10.169 45.35-19.141c10.106-8.614 19.651-16.751 38.862-16.751s28.758 8.137 38.864 16.751c10.526 8.972 22.456 19.141 45.352 19.141s34.825-10.169 45.35-19.141c10.106-8.614 19.652-16.753 38.862-16.753s28.761 8.137 38.869 16.751c10.527 8.972 22.458 19.141 45.356 19.141s34.829-10.168 45.356-19.141c4.506-3.84 8.869-7.547 13.968-10.5zm14.437-48.818a8.31 8.31 0 0 1-5.292 4.081c-13.155 3.3-21.515 10.421-29.6 17.312-10.108 8.614-19.654 16.751-38.869 16.751s-28.762-8.137-38.869-16.751C375.03 362.971 363.1 352.8 340.2 352.8s-34.825 10.169-45.35 19.141c-10.106 8.614-19.652 16.751-38.863 16.751s-28.758-8.137-38.865-16.751c-10.522-8.97-22.455-19.141-45.35-19.141s-34.824 10.169-45.35 19.141c-10.106 8.614-19.651 16.751-38.862 16.751s-28.76-8.135-38.86-16.749c-8.083-6.89-16.441-14.015-29.593-17.311a8.316 8.316 0 0 1-5.293-4.082 8.532 8.532 0 0 1-.665-6.825l7.958-24.656a25.8 25.8 0 0 1 24.618-17.923h420.552a25.8 25.8 0 0 1 24.623 17.923l7.958 24.656a8.528 8.528 0 0 1-.671 6.825zM237.026 66.8a5 5 0 0 1 5-5h27.948a5 5 0 0 1 0 10h-27.948a5 5 0 0 1-5-5zm0 35.746a5 5 0 0 1 5-5h27.948a5 5 0 0 1 0 10h-27.948a5 5 0 0 1-5-5.001zm135.836 0a5 5 0 0 1 5-5h27.947a5 5 0 0 1 0 10h-27.947a5 5 0 0 1-5-5.001zm-271.671 0a5 5 0 0 1 5-5h27.947a5 5 0 0 1 0 10h-27.947a5 5 0 0 1-5-5.001zM301.37 84.672a5 5 0 0 1 5-5h27.946a5 5 0 0 1 0 10H306.37a5 5 0 0 1-5-5zm0 35.746a5 5 0 0 1 5-5h27.946a5 5 0 0 1 0 10H306.37a5 5 0 0 1-5-5zM172.684 84.672a5 5 0 0 1 5-5h27.946a5 5 0 0 1 0 10h-27.946a5 5 0 0 1-5-5zm0 35.746a5 5 0 0 1 5-5h27.946a5 5 0 0 1 0 10h-27.946a5 5 0 0 1-5-5z" data-original="url(#a)"></path></g></svg>