<svg xmlns="http://www.w3.org/2000/svg" version="1.1" xmlns:xlink="http://www.w3.org/1999/xlink" xmlns:svgjs="http://svgjs.com/svgjs" width="512" height="512" x="0" y="0" viewBox="0 0 1707 1707" style="enable-background:new 0 0 512 512" xml:space="preserve"><g><linearGradient id="a" x1="853.327" x2="853.327" y1=".65" y2="1706.01" gradientUnits="userSpaceOnUse"><stop offset="0" stop-color="#66c"></stop><stop offset=".51" stop-color="#f0f"></stop><stop offset="1" stop-color="#f60"></stop></linearGradient><path fill="url(#a)" d="M1185 1706H522c-12 0-22-9-23-21L405 671h-45c-13 0-23-11-23-23V496c0-13 10-23 23-23h116v-71c0-12 9-21 20-22l265-22-62-230-146-85c-11-6-15-20-9-31 7-11 20-15 31-8l155 89c5 3 9 8 11 14l66 247 401-33c6-1 13 1 17 6 5 4 8 10 8 16v130h114c13 0 23 10 23 23v152c0 12-10 23-23 23h-45l-33 351v1l-62 662c-1 12-11 21-22 21zm-575-174c-39 0-71-32-71-71s32-70 71-70 71 31 71 70-32 71-71 71zm0-96c-14 0-25 11-25 25s11 25 25 25 25-11 25-25-11-25-25-25zm366 221c-39 0-71-32-71-71 0-38 32-70 71-70s71 32 71 70c0 39-32 71-71 71zm0-96c-14 0-25 12-25 25 0 14 11 26 25 26s25-12 25-26c0-13-11-25-25-25zm-133-398c-39 0-70-31-70-70s31-71 70-71 71 32 71 71-32 70-71 70zm0-96c-14 0-25 12-25 26s11 25 25 25 26-11 26-25-12-26-26-26zm-184 12c-39 0-71-32-71-71 0-38 32-70 71-70s71 32 71 70c0 39-32 71-71 71zm0-96c-14 0-25 12-25 25 0 14 11 26 25 26s25-12 25-26c0-13-11-25-25-25zm136 642c-6 0-12-3-16-7l-84-84c-9-9-9-23 0-32l84-84c9-9 24-9 32 0l84 84c9 9 9 23 0 32l-84 84c-4 4-10 7-16 7zm-52-107 52 52 52-52-52-52zm246-15c-6 0-12-2-16-6l-134-134c-9-9-9-23 0-32l134-134c4-4 10-7 16-7s12 3 16 7l134 134c9 9 9 23 0 32l-134 134c-4 4-10 6-16 6zm-102-156 102 102 102-102-102-102zm-190 63c-6 0-12-2-16-7l-134-133c-9-9-9-24 0-32l134-134c8-9 23-9 32 0l133 134c9 8 9 23 0 32l-133 133c-5 5-11 7-16 7zm-102-156 102 101 101-101-101-102zm400-89c-10 0-20-6-22-16l-56-208c-156-70-322-53-443-22l69 742h621l58-619c-92-7-176-31-250-72l45 167c3 12-4 24-16 28h-6zm-93-279-57-215H451l18 202c120-30 279-46 433 13zm-70-261-28-107H382v107zm-40-152-19-71-252 21v50zm27-75 20 75h348V368zm32 120 28 107h445V518h-114zm41 153 64 238c10 5 20 11 30 17 71 41 152 64 240 71l30-326z" data-original="url(#a)"></path></g></svg>