<svg xmlns="http://www.w3.org/2000/svg" version="1.1" xmlns:xlink="http://www.w3.org/1999/xlink" xmlns:svgjs="http://svgjs.com/svgjs" width="512" height="512" x="0" y="0" viewBox="0 0 64 64" style="enable-background:new 0 0 512 512" xml:space="preserve"><g><path d="M59.352 14.766a8.93 8.93 0 0 0-6.467-3.71 6.835 6.835 0 0 0-6.208-8.026l-.102-.009a6.85 6.85 0 0 0-5.654 2.259 7.97 7.97 0 0 0-1.394-.255A8.177 8.177 0 0 0 31.087 11a29.136 29.136 0 0 1-20.085 20.087 8.161 8.161 0 0 0-5.978 8.44 7.973 7.973 0 0 0 .256 1.394 6.85 6.85 0 0 0-2.259 5.65l.01.121a6.811 6.811 0 0 0 8.025 6.192 8.929 8.929 0 0 0 3.71 6.467 8.75 8.75 0 0 0 7.295 1.368 53.836 53.836 0 0 0 38.66-38.658 8.768 8.768 0 0 0-1.369-7.296zM11.541 33.014A31.148 31.148 0 0 0 33.014 11.54 6.149 6.149 0 0 1 39.37 7.02c.134.01.268.04.401.06a6.612 6.612 0 0 0-.407 1.288A39.674 39.674 0 0 1 8.366 39.365a6.59 6.59 0 0 0-1.287.407c-.02-.133-.05-.268-.06-.4a6.157 6.157 0 0 1 4.522-6.358zm27.27-10.892c-.522.907-1.292.997-2.608 1.077-.269.017-.554.037-.842.068a41.608 41.608 0 0 0 2.578-4.58c.12.24.244.472.365.69.634 1.154.97 1.853.507 2.745zm-7.127 9.515c-.746.713-1.504.584-2.783.293-.28-.064-.576-.13-.882-.183a41.65 41.65 0 0 0 3.741-3.742c.053.307.12.604.183.883.292 1.277.422 2.035-.26 2.749zM23.28 35.35c-.032.29-.052.575-.068.844-.08 1.316-.17 2.085-1.038 2.588-.932.484-1.63.149-2.784-.486-.219-.12-.451-.245-.69-.364a41.615 41.615 0 0 0 4.58-2.582zM10.836 50.898a4.848 4.848 0 0 1-5.812-4.358l-.008-.121a4.78 4.78 0 0 1 3.75-5.094 41.906 41.906 0 0 0 4.085-1.076 24.72 24.72 0 0 0-.212.545c-.475 1.256-.795 1.979-1.87 2.233A1 1 0 0 0 11 45a1.017 1.017 0 0 0 .231-.027c2.162-.512 2.808-2.223 3.28-3.472.419-1.11.693-1.751 1.502-2.034.752-.3 1.375.011 2.416.583 1.158.637 2.745 1.509 4.709.486 1.882-1.086 1.992-2.897 2.072-4.22.071-1.172.143-1.857.812-2.339.614-.483 1.293-.358 2.436-.097 1.29.293 3.054.694 4.642-.83 1.492-1.559 1.088-3.321.794-4.608-.262-1.144-.387-1.821.12-2.469.455-.634 1.14-.706 2.312-.778 1.323-.08 3.134-.192 4.24-2.112 1.001-1.926.128-3.512-.51-4.67-.573-1.041-.881-1.666-.568-2.457.266-.763.905-1.037 2.015-1.454 1.249-.47 2.96-1.114 3.47-3.272a1 1 0 1 0-1.945-.461c-.254 1.07-.975 1.39-2.23 1.861-.176.067-.36.138-.545.213a41.936 41.936 0 0 0 1.072-4.077 4.77 4.77 0 0 1 5.086-3.752l.127.01a4.846 4.846 0 0 1 4.361 5.812c-.016.08-.035.158-.053.236a9.073 9.073 0 0 0-7.59 6.723 35.937 35.937 0 0 1-25.462 25.46 9.056 9.056 0 0 0-6.708 7.588c-.083.018-.165.038-.25.055zm47.948-29.336a51.836 51.836 0 0 1-37.223 37.222 6.754 6.754 0 0 1-5.632-1.06 6.936 6.936 0 0 1-2.895-5.113l-.013-.16a7.013 7.013 0 0 1 5.287-7.262A37.941 37.941 0 0 0 45.19 18.308a7 7 0 0 1 7.26-5.286l.161.012a6.938 6.938 0 0 1 5.113 2.894 6.772 6.772 0 0 1 1.06 5.634z" fill="#000000" data-original="#000000"></path></g></svg>