<svg xmlns="http://www.w3.org/2000/svg" version="1.1" xmlns:xlink="http://www.w3.org/1999/xlink" xmlns:svgjs="http://svgjs.com/svgjs" width="512" height="512" x="0" y="0" viewBox="0 0 512 512" style="enable-background:new 0 0 512 512" xml:space="preserve"><g><path d="M16.388 319.164c-2.971-4.73-3.255-11.356-4.782-16.767-2.476-8.774-5.816-17.069-6.634-26.208-1.669-18.638 1.786-37.78 6.766-55.744 4.185-15.097 9.502-33.695 18.687-46.431 10.307-14.29 23.356-22.167 39.354-29.122 45.532-19.794 89.981-43.266 134.591-65.206 40.108-19.725 83.069-32.362 125.791-45.127 15.435-4.611 37.449-12.604 53.626-9.272-2.224 4.894-12.312 9.559-16.666 13.015-6.016 4.774-9.03 9.266-13.725 15.006-9.787 11.965-19.632 25.026-26.765 38.699-6.861 13.151-13.836 26.082-18.401 40.243-7.286 22.604-10.455 42.421-4.07 65.332 8.264 29.653 34.457 58.868 68.157 43.471 15.598-7.127 22.782-24.323 37.247-33.154 4.745-2.897 12.998-6.502 18.815-5.977 9.539.862 17.505 13.812 23.271 20.041 8.745 9.448 18.951 22.22 25.343 33.347 3.045 5.303 6.411 10.343 9.55 15.569 6.816 11.348 13.195 25.232 16.504 38.021 3.733 14.428 3.288 29.049-1.948 43.168-5.72 15.425-13.005 22.372-27.37 29.932-12.975 6.828-26.562 12.373-39.872 18.442-17.197 7.842-33.746 17.163-51.326 24.177-23.533 9.389-46.548 19.846-70.24 28.773-17.706 6.671-35.189 15.947-53.46 20.945-11.894 3.253-8.945-1.923-5.023-9.645 4.183-8.237 7.778-16.058 10.187-25.022 5.81-21.621 12.153-38.378 5.561-60.662-5.131-17.346-15.655-32.826-27.392-45.939-20.848-23.292-45.229-37.289-75.445-44.363-17.598-4.12-36.264-2.595-53.199 2.021-11.887 3.24-22.078 7.612-32.246 14.699-10.129 7.06-12.14 14.728-15.1 26.153-1.511 5.833-.402 12.903-6.528 14.081-4.605.885-14.567-3.511-18.604-5.318-9.72-4.349-18.703-13.892-24.654-21.178z" style="" fill="#ffe18d" data-original="#ffe18d"></path><path d="M504.769 313.224c-4.063-6.449-9.735-6.548-16.265-3.861-6.395 2.632-12.265 6.806-18.415 9.985-11.422 5.904-24.033 9.934-36.192 14.019a386.641 386.641 0 0 1-19.689 6.028c-3.266-6.31-7.586-12.337-12.362-18.403-12.989-16.495-30.041-29.757-48.964-38.797a234.374 234.374 0 0 0-30.658-12.069c11.581.549 23.165.454 34.609-1.334 32.012-5.001 58.504-28.183 66.902-59.473 2.604-9.703-11.576-13.35-14.874-4.1-3.575 10.029-8.876 18.625-15.475 25.75a3.409 3.409 0 0 0-2.758.95c-7.618 7.361-16.857 12.102-26.357 16.701-16.235 7.86-30.122 4.846-47.188 2.506-6.129-.84-12.738-1.784-19.563-2.538 13.711-.707 27.749-.994 41.259-.749-10.59-8.395-24.27-17.205-33.879-28.12-4.687-5.324-9.454-12.24-11.138-19.241-.261-1.084-.436-2.187-.577-3.298 1.85-.291 3.454-1.46 3.823-3.709 1.194-7.273.12-14.299.238-21.612.136-8.434 1.671-16.738 3.839-24.867 2.136-8.007 5.026-15.752 8.322-23.332.182-.114.366-.216.547-.339 3.003-2.045 3.823-5.074 3.126-7.698 2.322-4.898 4.753-9.746 7.222-14.56 14.375-28.017 31.605-58.203 59.134-75.033 1.491-.912.843-3.18-.877-3.238-14.17-.48-26.088 12.858-34.73 22.617-12.947 14.619-23.685 31.069-34.008 47.597a247.873 247.873 0 0 0-9.9 17.326c-7.421-1.356-14.939-8.188-19.465-13.03-9.143-9.782-12.61-21.131-19.21-32.262-1.324-2.233-5.145-2.572-6.378 0-7.105 14.822 6.814 34.467 16.796 44.787 5.089 5.261 13.165 12.016 21.514 14.882-2.516 5.979-4.732 12.078-6.529 18.303a170.718 170.718 0 0 0-1.967 7.444c-18.206-6.345-56.811 24.045-66.704 30.998-17.73 12.462-35.338 25.077-53.221 37.312-1.569-2.273-3.251-4.485-4.92-6.93-4.219-6.182-5.409-11.707-5.609-19.195-.402-15.013 1.857-29.245 7.104-43.332 4.835-12.981 12.601-24.291 21.187-35.057 6.005-7.531 15.693-17.95 15.431-28.148-.024-.931-.921-1.694-1.856-1.414-11.854 3.54-23.16 18.617-30.928 27.78-9.966 11.754-17.174 24.375-22.166 38.998-5.161 15.122-7.44 31.896-6.235 47.876.049.656.131 1.293.208 1.933-21.018-16.396-40.551-32.756-55.013-55.544-1.987-3.131-7.258-2.008-7.186 1.947.54 29.631 32.878 50.95 53.487 67.106 6.478 5.079 13.362 10.128 20.585 14.721-13.846 9.021-30.21 18.035-46.587 15.17-13.583-2.376-26.352-13.864-36.278-22.977-11.24-10.319-16.822-21.53-19.101-36.514-.692-4.553.211-16.011-6.464-17.326-5.458-1.074-14.009 13.74-12.767 14.249-11.595 13.761-13.654 30.283-17.695 47.126-3.662 15.263-5.232 31.214-2.313 46.695 4.504 23.888 9.245 51.165 32.57 62.581 8.045 3.937 15.839 4.9 24.415 5.711 1.19-10.576 2.78-21.752 9.323-30.453 11.731-15.602 32.074-23.237 49.567-30.251 12.891-5.169 26.705-7.853 40.036-11.574 16.31-4.553 33.303-9.692 50.012-12.342 7.15-1.134 14.381-2.346 21.646-3.542-.194.113-.392.216-.584.332-1.283.772-1.949 1.814-2.134 2.899l-2.285.367c-2.554.407-2.528 4.701 0 5.132 3.23.551 6.482.952 9.748 1.262 33.75 6.632 69.048 12.846 100.169 27.932 16.83 8.159 32.087 18.72 44.327 32.983 4.343 5.061 8.87 10.84 12.561 16.768-26.902 6.052-54.179 8.827-82.346 7.815-13.638-.49-28.615-.801-42.04-3.203-7.202-1.289-13.967-4.646-21.186-5.346 4.896 8.662 9.5 19.315 12.762 28.522 3.792 10.706 9.05 23.395 9.1 34.809.061 13.857-3.143 25.729-8.364 38.424-3.491 8.489-14.945 21-13.444 30.581 9.322-.329 19.918-5.3 28.577-8.653 11.289-4.371 22.444-9.261 33.395-14.274 22.191-10.16 45.097-17.601 67.711-26.785 21.623-8.782 43.146-17.696 64.675-26.875 13.802-5.885 31.736-11.001 42.476-21.834 7.42-7.485 12.662-17.933 15.705-28 2.778-9.217 6.305-26.853.736-35.692z" style="" fill="#f9cd75" data-original="#f9cd75"></path><path d="M258.123 442.076c-2.502-3.37-6.494-4.851-10.565-3.675-4.169 1.204-7.419 8.593-9.692 3.171-1.607-3.833-5.168-6.843-9.655-5.482-3.674 1.115-13.439 9.79-16.065 8.641-1.586-.694-3.423-5.706-4.661-7.082-1.693-1.879-3.607-3.296-6.071-4.02-7.82-2.298-11.859 4.358-18.64 5.848-3.915.86-8.117-3.21-11.738-4.789a48.787 48.787 0 0 0-8.925-2.895c-.055-4.182-.357-8.46-2.532-12.119-2.588-4.352-7.123-6.283-12.034-6.308-2.612-.013-5.202.475-7.785.791-.499.061-1 .104-1.499.161-.358-1.116-.644-2.391-.859-3.934-.74-5.32-1.109-10.475-3.083-15.533-1.531-3.923-6.046-6.741-10.124-4.119-2.603 1.674-11.653 12.307-11.606 12.318-.83-.196-2.476-5.355-3.126-6.277-1.886-2.677-3.957-4.123-7.068-5.171-4.003-1.349-7.682 1.588-9.019 5.121-2.981 7.878-3.939 16.516-3.217 24.896a7.056 7.056 0 0 0 .842 2.819c1.59 11.054 18.012 22.205 26.485 26.611.302.157.606.311.908.469.069.124.113.25.19.373 7.471 11.769 21.114 19.869 35.414 22.369 6.305 3.532 13.31 5.945 20.538 7.686 14.66 3.531 31.328 6.055 46.086 1.996 2.642.102 5.305-.028 7.995-.495 9.969-1.732 18.611-8.79 24.918-16.428 5.384-6.523 10.466-17.026 4.588-24.943zM416.096 167.054c-5.39-.876-10.114-.79-14.913 2.12-2.983 1.809-5.132 4.762-7.518 7.312-4.981-1.072-10.359-2.412-15.231-.761-1.702.577-2.971 1.648-3.783 2.946-4.207-.336-7.924.657-11.254 3.483-1.871 1.588-3.259 4.44-4.649 7.19a56.01 56.01 0 0 0-6.749 4.837 97.012 97.012 0 0 1-2.886 2.32c-4.317-.53-9.763-2.461-13.317-1.58-8.059 1.999-13.045 8.678-15.16 16.253-.642.818-1.045 1.893-1.032 3.248-.056 1.147-.063 2.296-.088 3.444a32.728 32.728 0 0 0-.063 2.441 5.354 5.354 0 0 0 .475 2.317c.134 1.028.317 2.053.601 3.071.553 1.982 2.02 2.994 3.61 3.199.443 6.042 3.651 10.922 11.483 10.658 1.939 2.104 4.947 3.568 9.358 4.036 2.911.309 5.723-.192 8.414-1.277.342.132.664.275 1.032.391 5.438 1.719 10.588.206 15.308-3.126 3.755.55 8.084-.345 11.621-2.171 13.895-7.171 26.892-25.148 30.794-42.104 2.487-4.459 4.316-8.929 5.239-13.093a9.05 9.05 0 0 0 .178-2.601 22.652 22.652 0 0 0 1.525-1.205c3.638-3.155 1.955-10.543-2.995-11.348z" style="" fill="#ad514a" data-original="#ad514a"></path><path d="M235.001 463.111c-9.559-3.05-18.762-7.619-28.279-10.927-10.059-3.496-20.357-5.664-30.506-8.759-16.511-5.036-37.481-18.465-55.076-12.568-2.826.947-4.466 4-4.058 6.697a357.719 357.719 0 0 1-11.624-7.038c-3.11-1.97-7.01 2.848-4.015 5.203 33.749 26.543 75.12 57.36 120.95 46.489 4.878-1.157 5.271-9.384 0-10.265-20.439-3.418-40.737-5.515-60.298-12.8-9.831-3.661-19.585-8.027-29.095-12.879 4.172 1.232 8.385 2.378 12.452 3.944 9.215 3.547 18.387 7.328 27.974 9.789 19.459 4.995 39.545 8.244 59.35 11.181 5.208.77 7.487-6.388 2.225-8.067zM396.766 187.78c-12.203-.271-26.521 6.773-37.45 11.698-11.076 4.991-21.34 11.859-24.919 24.022-.324 1.102-.173 2.198.284 3.163-1.668.996-2.382 3.661-.917 5.536 12.038 15.408 35.252 8.377 49.907 1.371 5.106-2.441 2.428-10.34-2.796-10.323-12.385.04-26.608 9.121-38.644 5.507.145-.141.292-.275.427-.445 6.948-8.813 18.71-12.848 28.938-16.451 9.688-3.413 22.658-5.16 29.586-13.415 3.419-4.072 1.287-10.536-4.416-10.663z" style="" fill="#9c413e" data-original="#9c413e"></path><path d="M268.43 392.858c-.817-2.103-1.715-4.077-2.648-6.002-8.623-34.719-24.818-64.535-58.492-81.965-19.973-10.338-44.097-15.733-66.583-12.868-18.696-7.609-50.3 10.514-55.478 28.998-3.64 12.991 7.047 20.816 18 24.428 9.894 3.263 21.91 3.934 31.294 8.704-.185 3.106 1.388 6.369 4.178 8.5 3.032 2.316 6.412 3.762 9.971 4.655 1.748.991 3.698 1.26 5.559.969 5.96.649 12.17.261 17.952.091 1.357-.04 2.995-.166 4.713-.257 3.67 9.7 7.515 18.814 14.347 26.773 3.137 3.655 9.116 3.036 12.343 0-1.7 1.599-.506.2 1.531.778 1.568.445 3.396.584 5.01.89 3.531.668 7.055 1.524 10.647 1.826 8.771.737 13.036.98 17.752 9.298 4.963 8.753 11.164 24.523 24.369 17.342 11.845-6.444 9.551-21.827 5.535-32.16zM432.834 83.282c-.728-14.31-2.495-30.601-11.226-42.544-13.053-17.854-34.923-11.657-50.55-.98-19.711 13.467-34.497 32.822-46.62 53.138-6.895 11.556-11.68 23.863-16.349 36.426-2.94 7.909-6.895 18.111-1.866 25.96.287.447.671.786 1.104 1.032 12.463 16.724 40.402-14.445 51.621-35.374a91.3 91.3 0 0 1 1.137-1.095c.037-.035.091-.091.133-.131.045.022.08.052.126.072 10.137 4.634 18.649 10.8 29.97 6.41 6.265-2.429 12.408-6.97 17.294-12.376 2.367-.392 4.584-1.491 6.569-3.066.789 6.477 10.293 11.41 15.855 5.637 7.435-7.714 3.298-23.36 2.802-33.109z" style="" fill="#5cbf4b" data-original="#5cbf4b"></path><path d="M398.675 105.641c-7.007 2.437-18.717 9.899-26.228 6.872-4.149-1.673-5.412-4.899-10.526-4.752-3.683.105-7.082 2.092-10.152 3.931-8.285 4.961-15.334 11.609-21.749 18.763-2.576 2.873-5.08 5.857-7.831 8.579.266-.874.514-1.622.742-2.097 1.333-2.785 2.881-5.456 4.298-8.197 3.646-7.051 6.571-14.47 10.017-21.625 5.552-11.526 11.766-22.989 19.48-33.226 5.432-6.191 11.27-11.97 17.335-17.727 1.006-.955 2.015-1.915 3.03-2.872.061-.059.129-.113.184-.174 3.627-3.412 7.362-6.748 11.542-9.437 5.046-3.247 10.198-4.071 13.726-9.071 1.77-2.509.367-6.085-1.987-7.58-10.819-6.867-25.335 7.304-32.976 14.21-11.564 10.45-22.279 21.294-31.434 33.947-8.822 12.193-17.058 25.333-23.004 39.177-3.167 7.373-6.541 16.173-7.345 24.803-1.833 4.399-2.908 9.074-1.571 13.379 7.463 24.035 36.069-10.052 42.163-16.77 2.99-3.295 10.933-13.217 15.964-13.596-1.264.095 1.35 1.547 2.573 2.271 1.815 1.074 4.029 1.711 6.083 2.145 10.919 2.305 23.965-2.792 32.689-9.04 5.559-3.982 2.482-14.524-5.023-11.913zM262.889 382.396c-3.855-13.156-9.032-26.179-16.131-37.94-13.957-23.121-35.557-37.357-59.247-49.415-15.477-7.878-29.916-7.218-46.744-5.642-11.464 1.074-22.85 1.214-32.204 8.719-2.205 1.769.248 4.826 2.536 4.357 12.039-2.467 26.066.022 38.403-.461 9.783-.383 18.874-.314 27.904 3.855 5.912 2.729 11.294 6.444 16.793 9.89 13.187 8.264 25.112 14.973 34.265 28.055 8.709 12.448 14.377 26.722 18.372 41.3 1.29 4.708 2.377 9.477 3.375 14.262a2.877 2.877 0 0 1-.209-.168c-8.074-7.554-14.99-17.701-26.35-20.5-5.554-1.369-14.598 2.21-19.412-.232-4.433-2.249-7.578-10.76-11.019-14.319-8.052-8.327-21.217-15.026-32.833-11.293-5.919 1.902-5.941 10.147 0 12.046 6.649 2.125 12.497 2.845 17.763 7.984 4.466 4.358 6.876 10.259 11.042 14.86 3.464 3.824 7.988 6.746 13.18 7.513 7.078 1.047 13.781-4.258 20.242-.36 9.8 5.912 14.494 17.872 24.477 23.903 7.533 4.552 18.916 5.495 21.738-4.909 2.45-9.025-3.447-22.993-5.941-31.505z" style="" fill="#38ad34" data-original="#38ad34"></path><path d="M423.324 115.994c-11.723 2.95-21.484 2.007-30.75 10.817-5.046 4.798-6.487 5.422-13.361 2.614-4.635-1.894-9.536-4.104-14.666-4.086-10.353.036-16.913 10.213-21.722 18.056-2.776 4.528-5.177 9.775-9.154 13.416-6.055 5.543-15.24 4.193-22.763 4.139a7.476 7.476 0 0 0-1.472.143c-.773-2.075-3.201-3.612-5.463-2.131-5.888 3.857-4.606 14.255-4.241 20.171.74 11.985 4.051 23.234 7.385 34.728 1.736 5.983 9.775 5.533 11.702 0 2.277-6.54 3.805-16.405 10.564-19.962 7.728-4.067 17.223 2.25 25.325-2.086 6.924-3.706 7.397-11.892 12.933-16.347 4.788-3.853 13.095 1.585 19.198.964 7.134-.725 9.738-5.165 14.781-9.29 6.037-4.938 13.177 1.85 19.928-2.895 4.872-3.424 6.233-9.903 7.145-15.407 1.441-8.701 2.776-17.841 2.773-26.64-.002-4.253-4.103-7.22-8.142-6.204zM263.684 424.368a10.118 10.118 0 0 1-2.473-.341 5.297 5.297 0 0 0-2.046-1.256c-7.093-2.34-13.809-3.716-19.488-8.899-4.536-4.14-7.481-10.154-13.38-12.579-7.388-3.038-14.872.422-22.476-.13-7.975-.578-13.733-3.864-17.12-11.177-2.546-5.498-4.058-11.338-9.394-14.929-5.943-4-13.169-2.951-19.903-2.894-3.298.028-7.106.158-10.752-.242-1.022-1.02-1.968-2.114-2.771-3.346-2.285-3.77-6.125-4.374-9.278-3.13-1.904-2.96-3.276-6.325-6.778-8.172-.153-.081-.306-.127-.459-.193-3.497-5.551-9.12-9.297-16.627-10.401-7.15-1.051-15.506-2.451-21.033-7.612-4.729-4.417-5.766-11.445-8.669-17.092 3.249-5.499 7.907-10.173 11.225-15.698.532-.887-.528-1.936-1.412-1.412-8.532 5.053-14.92 8.139-19.475 17.81-4.123 8.754-4.948 19.41-4.628 28.949.386 11.478 2.502 23.124 5.486 34.187 2.161 8.01 2.518 20.141 10.137 24.934.242.88.507 1.734.815 2.526 1.016 2.614 4.467 2.731 5.447 0 2.38-6.634-.497-15.794 4.114-21.583a6.776 6.776 0 0 1 1.599-1.459 8.29 8.29 0 0 0 .923-.497c5.116-2.055 11.407 5.494 17.203 5.866 7.831.502 13.378-4.882 16.392-11.604 13.561 5.042 3.715 28.602 21.551 28.563 2.208-.005 5.721-1.617 7.765-1.065 3.174.858 2.107 3.199 2.544 6.595.841 6.54 3.846 10.35 9.192 13.957 3.871 2.612 9.293 6.334 14.23 5.657 2.35-.322 3.133-1.598 4.972-2.72 2.449-1.495 7.131-4.704 10.309-3.718 1.016.315 2.288 2.578 3.018 3.344 3.996 4.196 8.591 7.857 14.756 6.206 7.104-1.902 11.305-11.345 17.271-2.512 1.7 2.517 5.45 4.146 8.249 2.163 3.472-2.46 6.9-7.123 11.601-6.771 2.972.223 6.007 2.51 9.363 2.731 7.693.508 7.816-12.002 0-12.056z" style="" fill="#eb3840" data-original="#eb3840"></path><path d="M257.552 426.493c-1.246.802-10.316-2.763-12.806-2.383-1.271.194-2.382.546-3.361 1.034-3.246-3.453-6.977-5.326-13.297-5.332-5.891-.005-10.421 1.497-14.188 4.536-2.891-2.169-6.682-3.472-10.813-4.48-8.564-2.091-14.516-1.382-20.622 2.852-2.194-.787-5.857-.375-7.371-1.519-3.228-2.438-2.575-9.951-5.014-13.477-2.409-3.481-5.961-5.456-10.146-5.906-2.259-.243-5.748 1.015-8.103.683a18.116 18.116 0 0 0-.086-.825c.137-1.236.324-2.463.561-3.683 1.208-9.702-.834-19.288-12.096-20.899-5.402-.772-10.831 1.044-15.743 3.118-1.6.676-3.243 1.735-4.892 2.594-2.554.231-5.748-1.111-7.126-2.227-.825-.669-1.333-1.946-2.054-2.752-1.499-1.677-3.065-3.118-5.162-3.979-3.035-1.246-6.175-1.081-9.094-.046-3.402-2.54-6.548-5.423-9.738-8.257a15.987 15.987 0 0 1-1.112-3.608c-.34-1.882-2.144-2.636-3.808-2.412-.348-3.474-.559-6.981-.568-10.568-.015-6.255-8.794-7.203-10.669-1.444-3.592 11.037-1.276 21.582 1.453 32.573 2.459 9.904 2.783 21.216 7.606 30.286 2.77 5.21 10.768 2.653 10.829-2.933.06-5.574 1.331-11.42 3.968-16.381.476-.896 1.229-2.353 2.162-3.633.957.226 1.931.37 2.912.464 1.527.914 3.094 1.721 4.683 2.475 3.893 3.865 8.613 6.285 14.375 4.801.195.043.383.096.579.137 1.862.388 3.194-.561 3.728-1.865 5.014-2.52 12.869-6.992 16.77-4.393 4.591 3.059.211 10.817.339 15.388.11 3.94 1.661 7.46 5.165 9.458 4.661 2.658 10.273-.969 14.278 1.251 3.333 1.848 2.273 10.466 5.048 14.168 1.559 2.08 3.387 3.316 5.713 4.324 1.095.474 6.064.762 6.556 1.572 2.349 3.869 7.545 4.45 10.799 1.392 4.171-3.919 5.831-6.298 11.88-5.391 1.988.298 7.69 1.452 7.779 3.585.263 6.312 8.2 8.331 11.634 3.151 2.532-3.819 4.639-5.609 9.263-6.243 5.152-.708 5.803 1.421 8.158 5.502 2.763 4.788 8.874 2.998 10.702-1.399.381-.915 7.83 2.197 9.021 2.427 3.084.595 5.394.439 8.215-.948 7.18-3.534.519-15.181-6.307-10.788zM420.602 150.327c-3.498-.004-6.656-2.966-10.17-3.433-2.987-.398-5.604.227-8.311 1.536-6.588 3.186-11.171 12.859-17.969 14.801-4.215 1.204-9.29-1.897-13.617-2.173-3.832-.245-7.329.386-10.627 2.402-6.229 3.807-7.073 11.102-12.203 15.446-6.211 5.26-17.072-.913-24.739 2.857-5.078 2.497-7.561 7.217-9.793 12.161-2.36 5.229-9.62 22.026-1.452 25.86 1.929.905 4.237-.994 3.047-3.047-.738-1.272 8.604-19.701 11.616-22.456 5.266-4.818 14.679-.29 21.319-1.276 5.21-.773 8.892-3.329 12.156-7.413 4.677-5.852 4.637-12.301 13.558-11.638 6.496.483 11.102 2.501 17.463-.27 3.867-1.684 6.756-4.36 9.709-7.117 3.895-1.067 7.321-3.162 11.071-4.544l1.148.41c2.771.988 4.821 1.646 7.795 1.797 8.904.455 8.992-13.893-.001-13.903z" style="" fill="#cf242c" data-original="#cf242c"></path><path d="M164.543 328.157c2.464-8.019-2.689-16.441-11.238-17.815-5.407-.87-10.838.712-14.727 4.131-4.893 2.018-9.404 6.373-9.019 11.053-.357 1.295-.553 2.621-.54 3.937.115 11.243 10.009 13.787 19.37 11.48 7.078 3.326 16.143-.859 16.865-9.412.11-1.308-.174-2.433-.711-3.374zM221.141 314.198c-.299-4.285-4.014-7.972-8.472-6.987-1.04-1.089-2.354-1.94-3.824-2.518a11.97 11.97 0 0 0-3.261-2.793c-2.55-1.479-5.095-1.889-7.495-1.517-1.445-3.688-6.502-5.813-9.664-2.283-5.932 6.623-11.344 17.002-6.855 25.825 3.562 7.003 12.797 11.47 20.326 8.362.053-.022.099-.057.151-.079 3.156-.35 6.25-1.649 8.874-3.532 4.53-3.252 10.647-8.353 10.22-14.478zM223.854 356.225c-5.623-1.177-11.718.103-16.132 3.593-2.106-.024-4.209 1.033-5.465 2.959-3.018 4.626-1.609 8.941 1.551 12.04.134.142.244.296.396.428.697.609 1.395 1.137 2.123 1.567a17.886 17.886 0 0 0 5.66 2.373c7.129 1.586 16.255 1.361 20.71-5.377 4.969-7.517-.955-15.932-8.843-17.583zM264.819 372.485c-.181-.322-.354-.647-.53-.971a19.594 19.594 0 0 0-.447-1.432c.051-1.222.059-2.333-.144-3.678-.377-2.502-2.012-4.023-4.034-4.696-2.117-2.203-6.3-1.889-7.66 1.115-.514.309-1 .669-1.408 1.14-2.452.927-4.374 3.962-2.722 6.636.338.547.563 1.15.733 1.779.013 1.553.207 3.097.52 4.62.048.358.136.702.208 1.051.061.409.133.811.234 1.198.1.387.243.737.403 1.071.295.81.632 1.613 1.059 2.411.17.317.371.613.594.891 1.195 2.054 2.702 3.907 4.6 5.361 2.139 1.638 5.698 1.275 7.877 0 2.529-1.48 3.624-3.928 3.865-6.738.304-3.547-1.468-6.768-3.148-9.758zM325.33 118.829c-.364-.8-1.103-1.53-1.973-2.075-1.147-2.6-4.661-3.523-7.333-1.42-5.418 4.265-7.064 11.4-9.238 17.702-1.035 3 1.209 5.805 3.859 6.796 10.757 4.024 18.414-12.816 14.685-21.003zM373.124 72.835c-.476-4.009-2.031-9.346-6.622-10.318a5.768 5.768 0 0 0-1.175-.117c-1.005-1.882-2.055-3.756-2.737-5.815-1.165-3.514-4.572-4.597-7.786-3.168-6.622 2.944-10.595 8.447-14.46 14.234-3.66 3.267-6.92 7.664-8.86 12.178-2.016 2.916-3.749 5.99-4.626 9.541-.875 3.541 2.228 6.019 5.115 5.66 4.5 5.927 12.26 4.428 19.131.799 6.976 1.607 13.595-4.618 17.751-10.026.114-.148.183-.316.279-.472.817-.466 1.5-1.14 1.912-2.06 1.55-3.468 2.536-6.58 2.078-10.436zM411.747 68.356c-.341-1.426-.802-2.793-1.394-4.045-.956-5.057-3.482-10.531-8.905-11.881-5.979-1.488-10.622 2.952-12.77 8.041-3.85 9.123-4.451 26.011 7.18 29.842 9.525 3.137 14.877-3.539 16.238-11.695.471-.904.813-1.91.973-3.095.342-2.555-.059-5.03-1.322-7.167z" style="" fill="#ffd45c" data-original="#ffd45c"></path><path d="M490.522 262.753c-10.995-20.105-25.531-37.465-41.401-53.866-5.881-6.079-13.089-11.769-21.83-12.676-3.577-.371-6.898.522-9.971 2.079 2.477-4.929 4.625-9.914 6.48-14.633 7.627-19.391 12.964-39.351 14.912-60.128 1.974-21.057 1.319-42.995-3.344-63.689-3.243-14.39-11.374-29.37-25.958-34.672a36.03 36.03 0 0 0-12.089-2.191c-.371-.11-.735-.216-1.089-.319-21.825-6.341-44.509-.582-65.513 6.168-25.942 8.337-51.364 17.954-77.107 26.856-24.682 8.536-50.29 14.709-73.239 27.562-10.003 5.603-19.491 12.065-29.494 17.659-13.191 7.377-27.232 12.568-41.154 18.336-20.578 8.525-42.375 17.953-60.576 31.004C16.038 173.984 1.99 221.754.171 260.786-.9 283.771 2.885 309.544 16.27 328.852c9.842 14.197 28.361 23.691 45.668 20.546.366 11.807 2.619 23.739 5.17 34.184 8.948 36.64 28.009 66.357 60.085 87.042 36.666 23.645 78.142 26.458 119.427 14.732 21.669-6.154 41.849-15.848 62.342-25.002a1427.523 1427.523 0 0 1 75.763-31.288c22.841-8.668 46.233-15.916 68.733-25.467 16.687-7.083 35.386-15.3 46.765-30.085 23.795-30.918 6.84-80.515-9.701-110.761zm-73.897-87.775c-2.879 8.105-6.102 16.157-9.813 23.932-6.039-4.076-15.474-4.579-22.088-1.627-8.392 3.745-11.526 16.609-20.486 17.897-8.015 1.152-13.487-2.052-19.937 4.559-3.728 3.821-6.272 9.208-6.714 14.596-3.88-1.872-7.434-3.96-10.378-6.016a50.085 50.085 0 0 1-5.258-4.248c-.239-9.658.69-20.395 9.289-25.796 9.825-6.17 20.876 4.517 29.175-5.819 4.598-5.726 5.533-12.388 14.37-13.187 5.321-.481 10.46 1.982 15.799 1.473 8.479-.808 19.785-16.528 27.728-10.674-.555 1.638-1.107 3.277-1.687 4.91zm-12.335 28.984c-2.426 4.509-5.236 8.724-8.016 12.965-9.371 9.847-18.86 19.625-31.691 23.985-7.398.455-15.789-1.735-23.351-4.937 2.992-7.009 5.529-14.939 14.727-15.587 5.376-.378 9.908 2.072 15.101-.544 5.054-2.546 7.081-7.996 10.782-11.865 7.353-7.686 13.878-4.051 22.448-4.017zm25.111-83.945c-1.236 14.653-4.418 28.823-8.726 42.758-6.58-5.132-18.047 2.193-23.752 6.524-8.014 6.083-14.16 1.871-23.058 2.713-6.772.641-11.877 4.168-15.331 9.897-3.392 5.624-4.644 9.148-12.348 8.536-3.09-.246-5.754-1.274-8.931-.988-5.878.528-11.241 3.547-14.91 8.12-4.289 5.346-6.435 12.5-6.581 19.634-5.921-7.906-9.516-17.375-11.264-27.489-1.762-10.198-1.784-20.349-.548-30.354 4.845 4.084 13.303 5.306 18.593 4.049 13.224-3.142 21.026-16.78 29.076-26.573 2.198-2.673 4.624-6.031 7.684-7.773 5.689-3.241 8.922-1.126 13.714 1.699 5.086 2.999 9.98 3.615 15.567 1.383 6.106-2.44 10.426-7.556 16.018-10.805 8.782-5.102 16.391-.448 24.827-1.773-.011.146-.017.294-.03.442zM415.887 37.2c7.853 8.014 11.111 20.964 12.425 32.129 1.712 14.537 2.335 29.282 1.549 43.916-10.497-3.915-21.911-3.741-31.339 2.814-6.05 4.206-12.29 12.067-20.603 8.762-5.086-2.022-7.751-6.116-13.798-5.709-10.089.678-16.524 10.929-22.087 18.122-3.892 5.032-7.858 10.414-12.628 14.673-5.158 4.605-19.55 9.36-24.515 1.173.661-3.747 1.491-7.47 2.463-11.164 9.862 2.506 19.032-2.823 21.726-13.018 2.012-7.614-1.293-18.133-9.5-19.83a307.573 307.573 0 0 1 7.114-14.156c14.714 9.607 37.814 4.848 45.922-11.402 3.189-6.393 2.672-14.038.069-20.515-1.969-4.899-6.423-11.667-11.949-13.96 9.517-9.164 21.427-18.419 34.376-19.361 7.465 1.371 14.84 3.794 20.775 7.526zM308.394 138.161c2.275-7.838 5.168-15.531 8.444-23.031.717.207 1.434.407 2.052.657 3.319 1.343 4.666 4.667 4.717 8.056.13 8.595-6.95 15.022-15.213 14.318zm19.784-45.953c7.482-13.62 16.245-26.48 27.074-37.686l.201-.206c3.641 3.392 7.944 5.219 10.505 10.273 2.739 5.407 3.566 12.109.535 17.582-8.188 14.785-24.467 13.066-38.315 10.037zm-27.575-40.619c22.338-8.642 45.909-19.683 69.819-22.812a66.25 66.25 0 0 1 6.712-.511C355.94 39.342 338.253 65.312 328.111 82.3c-5.222 8.746-9.701 17.801-13.718 27.069-.425.239-.794.563-.998 1.027-.389.888-.475 1.585-.363 2.154a356.608 356.608 0 0 0-4.625 11.582c-3.456-2.054-7.754-1.804-12.147-3.003-8.665-2.364-17.32-7.929-23.675-14.212-10.724-10.604-16.135-23.422-18.236-37.566 15.551-5.552 30.85-11.803 46.254-17.762zm-102.174 36.47c12.114-4.791 24.557-8.595 37.479-12.55 4.501-1.377 8.963-2.862 13.407-4.396.116 13.112 5.608 25.627 14.108 36.086 6.183 7.608 14.084 13.353 22.866 17.652 5.414 2.65 13.208 5.484 19.867 5.348-.353.974-.714 1.943-1.062 2.919-6.804 19.135-12.855 37.468-11.431 58.068 1.321 19.109 9.615 36.726 25.931 47.418 3.383 2.217 7.34 4.281 11.588 5.996-29.36-3.291-59.652.359-89.004 5.95-32.713.078-66.749-8.894-94.442-24.739-7.828-23.144-7.66-46.401.136-69.958 9.607-29.027 25.65-51.36 50.557-67.794zm-86.936 44.653c20.412-9.17 39.571-19.468 58.77-30.896-13.633 14.841-23.067 34.818-28.641 52.313-4.32 13.56-6.378 28.165-5.971 42.395.209 7.261.685 17.407 4.549 24.691-28.041-18.122-47.637-43.047-63.763-71.966 11.58-5.798 23.374-11.289 35.056-16.537zM62.144 339.193c-6.089-1.372-12.339-1.762-18.283-3.823-8.822-3.058-15.395-9.405-20.218-17.269-10.396-16.949-13.822-37.708-13.542-57.315.28-19.592 4.39-39.108 11.613-57.301 7.673-19.326 17.442-34.152 35.925-44.404 4.709-2.612 9.506-5.138 14.345-7.613 15.168 33.78 40.886 62.17 72.927 80.895 17.748 10.372 37.503 16.923 57.656 20.683 5.162.963 10.453 1.804 15.801 2.415-3.034.665-6.056 1.333-9.055 2.005-42.212 9.459-90.26 16.772-126.661 41.814-13.836 9.518-19.334 24.169-20.508 39.913zm121.444-7.377c12.537 10.617 35.11 3.658 42.233-10.726 1.814 1.721 3.595 3.486 5.301 5.348 8.66 9.455 16.365 20.194 22.437 31.759-3.365.592-6.298 4.009-7.655 6.854-2.289 4.8-2.136 10.606-.593 15.602 1.502 4.866 4.432 9.55 9.042 11.986 2.926 1.547 7.983 2.164 11.457.581.559 3.145.997 6.311 1.261 9.5.402 4.856.357 9.56-.05 14.139-5.37 3.389-10.444 4.22-16.653 2.012-7.351-2.614-9.365-7.321-12.356-14.072-3.415-7.709-8.561-11.504-17.144-10.588-8.894.949-18.503 4.312-26.077-3.202-3.923-3.892-4.927-9.974-7.594-14.622-5.692-9.919-15.696-10.02-26.09-9.701-9.816.302-17.11-1.057-23.986-8.709-3.034-3.376-5.646-7.105-9.245-9.934-8.437-6.63-19.061-5.15-28.98-7.329-15.925-3.498-17.076-17.994-6.466-28.408 5.876-5.767 12.943-10.121 19.388-15.22.467-.158.93-.32 1.414-.459 13.005-3.752 26.748-5.527 40.282-5.139 11.287.324 22.304 2.294 32.733 5.805-8.911 9.244-13.876 25.024-2.659 34.523zm5.977-33.327a106.954 106.954 0 0 1 30.836 17.797c-3.437 4.239-6.489 8.496-11.585 11.33-6.512 3.621-15.705 4.049-21.665-.955-8.846-7.429-4.206-20.712 2.414-28.172zm65.289 62.231c4.056 8.13 7.288 16.644 9.453 25.402-2.441.546-4.563 1.876-7.378.418-3.116-1.614-5.254-5.166-6.431-8.349-1.268-3.427-1.883-7.519-.9-11.095.911-3.31 3.054-4.589 5.256-6.376zM81.143 400.913c-8.597-23.889-20.425-64.76-.958-86.187 3.343-3.679 7.684-6.449 12.275-8.825-6.575 4.726-11.917 10.501-13.117 18.582-3.227 21.74 21.279 21.842 35.541 25.172 11.611 2.711 15.055 14.046 24.29 20.202 4.679 3.119 10.025 4.446 15.592 4.71 7.529.356 17.752-2.472 23.626 3.201 7.636 7.376 6.368 18.146 17.274 23.166 4.68 2.155 10.165 3.26 15.324 3.064 7.564-.287 15.238-4.949 19.765 3.353 4.844 8.883 7.053 15.406 17.548 19.01 5.247 1.802 11.998 2.486 17.231.307a86.889 86.889 0 0 1-2.749 10.018c-1.312-2.22-3.52-3.891-6.812-4.647-7.531-1.728-11.465 2.706-16.514 6.476-1.397-4.104-3.073-7.605-8.279-8.647-8.018-1.605-12.61 3.892-17.447 8.956-3.944-6.002-8.245-11.499-16.408-11.808-6.499-.246-10.434 4.148-14.268 8.643-1.548-2.382-3.441-4.484-6.051-5.775-2.864-1.417-3.422-.646-6.01-1.137-5.499-1.043-5.143.272-5.822-3.88-.948-5.794.183-13.934-7.778-15.049-4.534-.635-9.231 3.806-13.169.796-3.904-2.985-1.152-9.314-1.433-13.882-.402-6.528-4.645-14.335-12.15-13.245-3.348.486-6.215 3.069-8.594 5.274-1.551 1.438-2.843 3.305-4.497 4.62-3.934 3.129-3.458 2.155-6.636-.103-5.593-3.975-10.425-11.165-17.616-4.585-5.825 5.329-7.131 16.587-6.874 24.208a96.012 96.012 0 0 1-5.284-11.988zm81.376 72.2c-22.861-7.458-44.95-20.666-61.148-38.798.27-.751.58-1.468 1.001-2.02 2.065-2.706 9.179-4.184 11.807-1.932 1.908 1.635 2.625 5.643 4.19 7.729 3.704 4.936 8.467 5.454 14.291 5.605 4.752.123 6.103-.067 9.678 3.254 2.838 2.636 2.223 2.949 3.815 5.414 1.542 2.389 2.651 4.491 5.185 6.105 5.405 3.444 10.342.602 15.96-.541 9.523-1.937 8.155 5.663 14.068 10.485 4.236 3.455 8.365 2.621 13.382 2.095 5.483-.574 7.791 1.267 12.518 2.819 2.35.772 4.608 1.062 7.079.624 3.212-.569 6.576-3.672 9.702-3.69 4.55-.026 6.003 2.968 6.9 6.297-22.703 3.99-45.797 3.938-68.428-3.446zm78.236 1.478c-.967.218-1.938.416-2.908.621-1.065-4.779-2.54-9.176-7.806-11.253-3.05-1.203-6.005-.87-9.083.047-1.547.461-2.97 1.464-4.514 1.859-10.909 2.79-5.523.174-11.233-1.427-3.42-.959-5.547-1.568-9.198-1.243-1.781.159-4.927 1.431-6.75 1.014-6.093-1.395-5.304-4.407-7.631-7.883-3.463-5.171-6.986-6.64-13.42-5.71-7.176 1.037-12.03 5.102-18.122-2.927-2.101-2.769-2.86-5.288-6.112-7.035-3.33-1.788-6.339-1.231-9.823-1.685-4.923-.641-10.058-1.879-13.154-6.128-1.287-1.767-1.835-4.118-3.029-5.966-7.037-10.891-15.354-4.345-19.428 4.139-.249-.301-.511-.591-.757-.895-4.309-7.337-5.532-16.168-3.981-24.742 1.115-6.168 3.115-15.136 11.92-6.655 1.574 1.516 2.19 3.86 4.264 4.971 4.908 2.629 9.756-1.496 13.163-4.714 3.291-3.109 5.116-7.534 9.43-4.822 4.213 2.649 2.344 7.226 2.477 11.609.137 4.493 1.123 8.488 5.586 10.483 2.076.928 4.236.918 6.451.744 4.643-.364 6.342-2.968 9.95.944 4.633 5.023-1.921 10.542 2.155 15.709 1.412 1.79 3.623 2.489 5.81 2.859 6.051 1.025 10.27.742 13.078 7.646 1.208 2.969 4.594 4.249 7.144 1.886 2.799-2.594 5.036-7.374 8.178-9.34 7.661-4.797 12.796 3.675 16.867 9.081 1.227 1.629 3.651 2.416 5.254.677 3.457-3.748 5.664-6.95 10.71-8.554 6.565-2.086 6.002 2.16 7.719 7.219.803 2.365 3.178 3.265 5.391 2.193 4.468-2.164 17.229-15.228 18.046-1.689.048.796.375 1.466.848 1.994-4.587 9.494-10.615 18.434-17.492 26.973zm163.548-65.053c-41.908 16.167-81.938 37.009-123.918 52.852-7.659 2.89-15.447 5.573-23.324 7.915 9.752-11.191 15.503-26.408 18.142-40.709 4.528-24.533-1.444-49.489-12.555-71.471-22.543-44.603-65.103-75.03-115.744-73.422 18.452-5.336 37.249-9.399 55.958-13.729 5.921-1.37 11.835-2.783 17.75-4.192 14.809-.387 29.732.859 43.97 2.695 29.523 3.806 59.268 10.307 86.068 23.647 25.389 12.638 42.753 29.976 54.292 55.968 4.392 9.894 7.837 20.181 10.078 30.772 1.741 8.226 1.125 16.616 2.062 24.755-4.26 1.646-8.524 3.278-12.779 4.919zm91.491-59.519c-4.183 15.554-16.417 25.12-29.892 32.71-12.328 6.944-25.284 12.58-38.408 17.817.366-6.109-1.365-13.001-2.384-17.945-2.395-11.617-6.28-22.753-11.131-33.563-11.962-26.654-29.523-45.782-55.638-58.886-27.141-13.619-56.985-20.822-86.949-24.796-10.222-1.356-20.618-2.667-31.01-3.191 9.702-2.198 19.434-4.255 29.24-5.949a343.702 343.702 0 0 1 27.929-3.631c3.345-.189 6.701-.374 10.094-.441 11.022-.217 22.049.034 33.072.007 16.436-.04 30.764-2.019 43.965-12.501 6.595-5.238 12.361-11.509 18.078-17.666 5.045-5.434 10.28-12.842 17.151-16.025 10.119-4.688 17.192 5.787 23.275 12.722 5.508 6.279 11.167 12.465 16.378 18.994 23.328 29.229 46.598 73.791 36.23 112.344z" fill="#000000" data-original="#000000"></path><path d="M131.469 313.549c-7.94 8.28-8.778 20.789.544 26.482 7.709 6.575 19.345 7.801 28.237 2.608 11.014-6.433 13.711-21.296 4.522-30.583-9.044-9.141-24.78-7.395-33.303 1.493zm32.724 12.572c-.028 12.877-16.038 16.924-25.82 12.551-4.446-1.987-7.308-4.988-8.685-8.342-.361-1.286-.463-2.688-.195-4.24.917-5.33 5.184-8.863 9.815-11.081 9.58-4.588 24.914-2.122 24.885 11.112zM207.713 383.96c11.263 5.691 29.631 1.714 30.977-12.96.63-6.874-3.424-12.968-9.712-15.578-5.923-2.458-12.728-1.375-19-.039-.674.119-1.34.265-1.996.434-.653.144-1.3.287-1.936.424a1.235 1.235 0 0 0-.727.437c-1.885.728-3.636 1.681-5.145 2.909-9.365 7.621-.845 20.136 7.539 24.373zm.088-23.592a26.746 26.746 0 0 1 4.38-1.186c9.274.167 22.149.514 19.341 12.371-2.495 10.535-17.688 9.679-24.596 4.853-7.354-5.136-7.854-12.821.875-16.038zM88.724 372.421c.608 1.394 1.862 1.81 3.077 1.594.203-.015.41-.036.629-.086l.452-.103c3.519-.799 3.596-5.875.456-7.17-3.562-1.469-6.141 2.267-4.767 5.415l.153.35zM105.345 366.117c1.289-.481 2.227-1.387 2.418-2.806.182-1.355-.45-2.636-1.611-3.363-.405-.254-.919-.551-1.365-.652l-.644-.087c-2.816-.656-5.225 2.328-3.832 5.138.874 1.765 3.308 2.414 5.034 1.77zM104.237 381.305c.176 1.308.875 2.434 2.034 3.112 1.435.84 2.856.627 4.3 0 2.447-1.062 3.227-4.467 1.948-6.624-.782-1.319-2.783-2.01-4.206-1.302-2.425.067-4.415 2.288-4.076 4.814zM124.973 374.728c4.194 0 4.2-6.518 0-6.518-4.193.001-4.201 6.518 0 6.518zM159.558 390.406c.262 2.387 1.674 3.818 4.082 4.082l.265.029c1.485.163 3.065-.948 3.779-2.168.824-1.409.724-3.002 0-4.417-.286-.559-.749-1.15-1.316-1.44l-.254-.13c-1.415-.724-3.008-.824-4.417 0-1.22.713-2.33 2.294-2.168 3.779l.029.265zM163.427 405.737c-2.635 1.134-2.635 5.81 0 6.944 1.688.726 3.148.967 4.78-.062 1.139-.718 2.193-1.978 2.128-3.41-.067-1.495-.909-2.618-2.128-3.41-1.62-1.05-3.08-.794-4.78-.062zM180.318 417.631c2.381 1.005 4.774-.337 5.592-2.685.395-1.135.465-2.291.148-3.454-.376-1.378-1.79-2.549-3.261-2.482-1.992.09-3.397 1.115-4.46 2.744-1.367 2.094-.187 4.962 1.981 5.877zM182.411 406.538c.152.09.312.171.416.239 3.617 2.371 7.883-3.096 4.644-6.019-1.04-.939-2.208-1.56-3.639-1.519a4.753 4.753 0 0 0-1.433.257c-.495.139-.923.393-1.311.714l-.203.146c-1.423 1.017-2.245 2.968-1.203 4.586.683 1.06 1.663 1.565 2.729 1.596zM215.49 418.614l.308-.081c3.974-1.045 3.978-7.007 0-8.053l-.308-.081c-2.676-.704-5.392 1.329-5.392 4.107 0 2.769 2.715 4.812 5.392 4.108zM193.649 419.324c1.483 1.483 4.199 1.594 5.662 0 1.467-1.598 1.583-4.08 0-5.662l-.662-.662c-1.483-1.483-4.199-1.594-5.662 0-1.467 1.598-1.583 4.079 0 5.662l.662.662zM146.317 391.532c.313 1.091 1.16 2.071 2.276 2.326.972.221 1.815.017 2.547-.444.514-.221.98-.543 1.42-.978.975-.964 1.392-2.471 1.003-3.795l-.082-.277c-.606-2.067-3.463-3.704-5.438-2.213l-.21.159c-1.561 1.178-2.068 2.495-1.793 4.405.041.28.162.549.277.817zM114.379 366.158c2.07 0 4.053-1.82 3.957-3.957-.096-2.144-1.739-3.957-3.957-3.957-2.07 0-4.053 1.82-3.957 3.957.096 2.143 1.739 3.957 3.957 3.957zM82.599 351.831c-1.512.068-2.831.897-3.425 2.304-.779 1.847.006 3.55 1.533 4.68l.27.2c.826.611 2.416.611 3.243 0l.27-.2c1.356-1.003 2.203-2.486 1.722-4.232-.42-1.528-1.981-2.825-3.613-2.752zM384.751 81.692c1.234 9.57 6.512 17.158 16.814 14.262 11.224-3.156 15.42-14.411 14.471-25.067-.763-8.571-5.239-21.798-15.744-22.097-15.14-.432-17.951 21.645-15.797 32.388.042.208.139.372.256.514zm18.007-25.7c7.179 4.518 8.615 19.095 5.643 26.209-1.616 3.867-6.165 8.33-10.672 8.309-4.192-.02-6.44-4.247-7.641-7.702a29.69 29.69 0 0 1-1.639-8.949c1.737-9.758 5.205-23.597 14.309-17.867zM315.275 182.842c-2.22 0-4.347 1.952-4.245 4.245.103 2.3 1.865 4.245 4.245 4.245 2.22 0 4.348-1.952 4.245-4.245-.103-2.3-1.865-4.245-4.245-4.245zM331.656 170.18c-.947-1.485-2.725-2.299-4.469-1.818-1.613.444-2.982 2.092-2.905 3.816.176 3.933 5.228 5.363 7.374 1.997l.09-.141c.679-1.066.679-2.647 0-3.713l-.09-.141zM338.926 176.565l.634.48c-.865-.909-2.466-1.419-3.68-.973-.349.128-.811.272-1.112.493-1.496 1.093-2.419 2.742-1.893 4.653.463 1.68 2.178 3.105 3.973 3.025 1.662-.074 3.112-.986 3.765-2.533.829-1.969.034-3.98-1.687-5.145zM353.399 155.953l-.221.023c-2.365.243-3.817 1.677-4.063 4.063l-.023.221c-.173 1.68 1.202 3.326 2.647 3.935 1.526.645 3.537.381 4.704-.89 1.027-1.119 1.519-2.695 1.107-4.19-.458-1.669-2.3-3.353-4.151-3.162zM362.057 138.122c-1.68-.359-3.418.627-4.074 2.181-.636 1.507-.192 2.938.849 4.011 1.413 1.883 4.215 2.26 5.954.517.816-.819 1.018-1.686 1.151-2.78.242-1.975-1.962-4.054-3.88-3.929zM377.896 147.415c-1.478.066-2.896.796-3.658 2.098-.892 1.523-.743 3.918.662 5.134l.178.154c1.719 1.487 3.906 1.496 5.636 0l.178-.154c1.278-1.105 1.497-3.156.876-4.628-.627-1.485-2.191-2.679-3.872-2.604zM376.631 161.871c-1.21.054-2.129.604-2.773 1.473a3.237 3.237 0 0 0-1.764 2.446c-.208 1.549.683 2.868 2.093 3.436 1.265.693 2.712.83 4.065-.02 1.655-1.04 2.236-2.9 1.771-4.753-.361-1.437-1.886-2.649-3.392-2.582zM395.111 153.328c-2.24 0-4.387 1.97-4.283 4.283.104 2.32 1.882 4.283 4.283 4.283 2.24 0 4.386-1.97 4.283-4.283-.104-2.321-1.882-4.283-4.283-4.283zM392.001 146.099c2.328 1.581 5.455.345 6.626-2.049 1.376-2.813-1.159-5.635-3.982-4.699l-.161.009c-.566.033-1.1.109-1.638.273-3.03.924-3.345 4.768-.845 6.466zM412.326 129.748c-1.404.063-2.753.757-3.477 1.994-.996 1.701-.491 3.446.63 4.88l.145.186c1.17 1.497 4.241 1.488 5.405 0l.145-.186c1.024-1.31 1.513-2.787.833-4.399-.597-1.412-2.084-2.547-3.681-2.475zM409.677 146.58c-4.823 0-4.831 7.495 0 7.495 4.823 0 4.831-7.495 0-7.495z" fill="#000000" data-original="#000000"></path></g></svg>