<svg xmlns="http://www.w3.org/2000/svg" version="1.1" xmlns:xlink="http://www.w3.org/1999/xlink" xmlns:svgjs="http://svgjs.com/svgjs" width="512" height="512" x="0" y="0" viewBox="0 0 512 512" style="enable-background:new 0 0 512 512" xml:space="preserve"><g><path d="M490.522 262.753c-10.995-20.105-25.531-37.465-41.401-53.866-5.881-6.079-13.089-11.769-21.83-12.676-3.577-.371-6.898.522-9.971 2.079 2.477-4.929 4.625-9.914 6.48-14.633 7.627-19.391 12.964-39.351 14.912-60.128 1.974-21.057 1.319-42.995-3.344-63.689-3.243-14.39-11.374-29.37-25.958-34.672a36.03 36.03 0 0 0-12.089-2.191c-.371-.11-.735-.216-1.089-.319-21.825-6.341-44.509-.582-65.513 6.168-25.942 8.337-51.364 17.954-77.107 26.856-24.682 8.536-50.29 14.709-73.239 27.562-10.003 5.603-19.491 12.065-29.494 17.659-13.191 7.377-27.232 12.568-41.154 18.336-20.578 8.525-42.375 17.953-60.576 31.004C16.038 173.984 1.99 221.754.171 260.786-.9 283.771 2.885 309.544 16.27 328.852c9.842 14.197 28.361 23.691 45.668 20.546.366 11.807 2.619 23.739 5.17 34.184 8.948 36.64 28.009 66.357 60.085 87.042 36.666 23.645 78.142 26.458 119.427 14.732 21.669-6.154 41.849-15.848 62.342-25.002a1427.523 1427.523 0 0 1 75.763-31.288c22.841-8.668 46.233-15.916 68.733-25.467 16.687-7.083 35.386-15.3 46.765-30.085 23.795-30.918 6.84-80.515-9.701-110.761zm-73.897-87.775c-2.879 8.105-6.102 16.157-9.813 23.932-6.039-4.076-15.474-4.579-22.088-1.627-8.392 3.745-11.526 16.609-20.486 17.897-8.015 1.152-13.487-2.052-19.937 4.559-3.728 3.821-6.272 9.208-6.714 14.596-3.88-1.872-7.434-3.96-10.378-6.016a50.085 50.085 0 0 1-5.258-4.248c-.239-9.658.69-20.395 9.289-25.796 9.825-6.17 20.876 4.517 29.175-5.819 4.598-5.726 5.533-12.388 14.37-13.187 5.321-.481 10.46 1.982 15.799 1.473 8.479-.808 19.785-16.528 27.728-10.674-.555 1.638-1.107 3.277-1.687 4.91zm-12.335 28.984c-2.426 4.509-5.236 8.724-8.016 12.965-9.371 9.847-18.86 19.625-31.691 23.985-7.398.455-15.789-1.735-23.351-4.937 2.992-7.009 5.529-14.939 14.727-15.587 5.376-.378 9.908 2.072 15.101-.544 5.054-2.546 7.081-7.996 10.782-11.865 7.353-7.686 13.878-4.051 22.448-4.017zm25.111-83.945c-1.236 14.653-4.418 28.823-8.726 42.758-6.58-5.132-18.047 2.193-23.752 6.524-8.014 6.083-14.16 1.871-23.058 2.713-6.772.641-11.877 4.168-15.331 9.897-3.392 5.624-4.644 9.148-12.348 8.536-3.09-.246-5.754-1.274-8.931-.988-5.878.528-11.241 3.547-14.91 8.12-4.289 5.346-6.435 12.5-6.581 19.634-5.921-7.906-9.516-17.375-11.264-27.489-1.762-10.198-1.784-20.349-.548-30.354 4.845 4.084 13.303 5.306 18.593 4.049 13.224-3.142 21.026-16.78 29.076-26.573 2.198-2.673 4.624-6.031 7.684-7.773 5.689-3.241 8.922-1.126 13.714 1.699 5.086 2.999 9.98 3.615 15.567 1.383 6.106-2.44 10.426-7.556 16.018-10.805 8.782-5.102 16.391-.448 24.827-1.773-.011.146-.017.294-.03.442zM415.887 37.2c7.853 8.014 11.111 20.964 12.425 32.129 1.712 14.537 2.335 29.282 1.549 43.916-10.497-3.915-21.911-3.741-31.339 2.814-6.05 4.206-12.29 12.067-20.603 8.762-5.086-2.022-7.751-6.116-13.798-5.709-10.089.678-16.524 10.929-22.087 18.122-3.892 5.032-7.858 10.414-12.628 14.673-5.158 4.605-19.55 9.36-24.515 1.173.661-3.747 1.491-7.47 2.463-11.164 9.862 2.506 19.032-2.823 21.726-13.018 2.012-7.614-1.293-18.133-9.5-19.83a307.573 307.573 0 0 1 7.114-14.156c14.714 9.607 37.814 4.848 45.922-11.402 3.189-6.393 2.672-14.038.069-20.515-1.969-4.899-6.423-11.667-11.949-13.96 9.517-9.164 21.427-18.419 34.376-19.361 7.465 1.371 14.84 3.794 20.775 7.526zM308.394 138.161c2.275-7.838 5.168-15.531 8.444-23.031.717.207 1.434.407 2.052.657 3.319 1.343 4.666 4.667 4.717 8.056.13 8.595-6.95 15.022-15.213 14.318zm19.784-45.953c7.482-13.62 16.245-26.48 27.074-37.686l.201-.206c3.641 3.392 7.944 5.219 10.505 10.273 2.739 5.407 3.566 12.109.535 17.582-8.188 14.785-24.467 13.066-38.315 10.037zm-27.575-40.619c22.338-8.642 45.909-19.683 69.819-22.812a66.25 66.25 0 0 1 6.712-.511C355.94 39.342 338.253 65.312 328.111 82.3c-5.222 8.746-9.701 17.801-13.718 27.069-.425.239-.794.563-.998 1.027-.389.888-.475 1.585-.363 2.154a356.608 356.608 0 0 0-4.625 11.582c-3.456-2.054-7.754-1.804-12.147-3.003-8.665-2.364-17.32-7.929-23.675-14.212-10.724-10.604-16.135-23.422-18.236-37.566 15.551-5.552 30.85-11.803 46.254-17.762zm-102.174 36.47c12.114-4.791 24.557-8.595 37.479-12.55 4.501-1.377 8.963-2.862 13.407-4.396.116 13.112 5.608 25.627 14.108 36.086 6.183 7.608 14.084 13.353 22.866 17.652 5.414 2.65 13.208 5.484 19.867 5.348-.353.974-.714 1.943-1.062 2.919-6.804 19.135-12.855 37.468-11.431 58.068 1.321 19.109 9.615 36.726 25.931 47.418 3.383 2.217 7.34 4.281 11.588 5.996-29.36-3.291-59.652.359-89.004 5.95-32.713.078-66.749-8.894-94.442-24.739-7.828-23.144-7.66-46.401.136-69.958 9.607-29.027 25.65-51.36 50.557-67.794zm-86.936 44.653c20.412-9.17 39.571-19.468 58.77-30.896-13.633 14.841-23.067 34.818-28.641 52.313-4.32 13.56-6.378 28.165-5.971 42.395.209 7.261.685 17.407 4.549 24.691-28.041-18.122-47.637-43.047-63.763-71.966 11.58-5.798 23.374-11.289 35.056-16.537zM62.144 339.193c-6.089-1.372-12.339-1.762-18.283-3.823-8.822-3.058-15.395-9.405-20.218-17.269-10.396-16.949-13.822-37.708-13.542-57.315.28-19.592 4.39-39.108 11.613-57.301 7.673-19.326 17.442-34.152 35.925-44.404 4.709-2.612 9.506-5.138 14.345-7.613 15.168 33.78 40.886 62.17 72.927 80.895 17.748 10.372 37.503 16.923 57.656 20.683 5.162.963 10.453 1.804 15.801 2.415-3.034.665-6.056 1.333-9.055 2.005-42.212 9.459-90.26 16.772-126.661 41.814-13.836 9.518-19.334 24.169-20.508 39.913zm121.444-7.377c12.537 10.617 35.11 3.658 42.233-10.726 1.814 1.721 3.595 3.486 5.301 5.348 8.66 9.455 16.365 20.194 22.437 31.759-3.365.592-6.298 4.009-7.655 6.854-2.289 4.8-2.136 10.606-.593 15.602 1.502 4.866 4.432 9.55 9.042 11.986 2.926 1.547 7.983 2.164 11.457.581.559 3.145.997 6.311 1.261 9.5.402 4.856.357 9.56-.05 14.139-5.37 3.389-10.444 4.22-16.653 2.012-7.351-2.614-9.365-7.321-12.356-14.072-3.415-7.709-8.561-11.504-17.144-10.588-8.894.949-18.503 4.312-26.077-3.202-3.923-3.892-4.927-9.974-7.594-14.622-5.692-9.919-15.696-10.02-26.09-9.701-9.816.302-17.11-1.057-23.986-8.709-3.034-3.376-5.646-7.105-9.245-9.934-8.437-6.63-19.061-5.15-28.98-7.329-15.925-3.498-17.076-17.994-6.466-28.408 5.876-5.767 12.943-10.121 19.388-15.22.467-.158.93-.32 1.414-.459 13.005-3.752 26.748-5.527 40.282-5.139 11.287.324 22.304 2.294 32.733 5.805-8.911 9.244-13.876 25.024-2.659 34.523zm5.977-33.327a106.954 106.954 0 0 1 30.836 17.797c-3.437 4.239-6.489 8.496-11.585 11.33-6.512 3.621-15.705 4.049-21.665-.955-8.846-7.429-4.206-20.712 2.414-28.172zm65.289 62.231c4.056 8.13 7.288 16.644 9.453 25.402-2.441.546-4.563 1.876-7.378.418-3.116-1.614-5.254-5.166-6.431-8.349-1.268-3.427-1.883-7.519-.9-11.095.911-3.31 3.054-4.589 5.256-6.376zM81.143 400.913c-8.597-23.889-20.425-64.76-.958-86.187 3.343-3.679 7.684-6.449 12.275-8.825-6.575 4.726-11.917 10.501-13.117 18.582-3.227 21.74 21.279 21.842 35.541 25.172 11.611 2.711 15.055 14.046 24.29 20.202 4.679 3.119 10.025 4.446 15.592 4.71 7.529.356 17.752-2.472 23.626 3.201 7.636 7.376 6.368 18.146 17.274 23.166 4.68 2.155 10.165 3.26 15.324 3.064 7.564-.287 15.238-4.949 19.765 3.353 4.844 8.883 7.053 15.406 17.548 19.01 5.247 1.802 11.998 2.486 17.231.307a86.889 86.889 0 0 1-2.749 10.018c-1.312-2.22-3.52-3.891-6.812-4.647-7.531-1.728-11.465 2.706-16.514 6.476-1.397-4.104-3.073-7.605-8.279-8.647-8.018-1.605-12.61 3.892-17.447 8.956-3.944-6.002-8.245-11.499-16.408-11.808-6.499-.246-10.434 4.148-14.268 8.643-1.548-2.382-3.441-4.484-6.051-5.775-2.864-1.417-3.422-.646-6.01-1.137-5.499-1.043-5.143.272-5.822-3.88-.948-5.794.183-13.934-7.778-15.049-4.534-.635-9.231 3.806-13.169.796-3.904-2.985-1.152-9.314-1.433-13.882-.402-6.528-4.645-14.335-12.15-13.245-3.348.486-6.215 3.069-8.594 5.274-1.551 1.438-2.843 3.305-4.497 4.62-3.934 3.129-3.458 2.155-6.636-.103-5.593-3.975-10.425-11.165-17.616-4.585-5.825 5.329-7.131 16.587-6.874 24.208a96.012 96.012 0 0 1-5.284-11.988zm81.376 72.2c-22.861-7.458-44.95-20.666-61.148-38.798.27-.751.58-1.468 1.001-2.02 2.065-2.706 9.179-4.184 11.807-1.932 1.908 1.635 2.625 5.643 4.19 7.729 3.704 4.936 8.467 5.454 14.291 5.605 4.752.123 6.103-.067 9.678 3.254 2.838 2.636 2.223 2.949 3.815 5.414 1.542 2.389 2.651 4.491 5.185 6.105 5.405 3.444 10.342.602 15.96-.541 9.523-1.937 8.155 5.663 14.068 10.485 4.236 3.455 8.365 2.621 13.382 2.095 5.483-.574 7.791 1.267 12.518 2.819 2.35.772 4.608 1.062 7.079.624 3.212-.569 6.576-3.672 9.702-3.69 4.55-.026 6.003 2.968 6.9 6.297-22.703 3.99-45.797 3.938-68.428-3.446zm78.236 1.478c-.967.218-1.938.416-2.908.621-1.065-4.779-2.54-9.176-7.806-11.253-3.05-1.203-6.005-.87-9.083.047-1.547.461-2.97 1.464-4.514 1.859-10.909 2.79-5.523.174-11.233-1.427-3.42-.959-5.547-1.568-9.198-1.243-1.781.159-4.927 1.431-6.75 1.014-6.093-1.395-5.304-4.407-7.631-7.883-3.463-5.171-6.986-6.64-13.42-5.71-7.176 1.037-12.03 5.102-18.122-2.927-2.101-2.769-2.86-5.288-6.112-7.035-3.33-1.788-6.339-1.231-9.823-1.685-4.923-.641-10.058-1.879-13.154-6.128-1.287-1.767-1.835-4.118-3.029-5.966-7.037-10.891-15.354-4.345-19.428 4.139-.249-.301-.511-.591-.757-.895-4.309-7.337-5.532-16.168-3.981-24.742 1.115-6.168 3.115-15.136 11.92-6.655 1.574 1.516 2.19 3.86 4.264 4.971 4.908 2.629 9.756-1.496 13.163-4.714 3.291-3.109 5.116-7.534 9.43-4.822 4.213 2.649 2.344 7.226 2.477 11.609.137 4.493 1.123 8.488 5.586 10.483 2.076.928 4.236.918 6.451.744 4.643-.364 6.342-2.968 9.95.944 4.633 5.023-1.921 10.542 2.155 15.709 1.412 1.79 3.623 2.489 5.81 2.859 6.051 1.025 10.27.742 13.078 7.646 1.208 2.969 4.594 4.249 7.144 1.886 2.799-2.594 5.036-7.374 8.178-9.34 7.661-4.797 12.796 3.675 16.867 9.081 1.227 1.629 3.651 2.416 5.254.677 3.457-3.748 5.664-6.95 10.71-8.554 6.565-2.086 6.002 2.16 7.719 7.219.803 2.365 3.178 3.265 5.391 2.193 4.468-2.164 17.229-15.228 18.046-1.689.048.796.375 1.466.848 1.994-4.587 9.494-10.615 18.434-17.492 26.973zm163.548-65.053c-41.908 16.167-81.938 37.009-123.918 52.852-7.659 2.89-15.447 5.573-23.324 7.915 9.752-11.191 15.503-26.408 18.142-40.709 4.528-24.533-1.444-49.489-12.555-71.471-22.543-44.603-65.103-75.03-115.744-73.422 18.452-5.336 37.249-9.399 55.958-13.729 5.921-1.37 11.835-2.783 17.75-4.192 14.809-.387 29.732.859 43.97 2.695 29.523 3.806 59.268 10.307 86.068 23.647 25.389 12.638 42.753 29.976 54.292 55.968 4.392 9.894 7.837 20.181 10.078 30.772 1.741 8.226 1.125 16.616 2.062 24.755-4.26 1.646-8.524 3.278-12.779 4.919zm91.491-59.519c-4.183 15.554-16.417 25.12-29.892 32.71-12.328 6.944-25.284 12.58-38.408 17.817.366-6.109-1.365-13.001-2.384-17.945-2.395-11.617-6.28-22.753-11.131-33.563-11.962-26.654-29.523-45.782-55.638-58.886-27.141-13.619-56.985-20.822-86.949-24.796-10.222-1.356-20.618-2.667-31.01-3.191 9.702-2.198 19.434-4.255 29.24-5.949a343.702 343.702 0 0 1 27.929-3.631c3.345-.189 6.701-.374 10.094-.441 11.022-.217 22.049.034 33.072.007 16.436-.04 30.764-2.019 43.965-12.501 6.595-5.238 12.361-11.509 18.078-17.666 5.045-5.434 10.28-12.842 17.151-16.025 10.119-4.688 17.192 5.787 23.275 12.722 5.508 6.279 11.167 12.465 16.378 18.994 23.328 29.229 46.598 73.791 36.23 112.344z" fill="#000000" data-original="#000000"></path><path d="M131.469 313.549c-7.94 8.28-8.778 20.789.544 26.482 7.709 6.575 19.345 7.801 28.237 2.608 11.014-6.433 13.711-21.296 4.522-30.583-9.044-9.141-24.78-7.395-33.303 1.493zm32.724 12.572c-.028 12.877-16.038 16.924-25.82 12.551-4.446-1.987-7.308-4.988-8.685-8.342-.361-1.286-.463-2.688-.195-4.24.917-5.33 5.184-8.863 9.815-11.081 9.58-4.588 24.914-2.122 24.885 11.112zM207.713 383.96c11.263 5.691 29.631 1.714 30.977-12.96.63-6.874-3.424-12.968-9.712-15.578-5.923-2.458-12.728-1.375-19-.039-.674.119-1.34.265-1.996.434-.653.144-1.3.287-1.936.424a1.235 1.235 0 0 0-.727.437c-1.885.728-3.636 1.681-5.145 2.909-9.365 7.621-.845 20.136 7.539 24.373zm.088-23.592a26.746 26.746 0 0 1 4.38-1.186c9.274.167 22.149.514 19.341 12.371-2.495 10.535-17.688 9.679-24.596 4.853-7.354-5.136-7.854-12.821.875-16.038zM88.724 372.421c.608 1.394 1.862 1.81 3.077 1.594.203-.015.41-.036.629-.086l.452-.103c3.519-.799 3.596-5.875.456-7.17-3.562-1.469-6.141 2.267-4.767 5.415l.153.35zM105.345 366.117c1.289-.481 2.227-1.387 2.418-2.806.182-1.355-.45-2.636-1.611-3.363-.405-.254-.919-.551-1.365-.652l-.644-.087c-2.816-.656-5.225 2.328-3.832 5.138.874 1.765 3.308 2.414 5.034 1.77zM104.237 381.305c.176 1.308.875 2.434 2.034 3.112 1.435.84 2.856.627 4.3 0 2.447-1.062 3.227-4.467 1.948-6.624-.782-1.319-2.783-2.01-4.206-1.302-2.425.067-4.415 2.288-4.076 4.814zM124.973 374.728c4.194 0 4.2-6.518 0-6.518-4.193.001-4.201 6.518 0 6.518zM159.558 390.406c.262 2.387 1.674 3.818 4.082 4.082l.265.029c1.485.163 3.065-.948 3.779-2.168.824-1.409.724-3.002 0-4.417-.286-.559-.749-1.15-1.316-1.44l-.254-.13c-1.415-.724-3.008-.824-4.417 0-1.22.713-2.33 2.294-2.168 3.779l.029.265zM163.427 405.737c-2.635 1.134-2.635 5.81 0 6.944 1.688.726 3.148.967 4.78-.062 1.139-.718 2.193-1.978 2.128-3.41-.067-1.495-.909-2.618-2.128-3.41-1.62-1.05-3.08-.794-4.78-.062zM180.318 417.631c2.381 1.005 4.774-.337 5.592-2.685.395-1.135.465-2.291.148-3.454-.376-1.378-1.79-2.549-3.261-2.482-1.992.09-3.397 1.115-4.46 2.744-1.367 2.094-.187 4.962 1.981 5.877zM182.411 406.538c.152.09.312.171.416.239 3.617 2.371 7.883-3.096 4.644-6.019-1.04-.939-2.208-1.56-3.639-1.519a4.753 4.753 0 0 0-1.433.257c-.495.139-.923.393-1.311.714l-.203.146c-1.423 1.017-2.245 2.968-1.203 4.586.683 1.06 1.663 1.565 2.729 1.596zM215.49 418.614l.308-.081c3.974-1.045 3.978-7.007 0-8.053l-.308-.081c-2.676-.704-5.392 1.329-5.392 4.107 0 2.769 2.715 4.812 5.392 4.108zM193.649 419.324c1.483 1.483 4.199 1.594 5.662 0 1.467-1.598 1.583-4.08 0-5.662l-.662-.662c-1.483-1.483-4.199-1.594-5.662 0-1.467 1.598-1.583 4.079 0 5.662l.662.662zM146.317 391.532c.313 1.091 1.16 2.071 2.276 2.326.972.221 1.815.017 2.547-.444.514-.221.98-.543 1.42-.978.975-.964 1.392-2.471 1.003-3.795l-.082-.277c-.606-2.067-3.463-3.704-5.438-2.213l-.21.159c-1.561 1.178-2.068 2.495-1.793 4.405.041.28.162.549.277.817zM114.379 366.158c2.07 0 4.053-1.82 3.957-3.957-.096-2.144-1.739-3.957-3.957-3.957-2.07 0-4.053 1.82-3.957 3.957.096 2.143 1.739 3.957 3.957 3.957zM82.599 351.831c-1.512.068-2.831.897-3.425 2.304-.779 1.847.006 3.55 1.533 4.68l.27.2c.826.611 2.416.611 3.243 0l.27-.2c1.356-1.003 2.203-2.486 1.722-4.232-.42-1.528-1.981-2.825-3.613-2.752zM384.751 81.692c1.234 9.57 6.512 17.158 16.814 14.262 11.224-3.156 15.42-14.411 14.471-25.067-.763-8.571-5.239-21.798-15.744-22.097-15.14-.432-17.951 21.645-15.797 32.388.042.208.139.372.256.514zm18.007-25.7c7.179 4.518 8.615 19.095 5.643 26.209-1.616 3.867-6.165 8.33-10.672 8.309-4.192-.02-6.44-4.247-7.641-7.702a29.69 29.69 0 0 1-1.639-8.949c1.737-9.758 5.205-23.597 14.309-17.867zM315.275 182.842c-2.22 0-4.347 1.952-4.245 4.245.103 2.3 1.865 4.245 4.245 4.245 2.22 0 4.348-1.952 4.245-4.245-.103-2.3-1.865-4.245-4.245-4.245zM331.656 170.18c-.947-1.485-2.725-2.299-4.469-1.818-1.613.444-2.982 2.092-2.905 3.816.176 3.933 5.228 5.363 7.374 1.997l.09-.141c.679-1.066.679-2.647 0-3.713l-.09-.141zM338.926 176.565l.634.48c-.865-.909-2.466-1.419-3.68-.973-.349.128-.811.272-1.112.493-1.496 1.093-2.419 2.742-1.893 4.653.463 1.68 2.178 3.105 3.973 3.025 1.662-.074 3.112-.986 3.765-2.533.829-1.969.034-3.98-1.687-5.145zM353.399 155.953l-.221.023c-2.365.243-3.817 1.677-4.063 4.063l-.023.221c-.173 1.68 1.202 3.326 2.647 3.935 1.526.645 3.537.381 4.704-.89 1.027-1.119 1.519-2.695 1.107-4.19-.458-1.669-2.3-3.353-4.151-3.162zM362.057 138.122c-1.68-.359-3.418.627-4.074 2.181-.636 1.507-.192 2.938.849 4.011 1.413 1.883 4.215 2.26 5.954.517.816-.819 1.018-1.686 1.151-2.78.242-1.975-1.962-4.054-3.88-3.929zM377.896 147.415c-1.478.066-2.896.796-3.658 2.098-.892 1.523-.743 3.918.662 5.134l.178.154c1.719 1.487 3.906 1.496 5.636 0l.178-.154c1.278-1.105 1.497-3.156.876-4.628-.627-1.485-2.191-2.679-3.872-2.604zM376.631 161.871c-1.21.054-2.129.604-2.773 1.473a3.237 3.237 0 0 0-1.764 2.446c-.208 1.549.683 2.868 2.093 3.436 1.265.693 2.712.83 4.065-.02 1.655-1.04 2.236-2.9 1.771-4.753-.361-1.437-1.886-2.649-3.392-2.582zM395.111 153.328c-2.24 0-4.387 1.97-4.283 4.283.104 2.32 1.882 4.283 4.283 4.283 2.24 0 4.386-1.97 4.283-4.283-.104-2.321-1.882-4.283-4.283-4.283zM392.001 146.099c2.328 1.581 5.455.345 6.626-2.049 1.376-2.813-1.159-5.635-3.982-4.699l-.161.009c-.566.033-1.1.109-1.638.273-3.03.924-3.345 4.768-.845 6.466zM412.326 129.748c-1.404.063-2.753.757-3.477 1.994-.996 1.701-.491 3.446.63 4.88l.145.186c1.17 1.497 4.241 1.488 5.405 0l.145-.186c1.024-1.31 1.513-2.787.833-4.399-.597-1.412-2.084-2.547-3.681-2.475zM409.677 146.58c-4.823 0-4.831 7.495 0 7.495 4.823 0 4.831-7.495 0-7.495z" fill="#000000" data-original="#000000"></path></g></svg>