<svg xmlns="http://www.w3.org/2000/svg" version="1.1" xmlns:xlink="http://www.w3.org/1999/xlink" xmlns:svgjs="http://svgjs.com/svgjs" width="512" height="512" x="0" y="0" viewBox="0 0 496 496" style="enable-background:new 0 0 512 512" xml:space="preserve"><g><linearGradient id="a" x1="248" x2="248" y1="400" y2="0" gradientUnits="userSpaceOnUse"><stop offset="0" stop-color="#9f2fff"></stop><stop offset="1" stop-color="#0bb1d3"></stop></linearGradient><path fill="url(#a)" d="M328 344c0-4.414-3.594-8-8-8h-24v-16h24c13.23 0 24 10.77 24 24s-10.77 24-24 24h-88v-16h88c4.406 0 8-3.586 8-8zm168-240v16c0 9.77-5.879 18.152-14.273 21.895C490.527 150.602 496 162.672 496 176s-5.473 25.398-14.273 34.105C490.12 213.848 496 222.23 496 232v16c0 39.703-32.305 72-72 72h-48v24c0 4.414 3.594 8 8 8h48c13.23 0 24 10.77 24 24s-10.77 24-24 24H168c-13.23 0-24-10.77-24-24s10.77-24 24-24h48v16h-48c-4.406 0-8 3.586-8 8s3.594 8 8 8h264c4.406 0 8-3.586 8-8s-3.594-8-8-8h-48c-13.23 0-24-10.77-24-24V184c0-13.23 10.77-24 24-24h32c4.406 0 8-3.586 8-8v-8H280v88c0 4.414 3.594 8 8 8s8-3.586 8-8v-32c0-13.23 10.77-24 24-24s24 10.77 24 24v80c0 13.23-10.77 24-24 24h-80c-4.406 0-8 3.586-8 8s3.594 8 8 8h40v16h-40c-10.414 0-19.207-6.71-22.52-16H72c-39.695 0-72-32.297-72-72v-16c0-9.77 5.879-18.152 14.273-21.895C5.473 201.398 0 189.328 0 176s5.473-25.398 14.273-34.105C5.88 138.152 0 129.77 0 120v-16C0 46.656 46.648 0 104 0h288c57.344 0 104 46.656 104 104zM363.312 16l-48.687 48.688A9.064 9.064 0 0 0 312 71.03c0 4.946 4.023 8.969 8.969 8.969 2.398 0 4.648-.93 6.344-2.625L388.688 16zm-104 0-48.687 48.688A9.064 9.064 0 0 0 208 71.03c0 4.946 4.023 8.969 8.969 8.969 2.398 0 4.648-.93 6.344-2.625L284.688 16zm-104 0-48.687 48.688A9.064 9.064 0 0 0 104 71.03c0 4.946 4.023 8.969 8.969 8.969 2.398 0 4.648-.93 6.344-2.625L180.686 16zM32 153.527v-5.078C22.48 154 16 164.2 16 176c0 17.648 14.352 32 32 32h216v-29.816C252.266 191.52 235.121 200 216 200c-20.16 0-38.145-9.39-49.879-24h-13.176a6.436 6.436 0 0 0-5.793 3.574C143.32 187.238 135.625 192 127.055 192h-12.621a22.438 22.438 0 0 1-21.32-15.375l-1.403-4.184A6.473 6.473 0 0 0 85.566 168h-2.152c-1 0-1.988.23-2.879.68l-9.902 4.945A22.554 22.554 0 0 1 60.586 176h-6.113C42.078 176 32 165.922 32 153.527zM54.473 160h6.113c1 0 2-.23 2.879-.68l9.902-4.945A22.554 22.554 0 0 1 83.414 152h2.152a22.438 22.438 0 0 1 21.32 15.375l1.403 4.184a6.473 6.473 0 0 0 6.145 4.441h12.62a6.436 6.436 0 0 0 5.794-3.574c3.824-7.664 11.527-12.426 20.097-12.426h3.766a63.866 63.866 0 0 1-4.16-16H48v9.527A6.473 6.473 0 0 0 54.473 160zm130.664-16h-16.418c3.832 22.664 23.539 40 47.281 40 23.734 0 43.45-17.336 47.281-40h-16.418c-3.574 13.77-16 24-30.863 24s-27.29-10.23-30.863-24zM216 152c5.895 0 11-3.238 13.777-8H202.23c2.77 4.762 7.875 8 13.77 8zm48 80v-8h-54.863c3.574 13.77 16 24 30.863 24 9.512 0 18.414-4.215 24.465-11.406A24.105 24.105 0 0 1 264 232zm-134.863-8c3.574 13.77 15.992 24 30.863 24 14.863 0 27.29-10.23 30.863-24zm-80 0C52.71 237.77 65.129 248 80 248c14.863 0 27.29-10.23 30.863-24zM312 208h16v-8c0-4.414-3.594-8-8-8s-8 3.586-8 8zm-38.887 42.672C264.273 259.122 252.496 264 240 264c-16.687 0-31.39-8.566-40-21.52-8.61 12.954-23.312 21.52-40 21.52s-31.39-8.566-40-21.52C111.39 255.434 96.688 264 80 264c-23.734 0-43.45-17.336-47.281-40H24c-4.406 0-8 3.586-8 8v16c0 30.871 25.121 56 56 56h145.473c3.312-9.29 12.113-16 22.527-16h80c4.406 0 8-3.586 8-8v-56h-16v8c0 13.23-10.77 24-24 24-5.656 0-10.785-2.047-14.887-5.328zM480 232c0-4.414-3.594-8-8-8h-8.719c-3.832 22.664-23.539 40-47.281 40-16.688 0-31.39-8.566-40-21.52V304h48c30.879 0 56-25.129 56-56zm-64 16c14.863 0 27.29-10.23 30.863-24h-61.726c3.574 13.77 16 24 30.863 24zm64-72c0-17.648-14.352-32-32-32h-8v8c0 13.23-10.77 24-24 24h-32c-4.406 0-8 3.586-8 8v24h72c17.648 0 32-14.352 32-32zm0-72c0-42.512-30.313-78.078-70.457-86.23l-70.918 70.918C333.91 93.406 327.641 96 320.969 96 307.199 96 296 84.8 296 71.031c0-6.574 2.664-13.008 7.313-17.656L340.688 16h-33.375l-72.688 72.688C229.91 93.406 223.641 96 216.969 96 203.199 96 192 84.8 192 71.031c0-6.574 2.664-13.008 7.313-17.656L236.688 16h-33.375l-72.688 72.688C125.91 93.406 119.641 96 112.969 96 99.199 96 88 84.8 88 71.031c0-6.574 2.664-13.008 7.313-17.656L132.686 16H104c-48.52 0-88 39.48-88 88v16c0 4.414 3.594 8 8 8h448c4.406 0 8-3.586 8-8zm0 0" data-original="url(#a)"></path></g></svg>