<svg xmlns="http://www.w3.org/2000/svg" version="1.1" xmlns:xlink="http://www.w3.org/1999/xlink" xmlns:svgjs="http://svgjs.com/svgjs" width="512" height="512" x="0" y="0" viewBox="0 0 682.667 682.667" style="enable-background:new 0 0 512 512" xml:space="preserve"><g><defs><clipPath id="a" clipPathUnits="userSpaceOnUse"><path d="M0 512h512V0H0Z" fill="#000000" data-original="#000000"></path></clipPath></defs><g clip-path="url(#a)" transform="matrix(1.33333 0 0 -1.33333 0 682.667)"><path d="M0 0c-6.356 5.105-13.78 8.893-21.543 11.305-3.029 31.895-3.388 69.933-3.331 89.829.02 6.947 6.953 11.75 13.467 9.336C31.366 94.615 69.812 61.353 89.122 21.012c18.459-38.564 19.691-80.613 3.471-118.401-8.903-20.74-21.655-38.875-37.372-53.855-5.008-4.774-13.217-3.21-16.06 3.096-14.526 32.22-29.698 66.949-29.698 66.949 11.18 14.407 14.716 32.886 10.512 49.876M15.47-178.935c-23.153-15.524-57.907-19.937-84.433-19.937-24.674 0-49.415 4.584-72.56 13.086-24.696 9.071-45.872 21.29-64.018 35.36-7.451 5.777-3.492 17.67 5.933 17.901 73.008 1.791 120.344 46.872 120.771 46.431 18.007-18.587 45.355-22.651 67.456-11.989 0 0 19.831-38.279 30.788-69.189 1.533-4.326-.126-9.107-3.937-11.663zm-276.156 87.92c-13.936 20.595-24.189 41.524-31.669 60.344-28.532 71.791-29.952 142.939-21.767 185.583 3.244 16.903 10.284 32.94 19.824 45.154 10.853 13.898 23.844 21.689 38.612 23.157 1.749.173 3.519.262 5.258.262 26.808 0 49.717-21.016 71.872-41.34 11.843-10.866 23.029-21.127 35.06-28.72 21.97-13.867 64.804-25.671 82.206-30.105a9.999 9.999 0 0 0 7.522-9.787c-.501-58.291 4.797-101.765 4.797-101.765a58.228 58.228 0 0 1-28.537-15.18c-16.117-15.598-21.319-38.21-15.474-58.345l-.012.013S-162.1-124.401-249.71-98.975c-4.47 1.297-8.369 4.106-10.976 7.96zm225.368 75.804a30.104 30.104 0 0 0 20.214-9.158c11.614-11.988 11.305-31.185-.69-42.793-6.07-5.875-14.063-8.883-22.506-8.469-9.524.467-18.28 5.358-23.743 13.53-8.154 12.199-6.326 28.218 4.219 38.421 6.071 5.874 14.063 8.883 22.506 8.469zM-355.1 126.658c-3.411-54.347 6.599-116.958 28.099-171.056 23.973-60.321 73.379-139.875 172.616-176.325 23.923-8.788 48.707-13.863 73.664-15.086.003-.001-.002 0 0-.001 43.959-2.153 86.383 7.699 122.673 28.486 38.18 21.872 67.539 54.813 84.902 95.263 20.536 47.842 19.052 100.856-4.176 149.277C96.79 91.183 46.631 133.098-11.497 149.34c-11.483 3.209-22.98 5.872-34.099 8.447-28.474 6.597-55.368 12.827-77.988 27.104-9.197 5.804-19.184 14.966-29.756 24.666-25.103 23.027-53.554 49.128-92.697 51.046a90.75 90.75 0 0 1-13.346-.337c-24.951-2.481-47.188-15.379-64.31-37.303-11.009-14.097-19.547-31.653-24.566-50.301" style="stroke-width:15;stroke-linecap:round;stroke-linejoin:round;stroke-miterlimit:10;stroke-dasharray:none;stroke-opacity:1" transform="translate(363.254 243.695)" fill="none" stroke="#060606" stroke-width="15" stroke-linecap="round" stroke-linejoin="round" stroke-miterlimit="10" stroke-dasharray="none" stroke-opacity="" data-original="#060606"></path></g></g></svg>